<?xml version="1.0" standalone="no"?>
<!DOCTYPE svg PUBLIC "-//W3C//DTD SVG 1.1//EN" "http://www.w3.org/Graphics/SVG/1.1/DTD/svg11.dtd" >
<svg>
<metadata>
Created by FontForge 20110222 at Mon Jul 21 07:30:05 2014
 By Orthosie Webhosting
Copyright 2000 Adobe Systems Incorporated. All Rights Reserved.Chaparral is either a registered trademark or a trademark of Adobe Systems Incorporated in the United States and/or other countries.
</metadata>
<defs>
<font id="ChaparralPro-Semibold" horiz-adv-x="359" >
  <font-face 
    font-family="Chaparral Pro"
    font-weight="600"
    font-stretch="normal"
    units-per-em="1000"
    panose-1="2 6 6 3 4 5 5 2 2 3"
    ascent="740"
    descent="-260"
    x-height="428"
    cap-height="650"
    bbox="-40 -316.25 1128 885"
    underline-thickness="54"
    underline-position="-46"
    stemh="62"
    stemv="115"
    unicode-range="U+0020-FB04"
  />
<missing-glyph horiz-adv-x="500" 
d="M0 0v700h500v-700h-500zM250 395l170 255h-340zM280 350l170 -255v510zM80 50h340l-170 255zM50 605v-510l170 255z" />
    <glyph glyph-name="fi" unicode="fi" horiz-adv-x="596" 
d="M328 686h1c52 0 108 -12 142 -28c0 -26 -27 -75 -46 -88c-24 12 -77 39 -131 39c-22 0 -46 -8 -59 -25c-19 -24 -29 -48 -27 -159c39 0 72 1 124 2c65 1 174 10 182 9c2 0 2 -1 2 -3c-1 -110 -2 -266 -2 -370l64 -2c0 -20 0 -41 -1 -60h-122c-36 0 -77 -1 -112 -1
c0 20 0 41 1 60l55 3c2 0 3 2 3 4v289c-22 1 -59 2 -82 2c-33 0 -77 0 -112 -1c0 -81 -1 -203 -1 -294l71 -2v-60h-128c-35 0 -79 -1 -113 -1c0 20 0 40 1 60l54 3c2 0 4 2 4 4c0 95 0 196 -1 290h-73c0 22 1 46 2 66c21 1 44 2 65 2c3 0 5 3 5 7c0 103 18 139 64 184
c59 58 112 70 170 70z" />
    <glyph glyph-name="fl" unicode="fl" horiz-adv-x="601" 
d="M205 63l74 -2v-60h-129c-35 0 -79 -1 -113 -1c0 20 0 40 1 60l54 3c2 0 4 2 4 4c0 95 0 196 -1 290h-73c0 22 1 46 2 66c21 1 44 1 65 2c3 0 5 3 5 8c0 102 13 138 60 184c60 57 109 69 177 69c63 0 145 -12 185 -27c3 -1 4 -3 4 -7c-1 -165 -3 -404 -4 -589l70 -2
c0 -20 -1 -41 -1 -60h-126c-37 0 -82 -1 -114 -1c0 19 1 41 1 60l57 3c2 0 3 2 3 5c1 89 1 189 1 289h-201c0 -82 -1 -203 -1 -294zM302 616h-1c-35 0 -58 -10 -73 -29c-18 -23 -23 -54 -22 -163c62 0 134 1 201 1c0 64 1 123 0 177c-25 9 -62 14 -105 14z" />
    <glyph glyph-name="ff" unicode="ff" horiz-adv-x="667" 
d="M317 680h1c41 0 74 -9 89 -16c0 -27 -23 -72 -40 -82c-14 6 -46 21 -79 21c-25 0 -44 -10 -55 -28c-15 -23 -26 -70 -25 -150h192c4 0 6 3 6 7c0 100 14 137 55 181c58 61 113 73 161 73c35 0 65 -7 83 -14c0 -26 -23 -74 -39 -86c-9 3 -49 20 -76 20
c-17 0 -38 -7 -49 -25c-17 -26 -21 -49 -20 -156c45 0 94 1 138 1c0 -21 -1 -48 -3 -69h-136c0 -81 -1 -203 -1 -294l94 -2c0 -20 0 -40 -1 -60h-150c-35 0 -79 -1 -113 -1c0 20 1 40 1 60l54 3c2 0 4 2 4 4c0 95 0 196 -1 290h-199c0 -81 -1 -203 -1 -294l75 -2
c0 -20 0 -40 -1 -60h-131c-35 0 -79 -1 -113 -1c0 20 0 40 1 60l54 3c2 0 4 2 4 4c0 95 0 196 -1 290h-73c0 22 1 46 2 66c21 1 44 1 64 2c4 0 6 2 6 6c1 78 14 128 57 175c59 61 118 74 166 74z" />
    <glyph glyph-name="ffi" unicode="ffi" horiz-adv-x="905" 
d="M37 60l54 3c2 0 4 2 4 5c0 94 0 195 -1 289h-72c0 22 0 46 1 66c21 0 45 1 64 2c4 0 6 1 6 6c1 78 14 128 58 174c58 62 117 75 166 75c40 0 73 -9 90 -17c0 -24 -25 -72 -40 -82c-15 7 -46 22 -80 22c-24 0 -45 -10 -55 -28c-16 -23 -27 -70 -26 -150h194c3 0 5 2 5 7
c0 103 18 139 64 184c59 58 113 70 170 70c53 0 111 -12 142 -28c0 -26 -27 -75 -46 -88c-22 12 -75 39 -130 39c-22 0 -46 -8 -59 -25c-19 -24 -30 -48 -28 -159c39 0 72 1 123 1c65 1 173 10 181 10c2 0 2 -1 2 -3c-1 -110 -2 -266 -2 -370l64 -2c0 -20 0 -41 -1 -60h-121
c-35 0 -75 -1 -110 -1v60l56 3c2 0 3 2 3 4v289c-24 1 -62 1 -85 1h-110c-1 -82 -1 -203 -1 -294l73 -2c0 -20 0 -41 -1 -60h-128c-35 0 -78 -1 -113 -1c0 20 0 40 1 60l54 3c2 0 4 2 4 4c0 95 0 196 -1 290h-200c0 -82 -1 -203 -1 -294l77 -2c0 -20 0 -40 -1 -60h-132
c-35 0 -79 -1 -113 -1c0 20 0 40 1 60z" />
    <glyph glyph-name="ffl" unicode="ffl" horiz-adv-x="909" 
d="M647 686h1c59 0 139 -12 178 -25c2 -1 3 -4 3 -7c-1 -166 -3 -406 -4 -591l70 -2c0 -20 -1 -41 -1 -60h-124c-37 0 -82 -1 -114 -1c0 19 0 41 1 60l57 3c2 0 3 2 3 5c1 89 1 189 1 289h-202c0 -81 -1 -203 -1 -294l76 -2c0 -20 -1 -40 -1 -60h-129c-35 0 -79 -1 -113 -1
c0 20 0 40 1 60l54 3c2 0 4 2 4 4c0 95 0 196 -1 290h-200c-1 -81 -1 -203 -1 -294l77 -2c0 -20 0 -40 -1 -60h-132c-35 0 -79 -1 -113 -1c0 20 0 40 1 60l54 3c2 0 4 2 4 4c0 95 0 196 -1 290h-73c0 22 1 46 2 66c21 1 45 1 64 2c4 0 6 2 6 6c1 77 14 128 58 175
c58 61 117 74 165 74c41 0 74 -8 91 -16c0 -24 -25 -72 -41 -82c-15 7 -46 21 -80 21c-23 0 -44 -9 -55 -27c-17 -23 -26 -71 -25 -151h194c3 0 5 3 5 8c0 102 13 139 59 184c61 57 112 69 183 69zM612 617h-1c-29 0 -58 -12 -72 -32c-19 -25 -24 -52 -23 -162
c62 0 136 1 202 1c0 65 1 124 0 179c-24 9 -66 14 -106 14z" />
    <glyph glyph-name="f_j" unicode="fj" horiz-adv-x="578" 
d="M328 686h1c52 0 109 -12 142 -28c0 -26 -27 -75 -46 -88c-23 12 -77 39 -131 39c-22 0 -46 -8 -58 -25c-20 -24 -30 -48 -28 -159c39 0 72 1 124 2c65 1 174 10 182 9c1 0 1 -1 1 -3c0 -105 -1 -247 -1 -354c0 -77 -7 -118 -35 -173c-28 -59 -72 -119 -127 -149
c-23 0 -70 36 -74 59c37 17 75 41 93 74c21 36 33 83 32 181l-2 285c-26 1 -61 2 -80 2c-37 0 -79 0 -113 -1c0 -81 -1 -203 -1 -294l72 -2c0 -20 -1 -40 -1 -60h-128c-35 0 -79 -1 -113 -1c0 20 0 40 1 60l54 3c2 0 4 2 4 4c0 95 0 196 -1 290h-73c0 22 1 46 2 66
c21 1 44 2 65 2c3 0 5 3 5 7c0 103 18 139 64 184c59 58 112 70 170 70z" />
    <glyph glyph-name="f_f_j" unicode="ffj" horiz-adv-x="887" 
d="M37 60l54 3c2 0 4 2 4 5c0 94 0 195 -1 289h-72c0 22 0 46 1 66c21 0 45 1 64 2c4 0 6 1 6 6c1 78 14 128 58 174c58 62 117 75 166 75c40 0 73 -9 90 -17c0 -24 -25 -72 -40 -82c-15 7 -46 22 -80 22c-24 0 -45 -10 -55 -28c-16 -23 -27 -70 -26 -150h194c3 0 5 2 5 7
c0 103 18 139 64 184c59 58 113 70 170 70c54 0 112 -12 143 -28c0 -26 -27 -75 -47 -88c-21 12 -75 39 -130 39c-22 0 -46 -8 -59 -25c-19 -24 -30 -48 -28 -159c39 0 72 1 124 1c65 1 172 10 180 10c2 0 2 -1 2 -3c0 -105 -1 -247 -1 -354c0 -77 -7 -118 -35 -173
c-28 -59 -71 -119 -127 -149c-23 0 -70 36 -74 59c36 17 75 41 93 74c21 36 33 83 33 181l-1 285c-28 1 -60 1 -84 1h-110c-1 -82 -1 -203 -1 -294l73 -2c0 -20 0 -41 -1 -60h-128c-35 0 -78 -1 -113 -1c0 20 0 40 1 60l54 3c2 0 4 2 4 4c0 95 0 196 -1 290h-200
c0 -82 -1 -203 -1 -294l77 -2c0 -20 0 -40 -1 -60h-132c-35 0 -79 -1 -113 -1c0 20 0 40 1 60z" />
    <glyph glyph-name="T_h" unicode="Th" horiz-adv-x="1056" 
d="M355 582l-2 -515l83 -3c1 -21 0 -43 -1 -64c-38 0 -92 1 -138 1c-44 0 -96 -1 -141 -1c0 21 0 42 1 63l75 3c3 0 4 2 4 4v513c-66 0 -85 -2 -104 -5c-17 -2 -21 -8 -23 -19l-17 -96c-25 2 -53 4 -77 6c4 61 7 121 11 181c20 0 55 -1 93 -1h182c30 0 188 0 213 1h172
c0 -81 -1 -173 -3 -267l5 -1c103 53 122 56 160 56c46 0 91 -37 114 -76c11 -19 14 -44 14 -74c0 -70 -1 -151 -2 -225l60 -2c0 -19 -1 -41 -1 -60h-111c-37 0 -79 -1 -113 -1c0 19 0 40 1 60l49 3c2 0 3 2 3 4v167c0 45 0 74 -12 94c-14 22 -35 27 -53 27
c-34 0 -78 -20 -112 -44c-1 -71 -2 -179 -2 -248l64 -2c0 -20 -1 -41 -2 -60h-122c-31 0 -79 -1 -110 -1c0 20 0 41 1 60l53 3c3 0 4 2 4 4c1 155 1 379 1 492c0 12 -8 20 -28 21c-19 1 -122 2 -189 2z" />
    <glyph glyph-name="T_h.commaaccent" unicode="&#x162;h" horiz-adv-x="1056" 
d="M355 582l-2 -515l83 -3c1 -21 0 -43 -1 -64c-38 0 -92 1 -138 1c-44 0 -96 -1 -141 -1c0 21 0 42 1 63l75 3c3 0 4 2 4 4v513c-66 0 -85 -2 -104 -5c-17 -2 -21 -8 -23 -19l-17 -96c-25 2 -53 4 -77 6c4 61 7 121 11 181c20 0 55 -1 93 -1h182c30 0 188 0 213 1h172
c0 -81 -1 -173 -3 -267l5 -1c103 53 122 56 160 56c46 0 91 -37 114 -76c11 -19 14 -44 14 -74c0 -70 -1 -151 -2 -225l60 -2c0 -19 -1 -41 -1 -60h-111c-37 0 -79 -1 -113 -1c0 19 0 40 1 60l49 3c2 0 3 2 3 4v167c0 45 0 74 -12 94c-14 22 -35 27 -53 27
c-34 0 -78 -20 -112 -44c-1 -71 -2 -179 -2 -248l64 -2c0 -20 -1 -41 -2 -60h-122c-31 0 -79 -1 -110 -1c0 20 0 41 1 60l53 3c3 0 4 2 4 4c1 155 1 379 1 492c0 12 -8 20 -28 21c-19 1 -122 2 -189 2zM302 -40h1c34 0 68 -38 68 -81c0 -67 -44 -128 -107 -163
c-9 12 -20 24 -29 36c44 30 60 60 60 88s-26 40 -45 45c-5 43 21 75 52 75z" />
    <glyph glyph-name="T_h.caron" unicode="&#x164;h" horiz-adv-x="1056" 
d="M355 582l-2 -515l83 -3c1 -21 0 -43 -1 -64c-38 0 -92 1 -138 1c-44 0 -96 -1 -141 -1c0 21 0 42 1 63l75 3c3 0 4 2 4 4v513c-66 0 -85 -2 -104 -5c-17 -2 -21 -8 -23 -19l-17 -96c-25 2 -53 4 -77 6c4 61 7 121 11 181c20 0 55 -1 93 -1h182c30 0 188 0 213 1h172
c0 -81 -1 -173 -3 -267l5 -1c103 53 122 56 160 56c46 0 91 -37 114 -76c11 -19 14 -44 14 -74c0 -70 -1 -151 -2 -225l60 -2c0 -19 -1 -41 -1 -60h-111c-37 0 -79 -1 -113 -1c0 19 0 40 1 60l49 3c2 0 3 2 3 4v167c0 45 0 74 -12 94c-14 22 -35 27 -53 27
c-34 0 -78 -20 -112 -44c-1 -71 -2 -179 -2 -248l64 -2c0 -20 -1 -41 -2 -60h-122c-31 0 -79 -1 -110 -1c0 20 0 41 1 60l53 3c3 0 4 2 4 4c1 155 1 379 1 492c0 12 -8 20 -28 21c-19 1 -122 2 -189 2zM347 784c39 24 83 52 116 74c12 -11 23 -26 33 -40
c-39 -31 -89 -73 -130 -106c-11 0 -27 0 -39 1c-40 34 -85 71 -128 105c10 14 21 28 32 39c34 -22 78 -49 116 -73z" />
    <glyph glyph-name=".notdef" horiz-adv-x="500" 
d="M0 0v700h500v-700h-500zM250 395l170 255h-340zM280 350l170 -255v510zM80 50h340l-170 255zM50 605v-510l170 255z" />
    <glyph glyph-name="space" unicode=" " horiz-adv-x="222" 
 />
    <glyph glyph-name="exclam" unicode="!" horiz-adv-x="290" 
d="M212 656h1v-2c-7 -111 -24 -341 -31 -463c-17 -5 -59 -9 -72 -10c-2 41 -13 165 -16 214c-4 58 -14 178 -21 239c28 8 119 22 139 22zM147 117h1c41 0 64 -32 64 -65c0 -35 -27 -62 -66 -62c-37 0 -66 25 -66 61c0 35 27 66 67 66z" />
    <glyph glyph-name="quotedbl" unicode="&#x22;" horiz-adv-x="373" 
d="M155 698c-4 -59 -13 -202 -15 -262c-16 -4 -46 -8 -58 -8c-7 90 -17 198 -24 255c26 8 83 15 97 15zM319 698c-4 -59 -13 -202 -15 -262c-16 -4 -46 -8 -58 -8c-7 90 -17 199 -24 255c25 9 82 15 97 15z" />
    <glyph glyph-name="numbersign" unicode="#" horiz-adv-x="541" 
d="M243 473l103 1c11 59 20 120 29 171c22 1 47 1 70 0c-8 -49 -20 -112 -30 -171c34 0 68 1 98 1c0 -20 -2 -44 -4 -63c-30 0 -68 0 -106 1c-8 -46 -15 -92 -22 -137h105c0 -20 -1 -40 -3 -60c-32 0 -73 -1 -113 -1c-12 -66 -23 -134 -33 -187c-21 -1 -43 -2 -63 -1
c11 63 21 127 31 188c-35 0 -71 -1 -106 -1c-12 -66 -24 -136 -33 -186c-19 -2 -40 -2 -63 -1c10 63 21 126 30 187c-34 0 -72 -1 -100 -1c0 22 1 46 3 64h108c7 45 14 90 21 136h-107c0 19 1 41 3 59c38 0 76 1 114 1c10 60 20 121 29 172c23 2 49 2 70 2
c-9 -49 -21 -114 -31 -174zM336 413h-105c-7 -46 -14 -92 -21 -136c32 -1 71 -1 105 -1c7 45 14 92 21 137z" />
    <glyph glyph-name="dollar" unicode="$" horiz-adv-x="541" 
d="M68 447v1c0 48 31 94 70 121c31 22 77 38 124 41c1 34 1 65 2 98c20 5 41 7 63 8c-1 -33 -2 -67 -3 -104c59 1 109 -13 138 -29c0 -20 -21 -65 -40 -78c-29 19 -70 39 -101 43c-1 -58 -3 -117 -4 -178c99 -31 162 -71 162 -161c0 -52 -21 -97 -55 -126
c-31 -27 -72 -48 -138 -53c-1 -33 -1 -65 -2 -99c-20 -2 -40 -4 -59 -4c1 33 2 66 2 101c-60 -1 -135 14 -179 38c4 20 26 62 45 76c37 -22 87 -48 136 -52c1 62 3 128 3 194c-91 34 -164 64 -164 163zM164 464v-1c0 -43 29 -60 94 -80c1 55 3 113 3 165
c-27 -1 -51 -9 -68 -23c-16 -13 -29 -34 -29 -61zM385 181v1c0 48 -30 70 -94 88c-1 -60 -3 -121 -4 -179c31 2 56 13 70 25c18 15 28 38 28 65z" />
    <glyph glyph-name="percent" unicode="%" horiz-adv-x="800" 
d="M527 604l-4 3c-59 -1 -132 -1 -212 -2c24 -19 44 -64 44 -116c0 -67 -25 -115 -60 -146c-26 -23 -63 -37 -101 -37c-35 0 -68 9 -94 30c-32 25 -60 72 -60 143c0 59 24 107 59 137c31 26 72 36 111 36c102 0 313 6 378 11c10 -12 19 -27 27 -40
c-62 -103 -131 -221 -189 -319c-59 -101 -131 -224 -196 -334c-18 8 -36 16 -54 28c70 117 133 227 196 335c50 87 104 181 155 271zM200 603h-1c-15 0 -30 -4 -42 -18c-18 -20 -28 -58 -28 -106c0 -54 10 -88 26 -105c12 -12 26 -19 43 -19c16 0 30 5 40 15
c15 16 28 51 28 111c0 46 -10 85 -24 103c-9 14 -24 19 -42 19zM609 336h1c45 0 77 -14 98 -33c29 -27 51 -74 51 -135c0 -58 -22 -112 -57 -143c-27 -25 -64 -36 -100 -36s-70 9 -95 28c-33 25 -61 75 -61 139c0 57 24 113 61 143c28 24 62 37 102 37zM605 287h-1
c-16 0 -30 -5 -43 -19c-17 -19 -26 -61 -26 -109c0 -51 9 -87 24 -103c13 -12 27 -18 44 -18c15 0 31 5 42 16c15 16 26 50 26 109c0 49 -10 87 -23 104c-10 14 -24 20 -43 20z" />
    <glyph glyph-name="ampersand" unicode="&#x26;" horiz-adv-x="736" 
d="M334 360l-1 -5c62 -44 131 -113 175 -163c26 31 51 98 54 140c0 7 0 8 -5 8l-51 3c0 20 0 40 1 57h112c32 0 66 1 96 1c1 -19 1 -40 0 -59l-56 -2c-26 -86 -62 -152 -104 -198c21 -21 47 -50 63 -68c10 -11 19 -13 27 -13l72 -2c0 -19 0 -39 -2 -59
c-55 -3 -122 -6 -170 -7c-21 23 -42 51 -66 77c-42 -35 -110 -80 -224 -80c-55 0 -107 12 -144 34c-54 34 -82 83 -82 140c0 79 53 148 140 191v4c-40 30 -81 75 -81 136c0 44 21 84 52 111c32 28 82 49 144 49c52 0 92 -11 123 -36s49 -60 49 -98c0 -68 -41 -121 -122 -161
zM193 510v-1c0 -48 33 -80 86 -115c48 28 79 62 79 114c0 26 -7 48 -24 65c-16 17 -38 22 -58 22c-23 0 -44 -8 -58 -23c-18 -17 -25 -38 -25 -62zM290 60h1c58 0 109 26 144 59c-63 72 -146 152 -211 196c-38 -23 -78 -65 -78 -128c0 -41 17 -73 44 -96
c25 -20 60 -31 100 -31z" />
    <glyph glyph-name="quoteright" unicode="&#x2019;" horiz-adv-x="234" 
d="M108 699h1c40 0 78 -42 78 -92c0 -77 -55 -157 -127 -191c-12 13 -24 28 -34 43c54 36 69 69 69 101c0 31 -29 45 -52 52c-6 51 23 87 65 87z" />
    <glyph glyph-name="parenleft" unicode="(" horiz-adv-x="361" 
d="M75 273v1c0 205 119 368 240 443c11 -13 22 -27 31 -42c-88 -72 -167 -212 -167 -394c0 -205 84 -321 166 -404c-11 -12 -25 -26 -39 -37c-107 84 -231 206 -231 433z" />
    <glyph glyph-name="parenright" unicode=")" horiz-adv-x="361" 
d="M285 288v-1c0 -223 -123 -363 -236 -447c-12 12 -25 27 -36 40c84 77 168 200 168 401c0 188 -75 317 -164 397c11 13 23 26 34 37c118 -75 234 -224 234 -427z" />
    <glyph glyph-name="asterisk" unicode="*" horiz-adv-x="378" 
d="M212 489c1 -43 3 -87 4 -131c-17 -1 -37 -1 -55 0c2 44 4 88 6 131c-35 -25 -71 -51 -106 -77c-10 14 -21 31 -30 46c40 24 79 48 117 71c-39 24 -78 47 -117 71c9 15 20 32 30 45c35 -25 71 -50 106 -76l-6 129c9 0 19 1 28 1c10 0 19 -1 28 -1l-6 -129
c36 26 72 52 107 77c10 -14 21 -30 29 -45c-38 -24 -77 -48 -116 -72c39 -24 78 -47 116 -72c-8 -15 -20 -31 -31 -45c-34 26 -69 52 -104 77z" />
    <glyph glyph-name="plus" unicode="+" horiz-adv-x="541" 
d="M476 202h-169c0 -69 -1 -138 -1 -193c-22 -2 -48 -3 -71 -3v196h-172c0 22 1 46 2 68c47 0 108 0 170 1v185c24 1 52 3 75 3c-1 -53 -1 -118 -2 -187c61 1 122 1 171 2c1 -22 -1 -50 -3 -72z" />
    <glyph glyph-name="comma" unicode="," horiz-adv-x="267" 
d="M121 124h1c43 0 85 -46 85 -97c0 -81 -55 -154 -132 -196c-13 14 -25 29 -36 43c55 37 74 73 74 106c0 32 -32 47 -56 54c-6 52 26 90 64 90z" />
    <glyph glyph-name="hyphen" unicode="-" horiz-adv-x="340" 
d="M152 207h-1h-117c1 23 1 47 2 68c41 0 81 1 121 1c51 1 102 1 149 2c0 -23 -1 -49 -3 -71h-151z" />
    <glyph glyph-name="period" unicode="." horiz-adv-x="267" 
d="M136 125h1c44 0 65 -35 65 -67c0 -38 -27 -68 -68 -68c-37 0 -68 27 -68 67c0 33 25 68 70 68z" />
    <glyph glyph-name="slash" unicode="/" horiz-adv-x="398" 
d="M72 -59c-21 5 -43 12 -66 20c58 133 112 261 165 386c47 109 102 243 147 347c24 -5 49 -12 74 -21c-43 -97 -108 -248 -153 -350c-49 -114 -119 -274 -167 -382z" />
    <glyph glyph-name="zero" unicode="0" horiz-adv-x="541" 
d="M498 329v-1c0 -136 -37 -228 -94 -285c-37 -37 -85 -53 -143 -53c-55 0 -99 18 -132 49c-51 48 -87 124 -87 260c0 148 39 243 96 299c40 39 89 57 146 57c60 0 103 -19 137 -56c40 -42 77 -130 77 -270zM274 595h-1c-28 0 -47 -12 -64 -34c-26 -35 -46 -137 -46 -255
c0 -100 15 -183 36 -216c19 -28 41 -41 71 -41c26 0 47 10 64 33c29 37 44 117 44 228c0 125 -16 214 -36 244c-19 28 -38 41 -68 41z" />
    <glyph glyph-name="one" unicode="1" horiz-adv-x="541" 
d="M341 65l148 -3c1 -20 0 -42 -1 -61h-207c-65 0 -134 -1 -211 -1c-1 20 0 42 1 62l153 3c3 0 5 3 5 5v457c-51 -11 -100 -22 -165 -36c-4 20 -9 40 -12 60c113 37 281 107 289 107c2 0 3 -1 3 -5c0 -178 -2 -398 -3 -588z" />
    <glyph glyph-name="two" unicode="2" horiz-adv-x="541" 
d="M480 469v-1c0 -131 -125 -244 -189 -300c-38 -34 -69 -59 -100 -84v-4c62 0 221 4 298 6l3 -1c0 -28 -2 -60 -5 -86c-42 0 -217 1 -292 1h-136c-7 19 -15 41 -20 61c72 56 115 92 164 140c73 69 155 157 155 258c0 40 -10 70 -30 93c-18 21 -51 33 -83 33
c-36 0 -67 -11 -85 -25c-3 -3 -4 -5 -5 -11l-22 -98c-24 2 -51 5 -74 8c3 52 7 107 11 158c41 20 114 38 184 38c76 0 127 -16 164 -47c38 -32 62 -83 62 -139z" />
    <glyph glyph-name="three" unicode="3" horiz-adv-x="541" 
d="M154 558l-18 -93c-24 2 -50 4 -74 8c3 49 6 99 9 147c43 19 110 35 185 35c64 0 115 -8 156 -38c32 -23 59 -65 59 -109c0 -80 -60 -136 -136 -157v-7c103 -16 153 -86 153 -155c0 -70 -37 -115 -82 -149c-42 -32 -118 -50 -209 -50c-40 0 -95 4 -133 14
c-8 50 -15 103 -21 153c23 5 50 10 75 14l24 -93c2 -6 5 -8 8 -10c18 -8 43 -12 66 -12c46 0 85 13 108 32c25 21 40 52 40 90c0 76 -67 120 -154 120h-64c-1 22 -2 46 -2 68c150 -1 209 55 209 127c0 24 -7 49 -26 68c-23 23 -54 28 -89 28c-29 0 -58 -7 -78 -21
c-3 -2 -5 -5 -6 -10z" />
    <glyph glyph-name="four" unicode="4" horiz-adv-x="541" 
d="M412 61l70 -2c0 -19 0 -39 -1 -58h-131c-48 0 -99 -1 -147 -1c0 19 1 39 2 58l97 3c2 0 4 3 4 5v101c-30 -1 -235 -1 -258 -1c-12 24 -23 52 -31 78c38 56 84 121 136 192c68 93 120 163 160 213c34 1 70 -1 102 -3c0 -124 -2 -272 -2 -405c38 0 82 0 105 1
c0 -22 -1 -49 -3 -72h-102c-1 -35 -1 -73 -1 -109zM307 528h-5c-33 -48 -57 -82 -99 -144c-33 -48 -59 -89 -89 -135c-2 -4 -1 -7 2 -7c47 -1 168 -2 190 -2z" />
    <glyph glyph-name="five" unicode="5" horiz-adv-x="541" 
d="M483 225v-1c0 -81 -39 -144 -87 -179c-50 -35 -117 -55 -202 -55c-46 0 -90 3 -124 11c-8 50 -15 102 -22 151c23 6 49 11 73 14l25 -90c2 -6 5 -9 8 -10c17 -9 36 -11 56 -11c46 0 85 12 113 36c27 23 43 59 43 103c0 90 -64 141 -178 141c-38 0 -81 -4 -99 -6l-12 12
c9 84 24 209 38 303h174c58 0 119 0 182 1c0 -27 -3 -60 -6 -88c-101 1 -199 1 -276 2c-8 -45 -16 -96 -24 -143c21 3 46 4 79 4c160 0 239 -93 239 -195z" />
    <glyph glyph-name="six" unicode="6" horiz-adv-x="541" 
d="M163 347h5c36 30 93 55 147 55c60 0 101 -22 124 -45c33 -31 60 -88 60 -141c0 -72 -25 -132 -80 -180c-40 -34 -97 -46 -146 -46c-56 0 -108 18 -142 49c-44 41 -85 108 -85 231c0 151 47 241 88 292c53 64 126 93 213 93c37 0 66 -3 95 -13c7 -46 12 -93 17 -141
c-22 -4 -47 -9 -72 -13l-20 81c-1 5 -3 9 -5 11c-10 5 -25 9 -45 9c-44 0 -81 -25 -103 -60c-33 -54 -47 -124 -51 -182zM283 48h1c24 0 51 11 69 33c25 30 31 72 31 110c0 49 -18 91 -35 109c-16 19 -41 29 -68 29c-36 0 -89 -22 -114 -64c-2 -90 17 -146 37 -174
c14 -22 40 -43 79 -43z" />
    <glyph glyph-name="seven" unicode="7" horiz-adv-x="541" 
d="M408 549l-2 5c-154 1 -213 2 -242 -2c-13 -1 -20 -10 -24 -21l-23 -77c-23 4 -49 8 -71 13c8 59 17 119 27 178c11 0 56 -1 90 -1h328c10 -24 19 -55 25 -80c-107 -172 -184 -338 -214 -442c-10 -34 -12 -91 -12 -120c-26 -4 -92 -5 -115 -5c-1 57 4 93 18 130
c36 95 115 241 215 422z" />
    <glyph glyph-name="eight" unicode="8" horiz-adv-x="541" 
d="M371 354v-5c85 -36 132 -97 132 -166c0 -66 -29 -113 -79 -149c-43 -30 -100 -44 -166 -44s-118 15 -153 39c-38 26 -68 65 -68 126c0 76 56 137 132 175v5c-59 31 -101 78 -101 150c0 56 35 102 68 126c39 27 93 44 151 44c59 0 107 -14 139 -41c26 -22 51 -60 51 -105
c0 -75 -52 -126 -106 -155zM175 499v-1c0 -55 35 -85 128 -118c49 30 72 67 72 118c0 25 -8 51 -23 68c-17 19 -43 29 -72 29c-30 0 -53 -6 -74 -24c-19 -17 -31 -43 -31 -72zM391 160v1c0 66 -46 102 -155 140c-50 -29 -85 -79 -85 -135c0 -37 11 -63 31 -82
c20 -21 54 -34 87 -34c36 0 64 9 85 27c23 18 37 46 37 83z" />
    <glyph glyph-name="nine" unicode="9" horiz-adv-x="541" 
d="M378 297h-5c-38 -28 -85 -50 -142 -50c-53 0 -100 21 -128 48c-33 32 -59 81 -59 139c0 70 30 130 80 172c38 31 91 49 148 49c58 0 108 -20 141 -52c44 -44 81 -122 81 -239c0 -137 -39 -237 -88 -291c-51 -58 -119 -83 -206 -83c-31 0 -70 2 -105 10
c-8 45 -16 92 -24 137c22 7 47 12 70 16l26 -82c1 -4 5 -9 8 -10c10 -6 34 -10 52 -10c45 0 85 26 104 57c35 54 45 129 47 189zM262 597h-1c-26 0 -51 -9 -69 -31c-23 -27 -33 -72 -33 -116c0 -49 11 -81 30 -104c19 -22 48 -31 74 -31c39 0 84 21 111 56
c2 82 -16 154 -35 182c-15 24 -39 44 -77 44z" />
    <glyph glyph-name="colon" unicode=":" horiz-adv-x="267" 
d="M136 430h1c45 0 65 -35 65 -66c0 -38 -27 -67 -67 -67c-37 0 -68 27 -68 65c0 33 25 68 69 68zM136 124h1c45 0 65 -35 65 -66c0 -38 -27 -67 -67 -67c-37 0 -68 27 -68 66c0 32 25 67 69 67z" />
    <glyph glyph-name="semicolon" unicode=";" horiz-adv-x="267" 
d="M136 430h1c44 0 65 -35 65 -66c0 -38 -27 -67 -67 -67c-37 0 -68 27 -68 65c0 33 25 68 69 68zM121 124h1c43 0 85 -46 85 -97c0 -81 -55 -154 -132 -196c-13 14 -25 29 -36 43c55 37 74 73 74 106c0 32 -32 48 -56 54c-6 52 26 90 64 90z" />
    <glyph glyph-name="less" unicode="&#x3c;" horiz-adv-x="541" 
d="M193 241c73 -62 151 -126 233 -193c-11 -17 -26 -37 -40 -51c-97 74 -186 141 -281 213c-2 19 -2 41 -2 59c94 68 192 139 285 205c12 -14 27 -35 37 -53c-85 -65 -155 -119 -232 -180z" />
    <glyph glyph-name="equal" unicode="=" horiz-adv-x="541" 
d="M62 286c0 22 1 47 2 69c115 0 291 2 416 3c0 -22 -1 -50 -3 -72h-415zM62 117c-1 23 1 51 2 72h415c0 -21 -1 -46 -2 -69c-118 0 -293 -2 -415 -3z" />
    <glyph glyph-name="greater" unicode="&#x3e;" horiz-adv-x="541" 
d="M329 238c-74 61 -148 120 -231 186c11 18 25 38 38 52c95 -69 187 -137 282 -207c1 -18 1 -40 1 -60c-94 -69 -188 -139 -284 -210c-13 14 -28 34 -40 51c84 67 159 127 234 188z" />
    <glyph glyph-name="question" unicode="?" horiz-adv-x="453" 
d="M415 505v-1c0 -88 -60 -148 -162 -212c-15 -10 -23 -18 -23 -28c0 -17 6 -44 13 -72c-16 -7 -42 -14 -74 -18c-16 22 -42 83 -43 120c110 77 162 121 162 201c0 57 -36 93 -89 93c-22 0 -44 -5 -60 -17c-4 -3 -6 -6 -7 -12l-20 -84c-26 2 -53 5 -76 9c3 46 7 96 11 143
c36 18 107 33 175 33c125 0 193 -69 193 -155zM204 114h1c39 0 64 -30 64 -64c0 -33 -27 -60 -66 -60c-36 0 -66 25 -66 59s27 65 67 65z" />
    <glyph glyph-name="at" unicode="@" horiz-adv-x="654" 
d="M404 353h4l16 29c22 -4 43 -9 65 -15c-15 -58 -39 -162 -53 -220c-1 -4 3 -6 6 -6c26 0 53 15 69 29c20 20 44 56 44 114c0 99 -63 193 -206 193c-132 0 -249 -109 -249 -280c0 -147 105 -202 202 -202c52 0 95 14 128 35c10 -12 17 -26 20 -35c-38 -25 -91 -42 -166 -42
c-121 0 -242 76 -242 239c0 195 146 326 321 326c147 0 248 -93 248 -223c0 -74 -34 -129 -69 -157c-34 -27 -72 -45 -153 -45c-9 0 -27 10 -33 19c1 12 4 30 9 48l-6 3c-33 -33 -87 -70 -121 -70c-15 0 -56 21 -68 43c-1 6 -2 13 -2 22c0 25 6 58 15 88
c19 55 71 135 145 135c28 0 56 -10 76 -28zM255 176v-1c0 -13 8 -20 19 -20c26 0 85 51 97 81c5 12 14 48 20 71c-11 14 -30 23 -51 23c-30 0 -54 -35 -67 -70c-12 -30 -18 -61 -18 -84z" />
    <glyph glyph-name="A" unicode="A" horiz-adv-x="619" 
d="M-11 62l51 3c3 0 5 2 6 5c66 171 157 414 222 586c14 1 46 2 90 2c63 -175 146 -420 207 -593l57 -2c0 -21 0 -42 -1 -63h-105h-144c0 21 0 42 1 62l66 3c2 1 4 3 2 5c-11 33 -26 79 -38 110c-1 3 -3 4 -6 4l-217 -1c-12 -37 -27 -82 -38 -118l75 -2c0 -21 0 -42 -1 -63
h-136h-92c0 21 0 42 1 62zM296 514h-5c-29 -83 -62 -181 -90 -261c-1 -4 -1 -6 2 -6h181c-27 80 -60 181 -88 267z" />
    <glyph glyph-name="B" unicode="B" horiz-adv-x="601" 
d="M48 61l63 3c3 0 5 1 5 5v516l-68 2c0 21 1 42 1 62c47 1 136 2 188 2c91 0 155 -3 206 -27c46 -21 82 -70 82 -122c0 -71 -53 -124 -118 -148v-7c87 -12 156 -77 156 -160c0 -109 -100 -188 -259 -188c-28 0 -111 1 -130 1h-127c0 20 1 42 1 61zM232 588l-1 -221
c4 -2 20 -2 38 -2c78 0 141 45 141 115c0 62 -46 111 -130 111c-26 0 -40 -1 -48 -3zM231 303l-2 -211c0 -27 21 -33 68 -33c73 0 144 36 144 121c0 59 -48 125 -165 125c-24 0 -40 0 -45 -2z" />
    <glyph glyph-name="C" unicode="C" horiz-adv-x="596" 
d="M46 287v1c0 139 62 236 135 295c69 56 156 77 235 77c58 0 105 -8 129 -18c5 -61 9 -123 12 -184c-24 -4 -51 -7 -77 -10l-19 106c-2 7 -4 12 -8 14c-17 11 -39 16 -67 16c-46 0 -94 -16 -132 -54c-50 -52 -80 -125 -80 -215c0 -86 16 -142 60 -188
c34 -36 91 -57 146 -57c54 0 127 19 168 36c6 -21 11 -48 14 -69c-70 -28 -149 -47 -205 -47c-72 0 -145 18 -201 60c-64 48 -110 133 -110 237z" />
    <glyph glyph-name="D" unicode="D" horiz-adv-x="699" 
d="M49 61l62 3c2 0 4 2 4 4v516l-67 2c0 22 0 43 1 63c62 1 142 2 222 2c115 0 183 -16 239 -49c83 -47 143 -144 143 -254c0 -127 -52 -231 -134 -289c-59 -42 -140 -60 -228 -60c-36 0 -89 1 -118 1c-39 0 -86 -1 -125 -1c0 20 0 42 1 62zM234 586l-2 -496
c0 -22 9 -30 55 -30c68 0 125 18 167 55c46 43 73 123 73 199c0 108 -25 169 -84 223c-40 36 -96 53 -161 53c-21 0 -39 -1 -48 -4z" />
    <glyph glyph-name="E" unicode="E" horiz-adv-x="566" 
d="M51 62l61 3c3 0 4 2 4 4v516l-67 2c0 21 1 43 2 63h122h227h91c4 -53 7 -107 9 -162c-21 -2 -47 -6 -71 -8l-16 83c-2 9 -7 15 -22 17c-21 2 -72 5 -136 5h-21l-1 -222c46 1 85 1 128 2c13 0 17 7 19 19l5 44c23 0 48 0 69 -1c-1 -31 -1 -65 -2 -99v-95
c-22 -1 -46 -2 -69 -2l-4 47c-1 15 -7 20 -21 20c-38 1 -79 2 -125 1l-1 -213c0 -18 4 -21 54 -21c64 0 108 3 123 7c10 2 15 8 19 19l31 87c24 -4 49 -9 71 -14c-11 -54 -23 -110 -36 -165c-48 1 -181 1 -318 1h-126c0 20 0 42 1 62z" />
    <glyph glyph-name="F" unicode="F" horiz-adv-x="541" 
d="M116 584l-67 3c0 20 1 42 2 62h121c30 0 203 1 227 1c41 0 69 0 92 1c5 -57 9 -114 12 -171c-22 -3 -48 -6 -72 -9l-19 91c-2 10 -6 16 -21 17c-21 3 -74 6 -142 6c-6 0 -11 -1 -15 -1l-1 -241c45 1 88 1 130 2c18 0 22 6 24 19l6 46c23 1 47 0 69 -1
c-1 -33 -2 -69 -2 -103c-1 -33 -1 -68 -1 -96c-22 -1 -45 -2 -69 -2l-4 50c-1 14 -7 19 -25 19c-38 1 -81 2 -128 3l-1 -214l113 -2c0 -21 0 -43 -2 -64c-46 0 -111 1 -166 1c-44 0 -88 -1 -127 -1c0 20 1 43 1 62l61 3c2 1 4 2 4 4v515z" />
    <glyph glyph-name="G" unicode="G" horiz-adv-x="671" 
d="M506 447l-16 103c-2 5 -3 11 -8 15c-20 16 -50 24 -85 24c-44 0 -96 -14 -138 -54c-51 -48 -82 -125 -82 -217c0 -86 20 -151 64 -197c50 -55 111 -67 161 -67c37 0 63 10 63 18v156l-95 2c0 21 1 45 1 65h151h112c0 -20 0 -44 -1 -65l-47 -2c-3 0 -4 -1 -4 -4l-3 -200
c-34 -20 -100 -34 -184 -34c-103 0 -183 24 -238 68c-67 56 -110 135 -110 246c0 133 64 231 147 290c69 50 162 66 231 66c64 0 118 -10 150 -26c3 -59 7 -120 9 -179c-25 -4 -52 -6 -78 -8z" />
    <glyph glyph-name="H" unicode="H" horiz-adv-x="742" 
d="M52 63l59 3c3 0 4 2 4 4v514l-64 3c0 20 0 43 1 63c37 0 86 -1 127 -1c43 0 93 1 131 1c0 -20 0 -43 -1 -63l-72 -3c-2 0 -2 -1 -2 -4l-1 -207c0 -2 1 -3 3 -3l273 -1v215l-75 3c0 20 0 43 1 63c39 0 90 -1 136 -1c40 0 85 1 119 1c0 -20 0 -43 -1 -63l-58 -3
c-2 0 -2 -1 -2 -4l-3 -514l66 -3c0 -20 0 -42 -1 -63c-36 0 -84 1 -124 1c-45 0 -96 -1 -135 -1c0 20 0 43 1 63l72 3c3 0 4 1 4 4v228c0 2 -1 4 -4 4l-273 -2l-1 -234l78 -3c0 -20 0 -42 -1 -63c-37 0 -89 1 -134 1c-39 0 -87 -1 -124 -1c0 21 0 42 1 63z" />
    <glyph glyph-name="I" unicode="I" horiz-adv-x="348" 
d="M116 584l-71 3c0 20 0 43 1 63c38 0 92 -1 135 -1s92 1 130 1c0 -20 0 -43 -1 -63l-72 -3c-2 0 -2 -1 -2 -4l-3 -513l77 -3c1 -21 0 -43 -1 -64c-37 0 -88 1 -132 1c-42 0 -91 -1 -132 -1c0 21 0 43 1 63l67 3c2 0 3 2 3 4v514z" />
    <glyph glyph-name="J" unicode="J" horiz-adv-x="514" 
d="M483 589l-63 -2c-3 0 -3 -2 -3 -4c0 -110 1 -224 -1 -335c-1 -85 -12 -140 -54 -190c-38 -46 -101 -80 -199 -80c-42 0 -81 3 -120 12c-7 57 -14 115 -21 170c22 6 48 11 72 15l25 -102c1 -5 4 -8 8 -11c16 -10 43 -13 59 -13c36 0 72 15 90 43c24 36 24 82 24 143
c0 112 -1 234 -2 351l-117 3c0 20 0 42 1 61h180h122c0 -19 0 -41 -1 -61z" />
    <glyph glyph-name="K" unicode="K" horiz-adv-x="650" 
d="M115 584l-64 3c0 20 0 43 1 63c37 0 86 -1 128 -1c40 0 86 1 120 1c1 -20 0 -43 -1 -63l-61 -3c-3 0 -3 -2 -3 -5l-2 -219c15 0 38 2 60 6c39 39 125 147 174 212c3 3 1 5 -2 5l-59 3c0 21 0 43 1 63h138c30 0 62 1 87 1c0 -20 0 -43 -1 -63l-46 -3
c-79 -90 -146 -164 -203 -225v-6c37 -27 74 -73 107 -134c23 -40 45 -81 74 -125c10 -17 20 -25 34 -26l62 -4c0 -19 0 -43 -1 -62c-26 -1 -65 -2 -92 -2c-22 -1 -64 -1 -83 -1c-22 29 -60 102 -93 162c-33 63 -78 139 -106 139c-16 0 -39 -1 -51 -2l-1 -231l70 -3
c1 -21 0 -43 -1 -64c-34 0 -83 1 -126 1c-40 0 -88 -1 -125 -1c0 21 0 43 1 63l60 3c2 1 4 2 4 4v514z" />
    <glyph glyph-name="L" unicode="L" horiz-adv-x="537" 
d="M116 583l-66 3c0 20 1 43 2 63h127h137c0 -20 -1 -43 -2 -64l-77 -2c-2 0 -3 -1 -3 -4l-2 -495c0 -18 1 -21 44 -21c80 0 111 3 126 6c8 3 14 9 17 20l36 104c25 -4 50 -9 72 -15c-11 -56 -26 -121 -40 -179c-48 0 -175 1 -311 1c-44 0 -89 -1 -127 -1c0 21 1 43 2 63
l61 3c2 0 4 2 4 4v514z" />
    <glyph glyph-name="M" unicode="M" horiz-adv-x="871" 
d="M113 582l-64 2c0 21 1 45 2 66h207c48 -120 117 -310 180 -475h7c60 158 127 338 181 475h194c0 -20 0 -44 -1 -65l-58 -3c-2 0 -3 -2 -3 -5c0 -156 1 -347 2 -512l63 -2c1 -20 0 -43 -1 -63h-113h-128c0 20 1 43 1 62l68 3c3 0 4 2 4 4c-1 132 -2 290 -3 433h-7
c-77 -208 -139 -353 -191 -468c-11 0 -37 -1 -62 -1c-57 128 -119 282 -189 477h-8c-2 -146 -4 -302 -6 -444l81 -3c0 -20 -1 -43 -1 -63h-126h-97c-1 20 0 43 0 62l60 3c3 1 4 2 4 4c1 157 3 358 4 513z" />
    <glyph glyph-name="N" unicode="N" horiz-adv-x="716" 
d="M44 63l58 3c2 0 4 1 4 4l-1 515l-67 2c0 20 0 43 1 62h165c98 -143 229 -341 328 -495l6 1c-1 143 -2 287 -4 430l-85 1c0 21 1 43 1 63h127c34 0 72 1 100 1c1 -20 0 -42 0 -62l-54 -3c-2 0 -3 -1 -3 -5l-4 -574c-16 -7 -50 -14 -82 -14c-88 116 -216 292 -339 478h-7
c0 -136 -1 -269 -1 -404l89 -2c0 -20 -1 -43 -1 -64c-41 0 -91 1 -137 1c-33 0 -67 -1 -95 -1c0 20 0 43 1 63z" />
    <glyph glyph-name="O" unicode="O" horiz-adv-x="725" 
d="M348 -10h-1c-88 0 -162 33 -211 83c-58 59 -90 140 -90 246c0 130 65 234 143 286c61 39 122 55 194 55c63 0 120 -16 171 -50c74 -50 124 -151 124 -267c0 -101 -34 -203 -104 -270c-56 -54 -128 -83 -226 -83zM365 55h1c47 0 89 15 121 53c37 45 62 114 62 213
c0 88 -20 164 -58 214c-31 41 -72 60 -122 60c-49 0 -89 -16 -120 -48c-40 -40 -73 -115 -73 -219c0 -100 18 -168 63 -218c35 -39 80 -55 126 -55z" />
    <glyph glyph-name="P" unicode="P" horiz-adv-x="573" 
d="M116 584l-63 2c0 21 1 43 1 63c57 1 129 2 197 2c62 0 103 -1 156 -17c82 -25 131 -102 131 -178c0 -85 -54 -158 -122 -188c-40 -20 -96 -28 -141 -28c-15 0 -36 0 -44 1l-1 -176l103 -2c0 -20 0 -43 -1 -63h-162h-116c0 20 0 42 1 62l57 3c2 0 4 2 4 4v515zM233 587
l-2 -274c3 -8 24 -9 46 -9c33 0 67 9 90 26c37 25 53 69 53 116c0 89 -58 144 -144 144c-23 0 -37 -1 -43 -3z" />
    <glyph glyph-name="Q" unicode="Q" horiz-adv-x="725" 
d="M46 317v1c0 131 64 235 146 289c57 37 124 53 191 53c66 0 117 -14 164 -45c83 -53 132 -157 132 -274c0 -116 -44 -211 -105 -269c-34 -32 -72 -53 -101 -63v-4c48 -31 85 -50 131 -69c34 -14 60 -14 81 -14c23 0 59 5 80 11c4 -21 7 -46 8 -68
c-46 -16 -114 -31 -143 -31c-15 0 -38 1 -72 19c-58 30 -116 73 -191 137h-18c-88 0 -164 33 -216 85c-59 60 -87 147 -87 242zM176 324v-1c0 -102 20 -166 65 -215c35 -37 77 -53 125 -53c49 0 91 16 121 53c36 43 63 112 63 207c0 91 -19 173 -62 224
c-32 39 -68 56 -116 56c-52 0 -93 -18 -124 -49c-39 -39 -72 -120 -72 -222z" />
    <glyph glyph-name="R" unicode="R" horiz-adv-x="615" 
d="M116 584l-63 2c1 21 1 42 2 63c61 1 137 2 208 2c58 0 89 -1 142 -15c75 -18 131 -87 131 -155c0 -86 -57 -148 -131 -177v-5c46 -21 70 -78 119 -174c24 -47 32 -57 44 -58l56 -4c0 -20 -1 -41 -1 -62c-18 0 -49 0 -70 -1c-19 0 -74 -1 -90 -1c-31 46 -86 173 -113 222
c-19 33 -39 45 -77 45c-28 0 -39 -1 -43 -2l-1 -199l72 -3c0 -20 -1 -41 -1 -62h-130h-117c1 21 1 42 1 62l58 3c2 0 4 1 4 3v516zM232 586l-2 -257c5 -2 19 -2 41 -2c102 0 145 65 145 128c0 85 -58 135 -137 135c-26 0 -41 -1 -47 -4z" />
    <glyph glyph-name="S" unicode="S" horiz-adv-x="511" 
d="M115 194l22 -102c1 -5 3 -9 7 -11c19 -13 51 -21 82 -21c37 0 75 11 95 31c19 19 28 41 28 70c0 70 -37 84 -126 122c-93 39 -163 91 -163 183c0 58 29 108 67 140c40 34 103 54 183 54c50 0 103 -9 127 -21c6 -53 9 -109 13 -162c-23 -3 -50 -7 -75 -9l-20 93
c-2 5 -3 8 -6 10c-14 12 -38 18 -64 18c-30 0 -58 -8 -79 -25c-17 -14 -33 -39 -33 -72c0 -61 28 -75 127 -115c104 -42 162 -91 162 -183c0 -59 -23 -112 -65 -148c-44 -37 -105 -56 -193 -56c-46 0 -112 8 -150 22c-6 56 -11 114 -16 170c24 5 52 9 77 12z" />
    <glyph glyph-name="T" unicode="T" horiz-adv-x="588" 
d="M157 63l75 3c3 0 4 2 4 4v513c-66 0 -85 -2 -104 -4c-17 -2 -21 -9 -23 -19l-17 -97c-25 2 -53 4 -77 7c4 60 7 121 11 180c20 0 55 -1 93 -1h182c30 0 151 0 176 1h90c4 -59 7 -119 9 -179c-24 -3 -52 -5 -78 -8l-15 97c-2 11 -6 17 -23 18c-20 3 -36 5 -105 5l-2 -517
l83 -3c0 -20 0 -42 -1 -63c-38 0 -92 1 -138 1c-44 0 -96 -1 -141 -1c0 21 0 42 1 63z" />
    <glyph glyph-name="U" unicode="U" horiz-adv-x="672" 
d="M214 585l-2 -318c-1 -90 14 -127 39 -159c19 -23 49 -44 103 -44c52 0 78 20 99 42c24 25 42 82 42 163c0 90 0 218 -1 312c0 2 -1 3 -4 3l-78 3c0 20 1 42 1 62h124c38 0 77 1 110 1c0 -20 0 -42 -1 -63l-57 -3l-2 -308c-1 -114 -35 -184 -72 -222
c-33 -34 -84 -64 -171 -64c-78 0 -138 17 -183 59c-57 54 -68 129 -68 212v318c0 4 -1 6 -5 6l-54 2c0 21 0 43 1 63c35 0 82 -1 121 -1c48 0 97 1 139 1c0 -20 0 -43 -1 -63z" />
    <glyph glyph-name="V" unicode="V" horiz-adv-x="642" 
d="M645 587l-54 -3c-30 -79 -67 -178 -101 -263c-39 -100 -87 -226 -131 -329c-9 -2 -47 -2 -92 -2c-41 108 -87 234 -123 340c-27 81 -57 171 -83 251c0 2 -2 3 -5 4l-54 2c0 21 1 43 1 63c33 0 78 -1 116 -1c56 0 116 1 165 1c0 -20 -1 -43 -1 -63l-86 -3
c11 -42 45 -163 58 -206c25 -80 50 -167 78 -254h7c27 76 54 151 76 216c20 62 62 187 74 239c1 2 -1 5 -3 5l-75 2c0 20 0 44 1 63h138c31 0 66 1 95 1c0 -20 0 -42 -1 -63z" />
    <glyph glyph-name="W" unicode="W" horiz-adv-x="889" 
d="M892 587l-52 -3c-25 -95 -48 -178 -70 -262c-27 -104 -62 -224 -95 -331c-13 -1 -50 -1 -94 -1c-44 136 -88 279 -131 434h-5c-50 -152 -105 -306 -151 -433c-15 -1 -56 -1 -93 -1c-29 117 -55 228 -81 341c-18 81 -36 166 -54 249c0 3 -2 4 -5 4l-54 3c0 20 0 42 1 62
h111h162c0 -20 -1 -42 -1 -63l-85 -2c6 -49 18 -131 31 -202c14 -82 27 -160 43 -251h7c38 117 112 369 148 485c12 2 66 2 87 2c35 -127 93 -347 131 -489h8c18 80 34 161 48 225c12 60 33 163 42 224c1 4 0 5 -3 5l-78 3c0 20 0 43 1 62c43 0 94 1 140 1c31 0 65 0 93 1
c0 -20 0 -43 -1 -63z" />
    <glyph glyph-name="X" unicode="X" horiz-adv-x="619" 
d="M-8 63l53 3c3 0 6 1 8 4c67 84 129 166 194 249v7c-58 82 -120 174 -175 255c-1 2 -3 3 -6 3l-57 3c0 20 0 43 1 62h118c55 0 111 1 157 1c0 -20 0 -43 -1 -63l-74 -3c31 -53 89 -145 116 -185h6c31 41 93 139 115 180c1 2 0 5 -3 5l-67 2c0 20 0 44 1 63h137
c31 0 66 1 93 1c0 -20 0 -43 -1 -63l-52 -3c-58 -78 -125 -166 -183 -239v-6c61 -83 136 -192 193 -273l57 -3c0 -20 0 -42 -1 -63c-33 0 -77 1 -115 1c-54 0 -111 -1 -158 -1c0 21 0 43 1 63l68 3c4 1 6 3 4 6c-28 44 -94 148 -126 191h-6c-35 -47 -106 -154 -133 -196
l73 -4c0 -19 0 -42 -1 -62h-140c-31 0 -67 -1 -97 -1c0 20 0 43 1 63z" />
    <glyph glyph-name="Y" unicode="Y" horiz-adv-x="588" 
d="M157 63l72 3c4 0 5 2 5 5v176c-52 92 -129 235 -182 333c-1 2 -3 4 -5 4l-47 3c0 20 0 43 1 62h110c54 0 111 1 156 1c0 -20 0 -43 -1 -63l-77 -4c33 -73 88 -183 128 -261h5c36 66 101 192 129 257c1 2 -1 4 -3 4l-70 3c0 20 0 43 1 63h132c29 0 62 1 87 1
c0 -20 0 -43 -1 -63l-48 -3c-56 -94 -136 -236 -197 -335l-1 -182l84 -3c0 -21 0 -43 -1 -64c-39 0 -93 1 -140 1c-43 0 -94 -1 -138 -1c0 21 0 43 1 63z" />
    <glyph glyph-name="Z" unicode="Z" horiz-adv-x="592" 
d="M168 76l1 -4c130 0 214 1 254 10c14 4 23 12 29 28l32 96c26 -4 55 -9 78 -14c-14 -64 -29 -130 -45 -193c-18 0 -159 1 -298 1h-168c-9 18 -17 40 -24 59c124 161 271 363 382 514l-2 5h-123c-62 0 -83 -1 -100 -4c-9 -3 -17 -12 -21 -24l-33 -103c-25 4 -53 9 -77 14
c11 63 23 128 35 190c12 0 64 -1 97 -2h338c9 -24 18 -53 24 -79c-153 -207 -288 -382 -379 -494z" />
    <glyph glyph-name="bracketleft" unicode="[" 
d="M113 -145v847c69 1 142 3 210 4c1 -18 1 -38 -1 -56l-107 -4c-7 0 -7 -5 -7 -9l-3 -725l119 -4c0 -17 -1 -38 -2 -56c-68 1 -141 2 -209 3z" />
    <glyph glyph-name="backslash" unicode="\" horiz-adv-x="398" 
d="M323 -58c-46 107 -117 272 -165 386c-44 102 -107 248 -150 345c23 11 47 23 73 31c44 -105 101 -242 146 -352c53 -124 106 -249 162 -381c-21 -10 -42 -21 -66 -29z" />
    <glyph glyph-name="bracketright" unicode="]" 
d="M247 702l-3 -847c-68 -1 -140 -3 -208 -4c-1 18 -2 40 -2 57l118 4v725c0 4 0 9 -7 9l-107 4c-2 18 -2 38 -1 56c69 -1 142 -3 210 -4z" />
    <glyph glyph-name="asciicircum" unicode="^" horiz-adv-x="541" 
d="M247 633c16 1 38 1 54 1c59 -89 123 -187 191 -290c-16 -13 -38 -29 -54 -40c-60 84 -115 160 -166 230c-48 -68 -101 -144 -162 -229c-17 11 -38 25 -55 40c68 102 134 202 192 288z" />
    <glyph glyph-name="underscore" unicode="_" horiz-adv-x="500" 
d="M0 -73h500v-54h-500v54z" />
    <glyph glyph-name="quoteleft" unicode="&#x2018;" horiz-adv-x="234" 
d="M129 433h-1c-39 0 -78 42 -78 92c0 78 56 157 127 191c12 -12 24 -27 34 -42c-53 -36 -69 -70 -69 -101c0 -35 32 -45 53 -51c5 -53 -24 -89 -66 -89z" />
    <glyph glyph-name="a" unicode="a" horiz-adv-x="483" 
d="M297 35h-5c-68 -35 -110 -45 -146 -45c-51 0 -120 46 -120 106c0 56 63 141 207 141h61c3 82 -20 119 -74 119c-39 0 -86 -29 -123 -62c-14 16 -29 34 -42 52c55 49 119 92 205 92c76 0 143 -57 143 -157c0 -55 -2 -164 -2 -206c0 -9 2 -13 7 -12l61 2c0 -18 1 -40 0 -59
c-15 -5 -77 -16 -137 -16c-10 9 -21 25 -35 45zM140 108v-1c0 -27 27 -46 58 -46c28 0 64 13 93 33c2 2 2 4 2 7v79c-5 0 -21 1 -41 1c-79 0 -112 -34 -112 -73z" />
    <glyph glyph-name="b" unicode="b" horiz-adv-x="530" 
d="M180 391l5 -2c94 45 113 49 152 49c88 0 157 -94 157 -185c0 -50 -7 -91 -26 -135c-14 -34 -43 -72 -80 -97c-24 -17 -69 -31 -122 -31c-40 0 -81 12 -110 29l-28 -36c-18 2 -41 6 -65 11c2 26 6 77 6 119v499l-70 3c0 20 0 42 1 60c49 5 172 25 181 25c1 0 3 -1 3 -3
c0 -85 -2 -203 -4 -306zM374 213v1c0 50 -7 80 -21 104c-14 23 -38 39 -65 39c-32 0 -70 -13 -106 -39c-1 -68 -2 -149 -2 -218c0 -25 45 -47 84 -47c29 0 55 11 74 33c22 27 36 71 36 127z" />
    <glyph glyph-name="c" unicode="c" horiz-adv-x="419" 
d="M36 186v1c0 142 105 251 262 251c40 0 81 -10 100 -22c0 -22 -25 -74 -41 -83c-10 4 -55 27 -95 27c-32 0 -55 -10 -73 -34c-20 -26 -35 -64 -35 -119c0 -52 12 -84 34 -111c21 -25 54 -31 81 -31c39 0 88 16 120 28c5 -18 11 -40 14 -59c-59 -30 -128 -44 -170 -44
c-107 0 -197 72 -197 196z" />
    <glyph glyph-name="d" unicode="d" horiz-adv-x="541" 
d="M359 35h-6c-86 -42 -108 -45 -138 -45c-44 0 -87 15 -120 48c-37 37 -59 88 -59 153c0 70 25 135 71 185c35 39 88 62 144 62c36 0 69 -8 94 -16l5 3c0 63 -1 124 -2 187l-80 2c0 20 0 41 1 60c54 6 181 26 192 26c1 0 2 -1 2 -3c0 -171 -3 -428 -3 -617
c0 -10 2 -16 9 -16l61 3v-59c-15 -6 -87 -18 -138 -18c-13 9 -23 23 -33 45zM348 109v1v236c-23 12 -51 21 -82 21s-61 -13 -79 -39c-20 -29 -31 -66 -31 -124c0 -46 8 -78 27 -105c16 -22 42 -35 68 -35c33 0 62 11 92 30c4 3 5 7 5 15z" />
    <glyph glyph-name="e" unicode="e" horiz-adv-x="468" 
d="M36 193v1c0 135 91 244 229 244c57 0 99 -20 125 -52c31 -37 44 -87 44 -140c-3 -13 -33 -45 -43 -46c-44 -3 -164 -3 -238 -3c0 -46 11 -78 30 -99c27 -29 57 -33 92 -33c44 0 102 17 135 30c6 -19 12 -42 15 -61c-57 -27 -129 -44 -174 -44c-131 0 -215 76 -215 203z
M251 376h-1c-27 0 -47 -9 -63 -29c-13 -17 -31 -44 -32 -90c48 0 115 1 161 3c7 0 11 4 11 11c0 28 -9 58 -20 75c-13 18 -31 30 -56 30z" />
    <glyph glyph-name="f" unicode="f" horiz-adv-x="355" 
d="M207 63l94 -2c0 -20 0 -40 -1 -60h-150c-35 0 -79 -1 -113 -1c0 20 0 40 1 60l54 3c2 0 4 2 4 4c0 95 0 196 -1 290h-73c0 22 1 46 2 66c21 1 44 1 64 2c4 0 6 3 6 7c0 100 15 137 56 181c57 61 113 73 160 73c35 0 65 -7 83 -14c0 -26 -22 -74 -39 -86
c-8 3 -49 20 -76 20c-18 0 -39 -7 -49 -24c-16 -26 -21 -50 -20 -157c45 0 94 0 137 1c0 -21 -2 -48 -3 -70h-135c0 -81 -1 -203 -1 -293z" />
    <glyph glyph-name="g" unicode="g" horiz-adv-x="496" 
d="M138 116v5c-44 21 -99 66 -99 143c0 95 87 174 210 174c36 0 69 -6 80 -8c10 -2 16 -3 22 -2c45 2 110 4 139 6c2 -21 2 -46 1 -67h-89l-1 -4c18 -19 29 -51 29 -85c0 -35 -14 -80 -45 -113c-33 -34 -87 -61 -180 -57c-20 -16 -37 -32 -37 -44c0 -24 26 -27 117 -30
c88 -3 127 -8 159 -30s46 -40 46 -85c0 -59 -41 -112 -116 -141c-45 -18 -102 -28 -160 -28c-129 0 -206 42 -206 117c0 16 5 26 21 39c41 29 65 44 89 62v6c-33 11 -66 29 -66 78c0 9 3 12 86 64zM154 272v-1c0 -83 37 -109 81 -109c47 0 82 39 82 117c0 36 -6 59 -20 78
c-12 17 -31 26 -58 26c-51 0 -85 -40 -85 -111zM379 -104v1c0 37 -20 46 -95 51c-49 4 -83 6 -104 7c-33 -32 -56 -54 -56 -84c0 -44 57 -63 110 -63c35 0 75 6 102 21c27 16 43 38 43 67z" />
    <glyph glyph-name="h" unicode="h" horiz-adv-x="567" 
d="M194 383l5 -1c103 53 122 56 160 56c46 0 91 -37 114 -76c11 -19 14 -44 14 -74c0 -70 -1 -151 -2 -225l60 -2c0 -20 -1 -41 -1 -60h-111c-37 0 -79 -1 -113 -1c0 19 0 40 1 60l49 3c2 0 3 2 3 4v167c0 45 0 74 -12 94c-14 22 -35 27 -53 27c-34 0 -78 -20 -112 -44
c-1 -71 -2 -179 -2 -248l63 -2c0 -20 0 -41 -1 -60h-122c-35 0 -76 -1 -110 -1v60l54 3c2 0 4 2 4 4v547l-71 1c0 20 0 42 1 60c47 5 174 25 183 25c2 0 3 -1 3 -4c0 -89 -2 -207 -4 -313z" />
    <glyph glyph-name="i" unicode="i" horiz-adv-x="288" 
d="M144 652h1c46 0 66 -34 66 -64c0 -41 -31 -69 -70 -69c-36 0 -68 29 -68 67c0 34 27 66 71 66zM95 349l-71 3c-1 19 0 41 0 60c48 5 174 26 183 26c1 0 1 -1 1 -3c0 -109 -2 -268 -2 -372l64 -2c0 -20 0 -41 -1 -60h-122c-37 0 -81 -1 -118 -1c0 20 0 41 1 60l61 3
c3 0 4 2 4 4v282z" />
    <glyph glyph-name="j" unicode="j" horiz-adv-x="266" 
d="M131 654h1c46 0 66 -36 66 -66c0 -39 -28 -69 -70 -69c-35 0 -68 29 -68 68c0 32 27 67 71 67zM88 348l-79 1c0 20 1 42 2 61c44 7 181 28 189 28c2 0 2 -1 2 -3c0 -107 -1 -249 -1 -357c0 -77 -7 -118 -35 -173c-28 -59 -71 -118 -126 -148c-23 0 -71 36 -75 58
c37 18 75 41 94 74c20 36 32 83 31 181z" />
    <glyph glyph-name="k" unicode="k" horiz-adv-x="529" 
d="M82 613l-71 1c0 20 1 41 1 60c46 6 174 26 183 26c2 0 3 -1 3 -4c0 -122 -2 -281 -3 -433c15 0 42 1 59 3c30 27 60 56 92 93c2 2 0 4 -2 4l-43 2c0 20 0 43 1 62h116c28 1 57 1 84 1c0 -19 0 -42 -1 -61l-42 -3c-55 -50 -91 -82 -124 -111v-6c24 -19 51 -46 78 -99
c18 -33 31 -59 44 -75c5 -7 11 -9 17 -9l55 -2c0 -20 0 -41 -1 -61c-37 0 -139 -1 -161 -2c-16 26 -36 67 -56 113c-23 48 -48 86 -69 92c-14 0 -34 0 -47 -1c0 -41 -1 -100 -1 -140l52 -3c0 -19 0 -40 -1 -59h-111c-37 0 -78 -1 -113 -1c0 19 0 41 1 60l57 3c1 0 3 2 3 4
v546z" />
    <glyph glyph-name="l" unicode="l" horiz-adv-x="279" 
d="M83 613l-75 2c0 20 1 41 2 60c48 5 177 25 186 25c2 0 3 -1 3 -4c-1 -174 -3 -439 -4 -633l69 -2v-60h-126c-39 0 -84 -1 -121 -1c0 19 1 41 1 60l61 3c2 0 4 2 4 4v546z" />
    <glyph glyph-name="m" unicode="m" horiz-adv-x="833" 
d="M95 350l-69 2c0 19 1 40 1 58c42 6 158 27 165 27c2 0 3 -1 3 -3c3 -17 6 -36 8 -55l4 -1c94 56 114 60 150 60c55 0 93 -47 105 -66h4c97 59 118 64 158 64c50 0 85 -33 105 -61c15 -23 25 -52 25 -81c0 -73 -2 -159 -3 -230l59 -2c0 -20 -1 -42 -2 -61h-111
c-37 0 -76 -1 -107 -1c0 19 0 42 1 60l47 3c2 1 3 3 3 5c1 60 1 134 1 186c0 27 -1 50 -10 68c-11 23 -32 32 -55 32c-30 0 -70 -20 -99 -40c1 -71 -1 -175 -1 -250l56 -2c0 -20 0 -42 -1 -61h-117c-33 0 -70 -1 -97 -1c0 20 0 41 1 61l47 3c2 0 4 2 4 4v194
c0 29 0 49 -10 67c-12 22 -31 27 -51 27c-27 0 -71 -19 -102 -43c-1 -74 -2 -175 -2 -249l58 -3c0 -19 0 -41 -1 -60h-118c-34 0 -76 -1 -108 -1c0 20 0 42 1 61l55 3c2 0 3 2 3 4v282z" />
    <glyph glyph-name="n" unicode="n" horiz-adv-x="580" 
d="M95 350l-71 2c0 19 1 40 1 58c44 5 159 27 165 27c2 0 2 -1 2 -3c4 -20 9 -43 12 -60l5 -1c99 60 121 65 165 65c48 0 86 -37 106 -69c16 -28 20 -55 20 -80c0 -66 -2 -156 -3 -226l58 -2c0 -19 0 -41 -1 -60h-115c-36 0 -77 -1 -108 -1v60l51 3c2 0 3 2 4 4v161
c0 43 0 75 -11 94c-15 28 -35 31 -56 31c-30 0 -77 -22 -109 -48c-2 -69 -3 -176 -3 -242l60 -2c0 -20 -1 -41 -1 -60h-118c-36 0 -78 -1 -112 -1c0 19 0 41 1 60l55 3c2 0 3 2 3 4v283z" />
    <glyph glyph-name="o" unicode="o" horiz-adv-x="522" 
d="M253 -10h-1c-57 0 -110 16 -146 48c-45 39 -70 93 -70 166c0 74 30 141 89 187c41 32 95 47 148 47c50 0 93 -11 130 -37c50 -36 83 -95 83 -178s-40 -153 -95 -193c-38 -27 -84 -40 -138 -40zM261 49h1c24 0 48 7 66 29c27 31 36 74 36 141c0 58 -10 98 -31 125
c-18 25 -41 35 -69 35c-23 0 -49 -8 -67 -30c-25 -29 -38 -73 -38 -134c0 -68 12 -108 37 -136c16 -20 39 -30 65 -30z" />
    <glyph glyph-name="p" unicode="p" horiz-adv-x="543" 
d="M189 383l6 -1c99 53 113 56 154 56c94 1 159 -99 158 -193c0 -47 -9 -88 -27 -128c-15 -34 -37 -67 -78 -97c-21 -15 -67 -30 -109 -30c-41 0 -70 7 -96 19l-5 -2v-174l88 -2c0 -20 0 -41 -1 -60c-42 0 -95 0 -143 -1c-36 0 -79 0 -113 -1c0 19 0 40 1 59l54 4
c2 0 3 3 3 5l1 513l-71 1c0 19 1 40 2 58c42 6 159 30 165 30c2 0 2 -1 2 -3c3 -17 6 -36 9 -53zM387 214v1c0 41 -5 74 -19 99c-13 22 -37 40 -66 40c-30 0 -70 -13 -106 -39c-1 -67 -2 -151 -2 -215c0 -21 47 -44 84 -44c25 0 53 9 72 31c23 26 37 67 37 127z" />
    <glyph glyph-name="q" unicode="q" horiz-adv-x="528" 
d="M350 31h-7c-77 -39 -97 -41 -126 -41c-44 0 -85 13 -121 48c-36 34 -60 86 -60 153c0 71 24 133 70 184c39 43 92 63 152 63c44 0 82 -12 110 -22l39 32c18 -3 40 -7 60 -12c-3 -27 -5 -61 -5 -98c-1 -151 -4 -370 -3 -504l59 -1c0 -20 0 -41 -2 -60
c-35 0 -74 -1 -116 -1c-42 -1 -91 -2 -137 -3c0 19 0 40 1 60l81 5c2 0 4 2 4 5zM267 367h-1c-30 0 -60 -13 -78 -39c-20 -28 -31 -66 -31 -123c0 -46 8 -80 28 -107c16 -21 45 -34 69 -34c28 0 58 12 89 31c5 3 5 8 5 16v234c-23 14 -52 22 -81 22z" />
    <glyph glyph-name="r" unicode="r" horiz-adv-x="409" 
d="M95 352l-67 1c0 20 0 40 1 59c43 6 159 26 164 26c1 0 2 -1 2 -3c2 -33 4 -82 6 -131l6 -1c59 115 89 136 135 136c23 0 48 -5 65 -12c0 -32 -22 -91 -36 -104c-9 2 -36 9 -57 9c-10 0 -19 -3 -31 -12c-19 -15 -37 -40 -60 -84c-12 -23 -16 -57 -16 -88
c-1 -27 -1 -60 -1 -85l89 -3c0 -18 0 -40 -1 -59h-138c-38 0 -83 -1 -119 -1c0 19 0 41 1 60l53 2c2 1 4 2 4 4v286z" />
    <glyph glyph-name="s" unicode="s" horiz-adv-x="421" 
d="M99 144l15 -61c2 -5 3 -8 8 -12c16 -11 40 -18 63 -18s42 1 59 12c14 8 26 22 26 45c0 40 -22 47 -98 69c-85 25 -122 62 -122 121c0 52 36 92 73 111c30 16 73 27 128 27c54 0 94 -10 107 -16c5 -40 9 -80 12 -120c-20 -3 -44 -7 -67 -10l-15 59c-1 4 -3 9 -6 11
c-13 9 -32 13 -51 13s-39 -5 -51 -14c-12 -8 -22 -22 -22 -45c0 -32 18 -39 96 -62c72 -20 125 -45 125 -123c0 -49 -27 -90 -74 -116c-29 -16 -78 -25 -133 -25c-51 0 -98 8 -125 18c-5 41 -10 83 -15 124c21 5 45 9 67 12z" />
    <glyph glyph-name="t" unicode="t" horiz-adv-x="386" 
d="M198 -10h-1c-23 0 -50 4 -76 28c-30 25 -31 48 -31 78c0 53 1 119 1 139c0 26 1 104 1 122h-69c0 21 0 44 2 64c21 1 44 3 64 4c3 0 7 3 7 7c1 28 3 62 5 89c36 20 101 42 104 42c1 0 2 -1 2 -3c0 -29 -1 -99 -2 -135c51 0 107 1 156 1c0 -22 -2 -48 -3 -70
c-45 0 -102 1 -154 1v-100c-1 -41 -1 -90 -1 -138c0 -36 27 -54 57 -54s68 7 101 15c4 -19 7 -41 9 -61c-56 -20 -120 -29 -172 -29z" />
    <glyph glyph-name="u" unicode="u" horiz-adv-x="545" 
d="M358 42h-5c-86 -49 -106 -52 -146 -52c-65 0 -132 74 -132 138c0 83 1 164 1 233l-54 1c0 20 1 42 2 62c38 2 151 5 163 6c2 0 3 -3 3 -4c-1 -73 -3 -157 -3 -236c0 -36 -1 -68 14 -91c15 -24 34 -30 56 -30c28 0 62 14 94 38c1 76 0 185 0 254l-58 2c0 21 1 43 1 63
c37 1 156 3 170 3c1 0 1 -2 1 -4c0 -109 -2 -233 -2 -349c0 -8 2 -11 6 -11l62 1c0 -19 0 -40 -1 -59c-11 -5 -81 -17 -134 -17c-12 10 -24 27 -38 52z" />
    <glyph glyph-name="v" unicode="v" horiz-adv-x="492" 
d="M493 367l-44 -2c-13 -33 -42 -97 -79 -181c-29 -67 -52 -116 -89 -193c-20 -1 -60 -1 -94 -1c-35 91 -50 131 -81 221c-26 75 -40 115 -52 150c-1 2 -3 3 -5 3l-46 2c0 21 0 43 1 62h106h125c0 -19 0 -42 -1 -61l-57 -3c6 -22 17 -65 35 -125c19 -61 31 -103 44 -141h6
c16 42 29 75 49 129c19 54 33 94 44 133c0 3 -1 4 -3 4l-47 2c0 20 0 43 1 61h107c28 0 57 1 81 1c0 -19 0 -41 -1 -61z" />
    <glyph glyph-name="w" unicode="w" horiz-adv-x="706" 
d="M708 368l-42 -3c-13 -41 -32 -98 -59 -179c-23 -68 -43 -122 -69 -194c-22 -1 -52 -2 -97 -2c-28 85 -56 170 -83 266h-6c-28 -75 -76 -192 -108 -264c-23 -1 -58 -2 -92 -2c-25 86 -41 146 -57 208c-18 69 -31 121 -42 162c0 2 -2 4 -5 4l-42 3c0 20 0 42 1 61h98h129
c0 -19 0 -41 -1 -60l-64 -2c3 -23 12 -71 22 -126c10 -54 20 -103 28 -141l6 -1c23 68 78 222 106 297c11 1 52 2 90 2c20 -73 65 -234 85 -301h6c14 53 22 86 35 135c12 47 23 95 29 129c1 3 0 4 -3 4l-53 2c1 21 1 43 2 61h113c25 0 53 1 74 1c1 -19 0 -41 -1 -60z" />
    <glyph glyph-name="x" unicode="x" horiz-adv-x="500" 
d="M2 61l39 2c4 1 8 3 11 5c37 39 87 91 136 141v8c-39 47 -85 103 -119 144c-2 1 -4 3 -6 3l-43 3c0 20 0 42 1 61h103h125c0 -19 0 -42 -1 -61l-49 -2c19 -26 48 -66 73 -97h6c29 34 52 64 72 92c1 2 0 4 -2 4l-40 2c0 20 1 42 1 61h100c27 0 56 1 78 1
c0 -19 0 -41 -1 -60l-39 -3c-31 -32 -76 -83 -130 -140v-5c44 -54 92 -115 126 -156l48 -2c0 -20 0 -42 -1 -62c-29 0 -65 1 -101 1c-41 0 -88 -1 -127 -1c0 20 0 43 1 61l42 3c5 0 6 3 4 5c-20 30 -49 66 -74 97h-7c-28 -32 -60 -73 -83 -102l45 -2c0 -20 0 -42 -1 -62
c-30 0 -69 1 -103 1c-28 0 -59 -1 -85 -1c0 20 0 42 1 61z" />
    <glyph glyph-name="y" unicode="y" horiz-adv-x="484" 
d="M486 367l-41 -2c-12 -32 -48 -123 -83 -206c-29 -70 -100 -232 -153 -313c-29 -44 -57 -81 -82 -96c-24 0 -87 43 -87 61c28 17 57 41 83 68c28 30 58 70 74 109c-32 79 -56 138 -85 214c-24 64 -44 118 -60 159c0 2 -3 3 -5 3l-45 2c1 21 1 43 2 62h100h130
c0 -19 0 -42 -1 -61l-60 -3c7 -24 20 -65 40 -123c17 -53 33 -96 49 -141h6c15 40 28 76 44 125c18 54 30 95 40 134c0 3 0 5 -4 5l-49 2c0 20 0 43 1 61h107c27 0 57 1 80 1c0 -19 0 -41 -1 -61z" />
    <glyph glyph-name="z" unicode="z" horiz-adv-x="466" 
d="M160 66l1 -4c43 0 105 0 151 3c16 1 29 7 33 19l30 79c23 -4 47 -10 67 -15c-11 -49 -24 -99 -37 -149c-14 0 -83 1 -153 1h-121h-88c-7 16 -14 37 -19 55c83 93 185 207 274 306l-1 5c-30 0 -107 0 -135 -1c-19 0 -24 -6 -27 -15l-27 -79c-24 3 -49 8 -70 12
c10 49 21 98 31 146c13 0 48 -1 100 -2h238c8 -23 15 -50 20 -74c-42 -51 -210 -225 -267 -287z" />
    <glyph glyph-name="braceleft" unicode="{" horiz-adv-x="365" 
d="M154 288v-7c44 -11 76 -48 76 -96c0 -68 -21 -114 -21 -186c0 -64 33 -106 119 -105c1 -17 2 -37 1 -55c-128 0 -215 63 -215 164c0 73 26 128 27 183c0 38 -9 69 -86 67c-1 17 -1 38 -1 56c76 0 86 28 87 62c0 48 -25 97 -26 167c0 108 75 173 217 173
c1 -17 1 -37 -1 -55c-95 0 -120 -45 -120 -108c0 -65 20 -113 20 -169c0 -49 -31 -80 -77 -91z" />
    <glyph glyph-name="bar" unicode="|" horiz-adv-x="541" 
d="M236 750h70v-1000h-70v1000z" />
    <glyph glyph-name="braceright" unicode="}" horiz-adv-x="365" 
d="M211 280v7c-46 12 -76 42 -76 90c0 57 22 105 22 171c-1 66 -25 107 -120 107c-2 18 -2 38 -1 55c142 0 216 -61 216 -172c0 -70 -27 -120 -27 -167c0 -34 11 -62 86 -62c0 -18 0 -39 -1 -56c-75 2 -86 -29 -86 -67c0 -55 27 -110 27 -183c0 -100 -88 -164 -216 -164
c-1 18 0 38 1 55c85 0 120 43 120 104c0 73 -21 119 -21 187c0 48 33 84 76 95z" />
    <glyph glyph-name="asciitilde" unicode="~" horiz-adv-x="541" 
d="M181 310h1c40 0 69 -16 101 -34c27 -14 55 -33 83 -33c27 0 48 29 50 69c21 2 43 1 62 0c-1 -77 -47 -148 -114 -148c-39 0 -73 21 -101 35c-26 14 -52 33 -83 33c-30 0 -51 -28 -56 -68c-19 -2 -41 0 -61 0c5 82 54 146 118 146z" />
    <glyph glyph-name="exclamdown" unicode="&#xa1;" horiz-adv-x="290" 
d="M78 -225h-1s-1 1 -1 3c7 111 24 338 31 460c17 5 59 9 72 9c2 -41 13 -165 16 -214c4 -58 14 -178 21 -236c-28 -8 -119 -22 -138 -22zM142 312h-1c-42 0 -64 32 -64 64c0 33 29 62 67 62c36 0 65 -26 65 -61c0 -34 -26 -65 -67 -65z" />
    <glyph glyph-name="cent" unicode="&#xa2;" horiz-adv-x="541" 
d="M66 296v1c0 118 80 220 219 242v102c21 4 42 7 65 8c0 -33 -1 -69 -1 -106c3 1 9 1 13 1c43 0 84 -10 115 -24c0 -22 -19 -70 -36 -80c-24 12 -65 31 -95 32c-2 -96 -4 -200 -5 -295c38 1 85 14 124 30c5 -17 11 -38 15 -56c-49 -22 -94 -36 -139 -41
c0 -39 -1 -77 -1 -111c-20 -2 -41 -4 -61 -6c0 34 0 73 1 113c-103 2 -214 56 -214 190zM174 317v-1c0 -46 14 -80 32 -101c18 -20 45 -33 74 -38c1 96 2 199 3 294c-66 -12 -109 -83 -109 -154z" />
    <glyph glyph-name="sterling" unicode="&#xa3;" horiz-adv-x="541" 
d="M351 654h1c28 0 71 -5 101 -16c5 -53 9 -107 11 -158c-23 -3 -48 -6 -72 -9l-19 96c-1 6 -3 11 -8 13c-12 4 -29 6 -44 6c-23 0 -46 -8 -64 -27c-18 -20 -26 -49 -26 -91c0 -33 7 -79 13 -126c56 0 113 1 171 2c1 -20 0 -47 -2 -68h-158c0 -12 1 -25 1 -35
c0 -67 -26 -122 -65 -165c-8 -8 -5 -10 6 -10c121 0 180 3 194 7c9 2 15 10 20 21l32 98c25 -4 50 -10 72 -16c-13 -58 -27 -119 -40 -177c-43 0 -175 1 -323 1h-139c0 20 1 44 2 65l72 3c6 0 13 3 15 5c31 33 44 82 44 146c0 17 -1 38 -4 57h-99c0 21 1 43 2 63
c27 0 54 0 81 1c2 0 4 1 3 4c-7 41 -14 88 -14 116c0 58 24 109 68 143c48 37 101 51 168 51z" />
    <glyph glyph-name="fraction" unicode="&#x2044;" horiz-adv-x="451" 
d="M62 -17c-16 8 -33 16 -51 26c54 91 116 198 172 293c62 110 131 232 202 359c18 -7 39 -16 56 -27c-73 -126 -148 -257 -207 -360c-50 -86 -123 -209 -172 -291z" />
    <glyph glyph-name="yen" unicode="&#xa5;" horiz-adv-x="541" 
d="M220 70v71c-45 0 -105 -1 -150 -1c0 17 1 38 2 54c46 0 96 -1 148 -1v57h-150c0 17 1 35 2 51c40 1 88 1 131 1c-49 89 -98 178 -146 265c-2 3 -5 5 -9 6l-36 2c0 20 0 42 1 60h94c52 0 106 1 145 1c0 -20 0 -41 -1 -61l-74 -3l117 -246h5c40 80 78 160 114 240
c1 3 -1 6 -5 6l-67 2c0 19 0 41 1 61h120c26 0 56 1 75 1c0 -20 0 -42 -1 -61l-39 -3c-48 -89 -98 -179 -149 -268c44 0 88 1 126 1c1 -16 0 -38 -1 -55h-150l-1 -56h151c0 -16 0 -35 -2 -52c-41 0 -100 -1 -149 -1l-1 -76l90 -3c0 -20 0 -42 -1 -62c-39 0 -92 1 -138 1
c-44 0 -94 -1 -137 -1c0 20 0 42 1 61l78 3c5 0 6 3 6 6z" />
    <glyph glyph-name="florin" unicode="&#x192;" horiz-adv-x="541" 
d="M451 655h1c31 0 61 -6 81 -14c0 -17 -23 -71 -40 -85c-16 5 -64 18 -88 18c-22 0 -48 -9 -61 -28c-20 -25 -30 -61 -35 -175c57 0 117 1 180 1c0 -20 -1 -47 -3 -68c-57 0 -125 1 -180 0c-4 -78 -8 -219 -22 -294c-21 -117 -136 -189 -224 -189c-26 0 -51 3 -69 11
c0 15 22 64 37 79c16 -5 45 -12 68 -12c43 0 82 36 89 117c7 92 10 224 12 288h-119c0 21 1 45 2 65c42 1 80 2 114 2c3 0 5 3 5 7c5 118 20 159 76 209c61 56 122 68 176 68z" />
    <glyph glyph-name="section" unicode="&#xa7;" horiz-adv-x="462" 
d="M413 211v-1c0 -57 -21 -104 -54 -141c13 -17 23 -47 23 -80c0 -46 -18 -92 -57 -127c-36 -34 -86 -50 -133 -50c-69 0 -129 21 -173 57c8 24 33 56 60 65c28 -28 76 -56 122 -56c25 0 49 8 66 25c15 16 22 37 22 61c0 52 -30 75 -111 124c-82 49 -127 99 -127 180
c0 58 26 106 60 142c-18 22 -30 53 -30 89c0 42 23 86 60 115c36 29 83 42 136 42c58 0 112 -19 145 -48c-5 -22 -30 -53 -56 -63c-21 21 -70 46 -108 46c-24 0 -46 -6 -60 -20c-16 -15 -25 -34 -25 -57c0 -50 37 -70 118 -121c75 -47 122 -99 122 -182zM131 301v-1
c0 -61 38 -90 92 -125c31 -21 67 -43 91 -65c13 18 19 41 19 71c0 59 -35 88 -91 127c-29 21 -60 40 -86 63c-14 -16 -25 -43 -25 -70z" />
    <glyph glyph-name="currency" unicode="&#xa4;" horiz-adv-x="541" 
d="M280 507h1c33 0 69 -7 95 -23c27 32 51 61 72 87c17 -13 35 -30 50 -47c-21 -23 -44 -50 -70 -80c28 -30 45 -76 45 -124c0 -54 -19 -106 -56 -138c28 -32 56 -64 80 -92c-15 -14 -32 -29 -49 -41c-23 27 -50 58 -81 92c-23 -15 -61 -25 -101 -25c-37 0 -69 7 -94 21
c-29 -33 -57 -64 -81 -90c-16 13 -33 28 -47 42c24 27 50 58 76 88c-29 28 -49 75 -49 127c0 51 21 100 53 133c-27 32 -51 59 -74 85c16 16 34 33 51 46c22 -26 47 -56 74 -89c32 21 71 28 105 28zM274 445h-1c-30 0 -59 -10 -78 -27c-20 -20 -45 -55 -45 -108
c0 -52 18 -84 40 -105c18 -16 50 -27 80 -27s58 8 78 25c27 21 46 57 46 113c0 52 -20 85 -45 106c-19 16 -45 23 -75 23z" />
    <glyph glyph-name="quotesingle" unicode="'" horiz-adv-x="206" 
d="M153 698c-4 -59 -13 -202 -15 -262c-16 -4 -46 -8 -58 -8c-7 90 -17 198 -24 255c26 9 83 15 97 15z" />
    <glyph glyph-name="quotedblleft" unicode="&#x201c;" horiz-adv-x="409" 
d="M125 454h-1c-38 0 -74 40 -74 87c0 72 53 147 121 179c11 -12 23 -27 32 -41c-51 -35 -66 -65 -66 -94c0 -33 32 -42 51 -47c7 -49 -23 -84 -63 -84zM309 454h-1c-38 0 -74 40 -74 87c0 72 53 147 121 179c12 -13 22 -27 31 -41c-50 -35 -65 -65 -65 -94
c0 -33 33 -42 51 -47c6 -49 -24 -84 -63 -84z" />
    <glyph glyph-name="guillemotleft" unicode="&#xab;" horiz-adv-x="442" 
d="M140 222c31 -49 63 -99 97 -148c-11 -12 -26 -25 -39 -35c-51 54 -99 104 -151 156c-1 16 -1 35 -1 50c53 53 102 104 152 158c13 -10 28 -23 38 -35c-33 -49 -65 -96 -96 -146zM309 222c30 -47 62 -95 95 -143c-10 -11 -24 -23 -36 -33c-49 52 -96 102 -146 153
c-1 14 -1 30 -1 43c50 52 97 103 145 155c12 -10 26 -23 37 -34c-32 -48 -63 -94 -94 -141z" />
    <glyph glyph-name="guilsinglleft" unicode="&#x2039;" horiz-adv-x="275" 
d="M140 221c30 -49 63 -100 97 -150c-12 -11 -27 -23 -40 -33c-50 54 -99 105 -150 156c-1 16 -1 35 -1 50c52 53 101 104 151 157c14 -9 28 -23 39 -34c-33 -49 -65 -97 -96 -146z" />
    <glyph glyph-name="guilsinglright" unicode="&#x203a;" horiz-adv-x="275" 
d="M136 221c-31 49 -63 97 -97 146c12 12 26 26 39 35c51 -53 100 -104 152 -157c0 -15 -1 -34 -2 -50c-50 -52 -99 -103 -150 -157c-13 10 -27 23 -39 34c34 50 66 100 97 149z" />
    <glyph glyph-name="endash" unicode="&#x2013;" horiz-adv-x="500" 
d="M259 207h-1h-224c0 22 1 47 2 68c73 0 149 1 222 1c66 0 148 1 208 2c0 -24 -1 -50 -3 -71h-204z" />
    <glyph glyph-name="dagger" unicode="&#x2020;" horiz-adv-x="503" 
d="M299 654h1s0 -2 1 -4c-1 -56 -3 -133 -5 -216c54 1 110 1 164 1c0 -22 -1 -50 -4 -74h-161c-4 -181 -9 -385 -11 -526c-16 -8 -64 -13 -75 -14c-4 166 -10 376 -14 540h-154c1 26 2 50 3 71c49 1 99 2 143 2c5 0 7 3 7 7c-1 61 -2 127 -4 180c29 15 92 33 109 33z" />
    <glyph glyph-name="daggerdbl" unicode="&#x2021;" horiz-adv-x="503" 
d="M299 654h1s0 -2 1 -4c-2 -56 -3 -132 -5 -215c54 1 110 1 166 1c0 -22 -1 -50 -4 -74h-163c-2 -70 -3 -143 -4 -214c54 0 114 -1 168 -1c0 -23 -1 -47 -4 -71c-49 0 -116 -1 -167 -1c-2 -85 -3 -168 -4 -240c-18 -7 -62 -12 -75 -13c-3 82 -5 167 -7 252
c-36 0 -95 0 -160 -1c0 25 1 52 3 76c50 0 102 -1 149 -1c3 0 5 3 5 7c-1 63 -2 143 -3 207h-156c0 25 2 50 3 71c48 1 99 2 144 2c5 0 7 3 7 7c-1 61 -3 126 -5 180c19 13 91 32 110 32z" />
    <glyph glyph-name="periodcentered" unicode="&#xb7;" horiz-adv-x="267" 
d="M135 328h1c44 0 65 -35 65 -67c0 -37 -27 -67 -68 -67c-37 0 -68 27 -68 66c0 33 25 68 70 68z" />
    <glyph glyph-name="paragraph" unicode="&#xb6;" horiz-adv-x="578" 
d="M486 585l-3 -716c-20 -5 -45 -9 -67 -12l-2 730h-66l-3 -721c-21 -5 -46 -10 -69 -13l-1 351h-17c-16 0 -59 5 -89 18c-70 29 -130 91 -130 194c0 102 66 172 129 202c51 25 139 32 204 32c59 0 125 -2 178 -3c1 -19 1 -41 1 -63z" />
    <glyph glyph-name="bullet" unicode="&#x2022;" horiz-adv-x="356" 
d="M180 380h1c79 0 115 -65 115 -122c0 -64 -48 -121 -117 -121c-68 0 -118 49 -118 117c0 64 45 126 119 126z" />
    <glyph glyph-name="quotesinglbase" unicode="&#x201a;" horiz-adv-x="256" 
d="M123 125h1c40 0 78 -42 78 -92c0 -77 -55 -157 -127 -191c-12 13 -24 28 -34 43c54 36 69 70 69 101c0 32 -29 45 -52 52c-6 51 23 87 65 87z" />
    <glyph glyph-name="quotedblbase" unicode="&#x201e;" horiz-adv-x="431" 
d="M119 119h1c37 0 74 -40 74 -87c0 -73 -53 -146 -120 -179c-11 13 -23 27 -32 41c50 35 65 65 65 94c0 31 -30 43 -51 50c-5 49 24 81 63 81zM303 119h1c37 0 74 -40 74 -87c0 -73 -53 -146 -120 -179c-11 13 -22 27 -32 41c50 35 65 65 65 94c0 31 -31 43 -51 50
c-4 48 24 81 63 81z" />
    <glyph glyph-name="quotedblright" unicode="&#x201d;" horiz-adv-x="409" 
d="M103 699h1c37 0 74 -40 74 -87c0 -73 -53 -147 -120 -179c-11 12 -23 27 -32 41c50 34 65 65 65 94c0 32 -30 43 -51 50c-5 49 24 81 63 81zM287 699h1c37 0 74 -40 74 -87c0 -73 -53 -147 -120 -179c-11 13 -22 27 -32 41c50 34 65 65 65 94c0 31 -31 43 -51 49
c-4 49 24 82 63 82z" />
    <glyph glyph-name="guillemotright" unicode="&#xbb;" horiz-adv-x="442" 
d="M133 220c-31 48 -61 94 -93 142c10 12 24 25 36 35c49 -52 95 -103 145 -155c0 -13 -1 -30 -2 -44c-48 -51 -95 -100 -145 -153c-12 10 -25 23 -36 34c33 47 65 94 95 141zM301 221c-31 49 -62 97 -95 147c11 12 25 25 37 35c51 -53 101 -105 153 -158
c0 -15 -1 -34 -2 -50c-50 -51 -98 -102 -151 -157c-12 11 -27 24 -38 36c34 49 66 98 96 147z" />
    <glyph glyph-name="ellipsis" unicode="&#x2026;" horiz-adv-x="861" 
d="M146 125h1c44 0 65 -35 65 -67c0 -38 -27 -68 -68 -68c-37 0 -68 27 -68 67c0 33 25 68 70 68zM433 125h1c44 0 65 -35 65 -67c0 -38 -27 -68 -68 -68c-37 0 -68 27 -68 67c0 33 25 68 70 68zM720 125h1c44 0 65 -35 65 -67c0 -38 -27 -68 -68 -68c-37 0 -68 27 -68 67
c0 33 25 68 70 68z" />
    <glyph glyph-name="perthousand" unicode="&#x2030;" horiz-adv-x="1168" 
d="M527 604l-5 3c-58 -1 -131 -1 -210 -2c24 -19 43 -65 43 -116c0 -67 -25 -116 -60 -147c-28 -24 -64 -36 -101 -36c-35 0 -68 10 -94 30c-32 24 -60 73 -60 143c0 59 24 107 59 137c30 25 72 36 110 36c103 0 314 6 379 11c10 -12 19 -27 27 -40
c-62 -103 -131 -221 -189 -320c-59 -100 -131 -223 -196 -334c-17 8 -36 17 -53 28c69 118 133 227 195 336c50 87 104 180 155 271zM200 603h-1c-16 0 -29 -4 -42 -18c-17 -19 -28 -58 -28 -106c0 -52 9 -89 26 -105c12 -12 26 -19 43 -19c15 0 29 4 40 15
c15 15 28 50 28 112c0 45 -10 84 -24 102c-10 14 -24 19 -42 19zM609 336h1c45 0 76 -14 98 -33c29 -27 51 -73 51 -134c0 -59 -22 -113 -57 -144c-28 -25 -64 -36 -100 -36s-70 9 -96 28c-32 24 -60 74 -60 138c0 59 25 114 61 145c28 24 63 36 102 36zM977 336h1
c46 0 77 -13 99 -34c28 -26 51 -72 51 -133c0 -59 -23 -114 -57 -144c-28 -25 -64 -36 -101 -36c-36 0 -70 9 -96 28c-32 24 -60 75 -60 138c0 57 24 113 61 144c28 24 62 37 102 37zM605 287h-1c-16 0 -30 -5 -42 -19c-16 -18 -27 -59 -27 -110c0 -50 9 -86 24 -102
c12 -12 27 -18 44 -18c15 0 30 5 42 16c16 17 26 51 26 107c0 52 -10 89 -24 106c-10 14 -23 20 -42 20zM973 287h-1c-16 0 -30 -5 -42 -19c-17 -19 -27 -60 -27 -110c0 -52 10 -86 24 -101c12 -14 27 -19 45 -19c15 0 28 4 41 16c17 17 27 51 27 109c0 49 -10 87 -23 104
c-11 14 -25 20 -44 20z" />
    <glyph glyph-name="questiondown" unicode="&#xbf;" horiz-adv-x="453" 
d="M246 314h-1c-40 0 -64 30 -64 64c0 31 29 60 67 60c35 0 66 -24 66 -59c0 -34 -27 -65 -68 -65zM36 -74v1c0 87 60 146 162 210c15 10 23 18 23 28c0 17 -6 44 -13 72c17 7 43 14 74 18c16 -22 43 -83 44 -120c-111 -76 -163 -120 -163 -200c0 -56 36 -92 89 -92
c22 0 44 5 60 17c4 3 6 6 7 12l20 84c27 -2 53 -5 76 -9c-3 -46 -7 -96 -11 -143c-36 -18 -107 -33 -175 -33c-125 0 -193 69 -193 155z" />
    <glyph glyph-name="grave" unicode="`" horiz-adv-x="382" 
d="M143 663c44 -44 97 -99 140 -141c-11 -14 -24 -28 -36 -40c-48 38 -106 85 -157 124c16 19 35 40 53 57z" />
    <glyph glyph-name="acute" unicode="&#xb4;" horiz-adv-x="382" 
d="M250 662c19 -17 37 -38 53 -57c-54 -41 -111 -86 -162 -124c-11 12 -23 26 -35 40c46 44 98 97 144 141z" />
    <glyph glyph-name="circumflex" unicode="&#x2c6;" horiz-adv-x="382" 
d="M192 573c-32 -30 -68 -65 -98 -94c-12 10 -26 22 -38 33c37 43 78 92 112 131c16 1 34 1 48 1c33 -37 79 -93 112 -131c-11 -11 -24 -24 -37 -34c-29 28 -66 63 -99 94z" />
    <glyph glyph-name="tilde" unicode="&#x2dc;" horiz-adv-x="382" 
d="M133 615h1c29 0 50 -18 71 -32c18 -12 30 -23 49 -23s29 18 33 51c16 1 31 1 45 0c-3 -61 -24 -114 -80 -114c-25 0 -45 15 -65 29c-21 14 -35 27 -55 27s-31 -21 -36 -51c-15 -1 -31 0 -45 0c5 61 29 113 82 113z" />
    <glyph glyph-name="macron" unicode="&#xaf;" horiz-adv-x="382" 
d="M300 573c1 -19 1 -40 0 -59c-63 0 -146 1 -217 1c-1 17 -1 38 0 56c73 1 144 2 217 2z" />
    <glyph glyph-name="breve" unicode="&#x2d8;" horiz-adv-x="382" 
d="M190 496h-1c-65 0 -116 48 -126 106c16 7 34 12 50 15c14 -36 42 -60 80 -60c39 0 66 29 76 56c16 -2 35 -6 51 -10c-9 -50 -60 -107 -130 -107z" />
    <glyph glyph-name="dotaccent" unicode="&#x2d9;" horiz-adv-x="382" 
d="M192 619h1c37 0 54 -27 54 -54c0 -30 -22 -55 -56 -55c-30 0 -55 23 -55 55c0 26 19 54 56 54z" />
    <glyph glyph-name="dieresis" unicode="&#xa8;" horiz-adv-x="382" 
d="M107 602h1c34 0 49 -27 49 -50c0 -27 -19 -50 -51 -50c-28 0 -51 21 -51 50c0 23 18 50 52 50zM277 602h1c32 0 50 -27 50 -50c0 -29 -23 -50 -51 -50c-32 0 -51 23 -51 50c0 23 15 50 51 50z" />
    <glyph glyph-name="ring" unicode="&#x2da;" horiz-adv-x="382" 
d="M193 676h1c62 0 103 -38 103 -89c0 -53 -45 -94 -105 -94c-58 0 -106 35 -106 92c0 45 45 91 107 91zM193 634h-1c-29 0 -48 -23 -48 -50c0 -28 22 -49 49 -49c32 0 47 22 47 50c0 29 -16 49 -47 49z" />
    <glyph glyph-name="cedilla" unicode="&#xb8;" horiz-adv-x="382" 
d="M150 -73l82 74h64l-70 -66c37 -7 62 -34 62 -69c0 -54 -52 -93 -143 -94c-3 14 -4 31 -5 44c48 3 77 17 77 46c0 12 -5 20 -12 27c-10 9 -25 12 -45 11c-4 8 -7 19 -10 27z" />
    <glyph glyph-name="hungarumlaut" unicode="&#x2dd;" horiz-adv-x="382" 
d="M172 658c16 -13 33 -32 47 -48c-46 -38 -93 -78 -140 -116c-12 10 -24 23 -35 34c41 41 88 89 128 130zM314 653c15 -12 33 -31 47 -47c-45 -38 -91 -78 -138 -118c-12 11 -24 23 -34 35c39 40 86 90 125 130z" />
    <glyph glyph-name="ogonek" unicode="&#x2db;" horiz-adv-x="382" 
d="M201 -114v1c0 38 28 84 91 119h45c-42 -32 -64 -70 -64 -104c0 -32 22 -48 48 -48c14 0 29 4 39 8c4 -14 8 -27 11 -40c-20 -12 -45 -18 -69 -18c-50 0 -101 28 -101 82z" />
    <glyph glyph-name="caron" unicode="&#x2c7;" horiz-adv-x="382" 
d="M192 562c34 32 70 67 99 95c13 -10 26 -23 37 -34c-33 -38 -80 -94 -112 -131c-14 -1 -33 -1 -48 0c-35 40 -75 89 -112 131c12 12 26 24 38 33c30 -28 66 -63 98 -94z" />
    <glyph glyph-name="emdash" unicode="&#x2014;" horiz-adv-x="1000" 
d="M493 207h-1h-458c1 22 1 47 2 68c150 0 303 1 453 1s330 1 477 2c0 -23 -1 -50 -3 -71h-470z" />
    <glyph glyph-name="AE" unicode="&#xc6;" horiz-adv-x="875" 
d="M428 261l-181 -1c-38 -72 -74 -138 -103 -194l80 -4c0 -20 0 -41 -1 -62h-147h-92c0 21 0 42 1 62l56 4c3 0 6 2 7 4c99 167 232 399 337 576c2 3 3 4 7 4h121h202h92c4 -53 7 -108 9 -162c-21 -3 -47 -6 -71 -8l-17 82c-1 10 -6 16 -21 18c-19 2 -70 5 -134 5h-21
l-1 -254c45 1 83 2 124 3c14 0 19 7 20 19l6 44c23 0 48 0 69 -1c0 -31 -1 -65 -1 -99c-1 -31 -1 -63 -1 -87c-22 -1 -46 -2 -70 -2l-3 40c-1 15 -7 19 -21 19c-37 1 -78 1 -123 1l-1 -182c0 -18 4 -21 54 -21c64 0 105 3 120 7c10 2 15 8 19 19l27 77c25 -4 50 -8 71 -13
c-9 -50 -20 -103 -32 -156c-47 1 -178 1 -315 1h-136c0 20 0 42 1 62l71 3c2 0 4 1 4 4v188c0 4 -3 4 -6 4zM434 583h-5c-57 -95 -100 -173 -146 -255c-2 -4 -1 -6 2 -6h149v261z" />
    <glyph glyph-name="ordfeminine" unicode="&#xaa;" horiz-adv-x="381" 
d="M230 340h-3c-45 -25 -80 -33 -109 -33c-38 0 -91 33 -91 79c0 44 48 109 152 109h48c1 59 -14 86 -54 86c-30 0 -67 -23 -93 -46c-11 12 -23 27 -33 41c43 39 92 69 157 69c54 0 109 -43 109 -118c0 -42 -1 -123 -1 -154c0 -7 1 -9 5 -9l47 2c0 -15 0 -32 -1 -46
c-18 -4 -69 -13 -108 -13c-8 6 -16 16 -25 33zM115 396v-1c0 -20 22 -32 45 -32c21 0 46 10 65 23c2 2 2 3 2 4v59c-3 1 -13 1 -26 1c-58 0 -86 -22 -86 -54z" />
    <glyph glyph-name="Lslash" unicode="&#x141;" horiz-adv-x="557" 
d="M135 583l-65 3c-1 20 0 43 1 63h128h136c0 -20 0 -43 -1 -64l-77 -2c-2 0 -3 -1 -3 -3l-1 -193c41 20 83 41 132 66c10 -20 19 -45 25 -65c-52 -24 -109 -51 -157 -75l-2 -229c0 -18 1 -21 45 -21c80 0 110 3 124 6c9 2 15 9 19 20l36 104c24 -4 50 -9 72 -15
c-11 -56 -26 -121 -40 -179c-48 0 -175 1 -312 1c-44 0 -88 -1 -126 -1c0 21 0 43 1 63l61 3c2 0 4 1 4 4v192c-25 -12 -50 -24 -76 -37c-9 18 -18 39 -25 57c35 17 68 34 101 50v252z" />
    <glyph glyph-name="Oslash" unicode="&#xd8;" horiz-adv-x="725" 
d="M386 660h1c80 0 132 -26 174 -56c22 25 45 51 67 76c19 -14 38 -32 54 -47c-23 -26 -47 -52 -71 -79c39 -48 68 -131 68 -211c0 -104 -37 -203 -102 -268c-59 -57 -132 -85 -228 -85c-74 0 -136 22 -182 57c-27 -30 -55 -60 -81 -88c-17 14 -33 29 -47 43
c28 31 55 61 82 90c-52 59 -74 140 -74 228c0 129 63 233 145 286c58 38 116 54 194 54zM370 595h-1c-50 0 -93 -17 -125 -51c-36 -39 -74 -109 -74 -227c0 -54 7 -108 28 -145c51 61 99 118 146 172c46 56 101 120 156 185c-27 40 -72 66 -130 66zM365 55h1
c47 0 93 15 125 54c40 48 64 117 64 222c0 46 -6 99 -25 137c-55 -64 -106 -125 -148 -175c-44 -50 -98 -112 -152 -174c30 -38 80 -64 135 -64z" />
    <glyph glyph-name="OE" unicode="&#x152;" horiz-adv-x="969" 
d="M47 318v1c0 120 53 229 137 289c50 35 108 52 175 52c76 0 135 -31 165 -69v59h61h220h92c4 -53 7 -108 9 -162c-21 -3 -47 -6 -72 -8l-16 82c-2 10 -6 16 -23 18c-20 2 -71 5 -135 5h-21l-1 -221c45 1 85 1 126 2c14 0 19 7 21 20l5 43c24 0 49 0 70 -1
c-1 -31 -1 -65 -2 -99v-95c-22 -1 -46 -2 -70 -2l-4 47c-1 15 -7 20 -22 20c-37 1 -78 2 -124 1l-1 -214c0 -18 4 -21 54 -21c64 0 108 3 124 7c9 2 14 9 19 20l30 85c25 -4 50 -9 71 -14c-10 -54 -23 -109 -35 -164c-48 1 -172 1 -309 1h-68v71c-39 -50 -100 -81 -190 -81
c-71 0 -140 25 -191 74c-59 57 -95 142 -95 254zM177 330v-1c0 -99 16 -164 59 -216c37 -42 81 -58 128 -58c68 0 127 37 157 110v329c-24 62 -81 101 -153 101c-50 0 -91 -17 -121 -50c-37 -39 -70 -107 -70 -215z" />
    <glyph glyph-name="ordmasculine" unicode="&#xba;" horiz-adv-x="398" 
d="M193 307h-1c-42 0 -83 12 -109 38c-31 29 -50 67 -50 123c0 55 22 107 63 141c30 24 70 36 111 36c37 0 72 -9 98 -28c35 -26 60 -70 60 -133s-26 -116 -69 -147c-28 -21 -64 -30 -103 -30zM198 354h1c18 0 35 5 49 20c19 22 25 55 25 105c0 45 -7 74 -22 94
c-13 18 -30 25 -49 25c-20 0 -36 -7 -50 -22c-16 -20 -27 -53 -27 -98c0 -52 9 -82 25 -101c13 -16 29 -23 48 -23z" />
    <glyph glyph-name="ae" unicode="&#xe6;" horiz-adv-x="720" 
d="M336 53h-7c-72 -45 -135 -63 -185 -63c-47 0 -118 46 -118 105c0 56 64 142 207 142h60c2 81 -19 119 -72 119c-40 0 -87 -29 -123 -62c-15 16 -29 34 -42 52c56 50 119 92 194 92c55 0 92 -27 110 -78h5c36 53 89 78 153 78c55 0 98 -20 124 -51c30 -36 44 -86 44 -141
c-3 -13 -33 -44 -43 -45c-44 -3 -164 -3 -238 -3c1 -48 12 -79 31 -100c25 -27 55 -33 92 -33c43 0 101 17 134 30c6 -19 12 -42 15 -61c-57 -27 -128 -44 -173 -44c-76 0 -134 26 -168 63zM502 376h-1c-26 0 -46 -9 -62 -28c-13 -17 -30 -43 -32 -90c48 0 116 0 161 2
c7 0 11 4 11 11c0 29 -9 58 -21 75c-12 18 -30 30 -56 30zM200 60h1c35 0 80 20 104 38c3 2 4 4 3 7c-7 19 -13 48 -15 75c-4 0 -16 1 -39 1c-79 0 -113 -32 -113 -72c0 -28 26 -49 59 -49z" />
    <glyph glyph-name="dotlessi" unicode="&#x131;" horiz-adv-x="288" 
d="M95 349l-71 3c-1 19 0 41 0 60c48 5 174 26 183 26c1 0 1 -1 1 -3c0 -109 -2 -268 -2 -372l64 -2c0 -20 0 -41 -1 -60h-122c-37 0 -81 -1 -118 -1c0 20 0 41 1 60l61 3c3 0 4 2 4 4v282z" />
    <glyph glyph-name="lslash" unicode="&#x142;" horiz-adv-x="325" 
d="M41 60l61 3c2 0 4 2 4 4v213c-24 -11 -50 -24 -73 -35c-9 18 -17 39 -23 58c32 16 64 32 96 49v261l-75 2c0 20 1 41 1 60c49 5 178 25 187 25c2 0 3 -1 3 -4c-1 -79 -1 -183 -2 -288c27 14 56 28 82 41c10 -21 18 -45 24 -64c-33 -16 -71 -34 -107 -52
c0 -93 -1 -188 -1 -270l69 -2c0 -20 0 -41 -1 -60h-125c-39 0 -84 -1 -121 -1c0 19 1 41 1 60z" />
    <glyph glyph-name="oslash" unicode="&#xf8;" horiz-adv-x="522" 
d="M273 438h1c43 0 79 -9 114 -30c20 25 39 47 56 67c17 -13 35 -29 49 -44c-16 -19 -35 -41 -55 -64c28 -31 48 -84 48 -143c0 -83 -38 -154 -98 -197c-38 -25 -82 -37 -135 -37c-44 0 -84 8 -117 28c-23 -26 -46 -51 -66 -73c-16 12 -30 27 -43 40c19 21 40 45 61 71
c-32 34 -52 87 -52 147c0 74 31 142 87 186c41 33 96 49 150 49zM265 379h-1c-27 0 -51 -9 -72 -31c-26 -31 -42 -81 -42 -136c0 -30 3 -56 14 -79c58 70 116 141 173 211c-18 24 -41 35 -72 35zM263 48h1c25 0 49 8 67 28c28 31 42 80 42 139c0 24 -3 53 -12 73
c-57 -69 -115 -138 -171 -207c15 -19 40 -33 73 -33z" />
    <glyph glyph-name="oe" unicode="&#x153;" horiz-adv-x="791" 
d="M416 71h-6c-31 -46 -86 -81 -163 -81c-52 0 -105 14 -141 47c-46 41 -70 96 -70 167c0 74 31 142 87 186c41 34 90 48 146 48c73 0 128 -41 150 -90h6c37 59 96 90 164 90c57 0 100 -22 124 -52c30 -37 44 -85 44 -141c-3 -14 -32 -43 -43 -44c-52 -3 -166 -3 -236 -3
c0 -45 11 -78 30 -99c27 -29 56 -34 91 -34c44 0 101 17 134 30c6 -19 12 -42 15 -61c-57 -27 -128 -44 -174 -44c-81 0 -133 33 -158 81zM262 48h1c23 0 46 7 65 28c28 33 35 74 35 142c0 63 -10 99 -30 126c-16 23 -42 35 -67 35c-27 0 -51 -9 -70 -31
c-23 -28 -37 -69 -37 -130c0 -73 13 -112 37 -140c16 -20 40 -30 66 -30zM572 376h-1c-23 0 -44 -10 -59 -29c-13 -16 -31 -44 -32 -89c46 0 114 0 157 2c8 0 12 4 12 11c0 27 -9 58 -21 74c-12 18 -30 31 -56 31z" />
    <glyph glyph-name="germandbls" unicode="&#xdf;" horiz-adv-x="625" 
d="M22 423l64 2c4 0 6 3 6 7c1 99 19 149 78 195c60 46 115 60 170 60c42 0 81 -13 113 -40c35 -32 58 -90 51 -172c-22 -16 -44 -31 -65 -49c-23 -20 -37 -40 -37 -63c0 -38 23 -49 79 -73c83 -32 111 -77 111 -136c0 -53 -23 -100 -69 -131c-30 -20 -83 -33 -135 -33
c-31 0 -68 5 -95 12c-5 42 -10 85 -14 125c20 5 43 9 63 12l14 -62c1 -5 4 -9 9 -11c12 -7 27 -11 42 -11c17 0 37 3 53 16c13 10 23 28 23 54c0 40 -12 56 -84 86c-73 29 -95 71 -95 124c0 44 33 75 55 100c16 17 28 29 39 42c4 56 -14 97 -35 116c-16 15 -37 22 -59 22
c-35 0 -56 -13 -72 -31c-22 -25 -26 -63 -27 -156c0 -101 -1 -256 -1 -365l27 -2c0 -20 -1 -40 -1 -60h-82c-35 0 -79 -1 -113 -1c0 20 0 40 1 60l54 3c2 0 4 2 4 5c0 94 0 195 -1 289h-73c0 22 1 46 2 66z" />
    <glyph glyph-name="onesuperior" unicode="&#xb9;" 
d="M235 463l79 -1v-46h-118h-132c0 14 0 30 1 46l86 1c2 0 2 1 2 3v207c-26 -5 -54 -10 -88 -17c-3 16 -6 32 -8 47c71 21 166 56 178 56c1 0 1 0 1 -3c0 -89 -1 -200 -1 -293z" />
    <glyph glyph-name="logicalnot" unicode="&#xac;" horiz-adv-x="541" 
d="M405 24v189h-346c0 22 1 47 3 69c126 0 283 2 410 3c3 0 4 -1 4 -4c0 -78 -2 -187 -2 -254c-22 -2 -47 -3 -69 -3z" />
    <glyph glyph-name="mu" unicode="&#xb5;" horiz-adv-x="547" 
d="M173 20l-5 -2c1 -70 5 -198 6 -234c-25 -19 -87 -29 -106 -29c2 94 3 282 3 373c0 92 1 194 2 273c31 17 86 28 111 28c2 0 2 -2 2 -3c-1 -75 -2 -158 -2 -233c0 -35 -1 -66 15 -91c15 -25 34 -32 61 -32c36 0 91 33 91 63v267c31 18 88 29 112 29c1 0 2 -2 2 -4
c0 -103 -2 -214 -2 -296c0 -43 8 -65 27 -65c13 0 31 4 49 9c3 -16 7 -39 9 -57c-24 -12 -82 -26 -139 -26c-17 12 -32 31 -48 60l-6 1c-61 -53 -93 -60 -119 -60c-25 0 -43 9 -63 29z" />
    <glyph glyph-name="mu" unicode="&#x3bc;" horiz-adv-x="547" 
d="M173 20l-5 -2c1 -70 5 -198 6 -234c-25 -19 -87 -29 -106 -29c2 94 3 282 3 373c0 92 1 194 2 273c31 17 86 28 111 28c2 0 2 -2 2 -3c-1 -75 -2 -158 -2 -233c0 -35 -1 -66 15 -91c15 -25 34 -32 61 -32c36 0 91 33 91 63v267c31 18 88 29 112 29c1 0 2 -2 2 -4
c0 -103 -2 -214 -2 -296c0 -43 8 -65 27 -65c13 0 31 4 49 9c3 -16 7 -39 9 -57c-24 -12 -82 -26 -139 -26c-17 12 -32 31 -48 60l-6 1c-61 -53 -93 -60 -119 -60c-25 0 -43 9 -63 29z" />
    <glyph glyph-name="trademark" unicode="&#x2122;" horiz-adv-x="639" 
d="M80 434h33v178c-20 0 -30 0 -39 -3l-8 -48c-13 1 -26 2 -40 3c2 32 3 59 4 86c39 -1 77 -1 117 -1c39 0 75 1 111 1c1 -27 3 -54 4 -86c-13 -1 -27 -2 -41 -3l-8 48c-10 3 -23 3 -39 3v-178h34v-38c-18 0 -39 1 -62 1s-45 -1 -66 -1v38zM282 433l31 1c0 56 1 125 1 177
l-31 1v37h106c15 -45 35 -116 51 -165h5c14 46 40 126 52 165h102v-37l-31 -1c1 -54 1 -120 1 -177l31 -1v-37c-17 0 -36 1 -55 1s-35 -1 -49 -1v37l21 1c1 46 1 96 1 139h-5c-22 -69 -41 -121 -57 -164h-38c-16 45 -35 101 -55 166h-5v-141l22 -1v-37c-13 0 -29 1 -46 1
c-18 0 -35 -1 -52 -1v37z" />
    <glyph glyph-name="Eth" unicode="&#xd0;" horiz-adv-x="717" 
d="M133 355l1 229l-68 2c0 22 1 43 1 63c63 1 142 2 221 2c117 0 183 -16 240 -49c84 -48 143 -148 143 -254c0 -134 -55 -231 -134 -289c-58 -42 -140 -60 -228 -60c-37 0 -89 1 -118 1c-38 0 -86 -1 -125 -1c0 20 1 42 1 62l62 3c2 0 4 2 4 5v219h-81c0 22 0 46 2 66
c26 1 53 1 79 1zM251 288l-1 -199c0 -21 9 -29 54 -29c74 0 129 20 168 55c47 43 73 124 73 198c0 109 -25 168 -81 221c-42 39 -97 56 -167 56c-19 0 -36 -1 -44 -4l-2 -230c50 0 99 1 156 1c0 -22 -2 -48 -4 -69h-152z" />
    <glyph glyph-name="onehalf" unicode="&#xbd;" horiz-adv-x="800" 
d="M238 360l79 -1v-46h-118h-132c0 14 0 30 1 46l86 1c2 0 2 1 2 3v207c-26 -5 -54 -10 -88 -17c-3 15 -6 32 -8 47c71 20 166 56 178 56c1 0 1 -1 1 -3c0 -89 -1 -200 -1 -293zM243 -17c-16 8 -34 16 -52 26c54 92 116 198 171 294c63 109 131 231 203 358
c18 -7 39 -16 56 -27c-73 -126 -148 -257 -207 -360c-50 -86 -123 -209 -171 -291zM739 239v-1c0 -66 -64 -118 -103 -146c-17 -14 -32 -23 -46 -32l1 -5c31 0 115 4 151 5c1 0 2 0 2 -2c0 -20 -1 -40 -3 -58h-172h-81c-4 13 -9 28 -13 42c42 27 62 42 90 66
c40 33 86 75 86 127c0 18 -6 31 -15 41c-8 10 -25 14 -38 14c-16 0 -31 -3 -41 -12c-2 -1 -3 -3 -3 -6l-10 -56c-19 1 -38 3 -56 4c2 36 4 69 6 100c26 11 68 20 114 20s79 -10 99 -28s32 -41 32 -73z" />
    <glyph glyph-name="plusminus" unicode="&#xb1;" horiz-adv-x="541" 
d="M237 333v151c23 2 51 4 73 4c-1 -41 -1 -94 -2 -154c62 1 123 1 174 2c0 -22 -1 -50 -3 -73h-171c-1 -50 -1 -104 -1 -138c-21 -2 -49 -3 -70 -3v141h-172c0 23 0 47 2 69c47 0 108 0 170 1zM478 2l-415 -3c0 22 1 49 3 70c122 1 295 0 414 1c0 -21 -1 -47 -2 -68z" />
    <glyph glyph-name="Thorn" unicode="&#xde;" horiz-adv-x="584" 
d="M115 69v516l-63 2c0 21 0 43 1 63h131h125c0 -19 0 -40 -1 -59l-73 -3c-3 0 -4 -1 -4 -4v-62h44c51 0 95 -3 140 -15c81 -24 131 -91 131 -164c0 -85 -54 -151 -117 -178c-46 -21 -103 -28 -147 -28h-53v-73l90 -2c0 -20 0 -42 -1 -62h-149h-117c0 20 0 42 1 62l58 3
c2 0 4 2 4 4zM231 456l-2 -247c3 -8 22 -9 48 -9c35 0 74 8 100 26c33 23 49 61 49 107c0 80 -58 127 -150 127c-22 0 -39 -2 -45 -4z" />
    <glyph glyph-name="onequarter" unicode="&#xbc;" horiz-adv-x="800" 
d="M249 360l80 -1c0 -15 -1 -31 -1 -46h-118h-132c0 14 0 30 1 46l86 1c2 0 2 1 2 3v207c-26 -5 -54 -10 -88 -17c-3 15 -6 32 -8 47c71 20 166 56 178 56c1 0 1 -1 1 -3c0 -89 -1 -200 -1 -293zM257 -17c-17 8 -35 16 -52 26c54 92 116 198 171 294c63 109 132 231 203 358
c19 -7 40 -16 57 -27c-73 -126 -149 -257 -208 -360c-50 -86 -123 -209 -171 -291zM684 41l42 -1v-40h-88h-95c0 12 0 27 1 39l67 2c2 0 3 1 3 2v37h-154c-8 16 -16 34 -23 50c26 32 48 61 79 101c37 46 62 78 86 106c29 0 57 -1 84 -2c0 -62 -1 -137 -1 -203h61
c0 -16 -1 -32 -2 -50h-60v-41zM615 269h-7c-21 -29 -36 -48 -54 -71c-18 -25 -35 -47 -44 -60c-2 -3 -1 -6 3 -6h101z" />
    <glyph glyph-name="divide" unicode="&#xf7;" horiz-adv-x="541" 
d="M214 396v1c0 32 24 58 58 58c33 0 55 -26 55 -58s-21 -60 -57 -60c-33 0 -56 27 -56 59zM477 203h-415c0 22 1 47 2 69c117 0 293 2 416 3c0 -22 -1 -50 -3 -72zM214 82v1c0 31 24 58 58 58c32 0 55 -25 55 -61c-1 -29 -20 -57 -55 -57c-36 0 -58 26 -58 59z" />
    <glyph glyph-name="brokenbar" unicode="&#xa6;" horiz-adv-x="541" 
d="M236 675h70v-350h-70v350zM236 175h70v-350h-70v350z" />
    <glyph glyph-name="degree" unicode="&#xb0;" horiz-adv-x="344" 
d="M173 655h1c75 0 123 -48 123 -115c0 -68 -55 -119 -124 -119c-68 0 -125 42 -125 115c0 62 52 119 125 119zM174 605h-1c-34 0 -56 -32 -56 -68c0 -40 25 -66 56 -66c36 0 55 29 55 67c0 39 -17 67 -54 67z" />
    <glyph glyph-name="thorn" unicode="&#xfe;" horiz-adv-x="534" 
d="M184 383h5c87 47 109 55 152 55c93 0 157 -97 157 -190c0 -45 -7 -88 -25 -130c-15 -35 -42 -68 -76 -95c-23 -17 -68 -33 -113 -33c-41 0 -70 7 -96 19l-6 -2c1 -53 1 -121 1 -176l87 -2c0 -20 -1 -41 -2 -60c-42 0 -94 0 -141 -1c-36 0 -79 0 -113 -1v59l54 4
c2 0 4 2 4 6v711l-72 2c0 19 0 40 1 59c46 6 174 27 184 27c2 0 2 -1 2 -3c0 -67 -2 -184 -3 -249zM378 215v1c0 41 -4 73 -18 97c-14 23 -37 41 -69 41c-27 0 -68 -13 -105 -39c-1 -67 -1 -151 -1 -215c-1 -21 47 -44 84 -44c26 0 54 9 71 30c23 27 38 65 38 129z" />
    <glyph glyph-name="threequarters" unicode="&#xbe;" horiz-adv-x="800" 
d="M132 416l11 -51c1 -3 2 -4 4 -6c7 -4 24 -7 35 -7c21 0 38 4 49 13c11 8 20 19 20 38c0 36 -29 56 -82 56h-37c-1 17 -1 32 -1 48c86 -1 113 23 113 57c0 14 -4 23 -12 30c-8 8 -22 11 -39 11c-13 0 -31 -4 -40 -10c-2 -2 -3 -3 -3 -5l-10 -49c-19 1 -37 2 -56 3
c2 32 3 61 4 89c30 11 71 19 116 19c40 0 75 -5 96 -22c17 -13 31 -34 31 -55c0 -40 -26 -68 -73 -81v-4c57 -8 82 -46 82 -81c0 -36 -18 -61 -44 -77c-23 -16 -62 -27 -120 -27c-35 0 -65 2 -92 8c-4 30 -7 61 -10 95c20 3 39 6 58 8zM251 -17c-17 8 -35 16 -53 26
c55 92 116 198 172 293c62 110 131 232 202 359c19 -7 40 -16 57 -27c-73 -126 -148 -257 -208 -360c-49 -86 -122 -209 -170 -291zM676 41l42 -1v-40h-88h-95c0 12 0 27 1 39l67 2c2 0 3 1 3 2v37h-153c-9 16 -17 34 -23 50c25 32 47 61 78 101c37 46 62 78 86 106
c29 0 57 -1 84 -2c0 -62 -1 -137 -1 -203h61c0 -16 -1 -32 -2 -50h-60v-41zM607 269h-7c-21 -29 -36 -48 -54 -71c-18 -25 -35 -47 -43 -60c-2 -3 -1 -6 3 -6h100z" />
    <glyph glyph-name="twosuperior" unicode="&#xb2;" 
d="M304 655v-1c0 -66 -64 -117 -103 -146c-17 -13 -32 -23 -46 -32l1 -5c31 0 115 4 151 5c1 0 2 0 2 -2c0 -20 -1 -40 -3 -58h-172h-81c-4 13 -9 28 -13 42c42 27 62 42 90 66c40 33 86 75 86 127c0 18 -6 31 -15 41c-8 10 -25 14 -38 14c-16 0 -31 -3 -41 -12
c-2 -1 -3 -3 -3 -6l-10 -56c-19 1 -38 3 -56 4c2 36 4 69 6 100c26 11 68 20 114 20s79 -10 99 -28s32 -41 32 -73z" />
    <glyph glyph-name="registered" unicode="&#xae;" horiz-adv-x="488" 
d="M246 660h1c111 0 193 -84 193 -194c0 -109 -87 -197 -198 -197c-112 0 -193 82 -193 193c0 109 86 198 197 198zM244 627h-1c-91 0 -155 -73 -155 -164c0 -92 64 -161 155 -161c92 0 157 72 157 163s-64 162 -156 162zM171 391v147h-20v30c26 1 52 1 77 1
c23 0 42 -1 59 -5c29 -7 44 -29 44 -49c0 -28 -20 -47 -43 -55v-5c14 -7 22 -22 37 -53c5 -9 8 -11 14 -11l14 -1v-29h-64c-10 14 -24 51 -33 69c-5 9 -14 10 -22 10h-10v-49l21 -1v-29h-94v29zM224 539v-69h10c28 0 43 15 43 36c0 24 -20 33 -42 33h-11z" />
    <glyph glyph-name="minus" unicode="&#x2212;" horiz-adv-x="541" 
d="M477 202h-414c0 22 1 47 2 69c116 0 292 2 415 3c0 -22 -1 -50 -3 -72z" />
    <glyph glyph-name="eth" unicode="&#xf0;" horiz-adv-x="518" 
d="M350 395l7 3c-16 55 -42 110 -80 149c-32 -24 -63 -47 -98 -74c-13 15 -25 30 -34 43c32 25 59 45 87 66c-33 29 -86 48 -139 55c4 19 8 39 13 57c73 -3 145 -30 190 -59c31 24 63 49 96 74c12 -14 25 -31 34 -46c-27 -20 -54 -41 -82 -61c73 -61 133 -180 133 -308
c0 -118 -30 -196 -82 -247c-35 -33 -86 -57 -153 -57c-44 0 -93 12 -126 38c-47 35 -79 94 -79 165c0 65 24 128 75 175c39 37 91 56 143 56c35 0 72 -9 95 -29zM253 48h1c28 0 54 15 71 37c27 37 38 96 38 161c0 39 -3 71 -16 85c-26 28 -58 33 -86 33
c-29 0 -56 -13 -75 -38c-20 -29 -30 -72 -30 -120c0 -62 13 -109 39 -134c16 -17 37 -24 58 -24z" />
    <glyph glyph-name="multiply" unicode="&#xd7;" horiz-adv-x="541" 
d="M321 234c56 -58 112 -117 158 -165c-13 -15 -32 -33 -48 -47c-47 49 -103 105 -160 163l-162 -162c-15 14 -34 32 -47 46c46 47 102 105 159 165c-52 53 -103 104 -147 148c16 18 37 38 54 53c41 -43 91 -95 143 -148c53 54 105 108 147 152c18 -14 39 -35 54 -53
c-45 -45 -97 -97 -151 -152z" />
    <glyph glyph-name="threesuperior" unicode="&#xb3;" 
d="M103 519l12 -51c1 -3 2 -4 4 -6c7 -4 23 -7 35 -7c21 0 38 4 48 13c12 8 20 19 20 38c0 36 -29 56 -81 56h-37c-1 17 -1 32 -1 48c86 -1 113 23 113 57c0 14 -4 23 -12 30c-9 8 -22 11 -40 11c-13 0 -31 -4 -40 -10c-2 -2 -3 -3 -3 -5l-9 -49c-19 1 -37 2 -57 3
c2 32 3 61 4 89c30 11 71 19 116 19c41 0 76 -6 97 -22c17 -13 31 -34 31 -55c0 -40 -26 -68 -74 -81v-4c57 -8 82 -46 82 -81c0 -36 -18 -61 -44 -77c-23 -16 -62 -27 -119 -27c-35 0 -65 2 -92 8c-4 30 -7 61 -11 95c20 3 39 6 58 8z" />
    <glyph glyph-name="copyright" unicode="&#xa9;" horiz-adv-x="759" 
d="M383 660h1c188 0 327 -144 327 -331s-147 -339 -335 -339s-327 144 -327 332c0 186 147 338 334 338zM380 617h-1c-160 0 -274 -134 -274 -294c0 -161 112 -290 274 -290c161 0 276 134 276 294c0 161 -113 290 -275 290zM455 378l-11 63c0 4 -2 7 -4 9c-8 5 -19 8 -35 8
c-24 0 -46 -6 -66 -25c-30 -29 -45 -64 -45 -118c0 -43 13 -73 32 -92c21 -21 50 -29 81 -29c29 0 70 10 93 21c4 -17 7 -34 9 -47c-40 -19 -86 -29 -119 -29c-43 0 -87 10 -118 34c-36 26 -63 73 -63 130c0 76 36 129 75 162c38 30 91 44 137 44c34 0 64 -5 77 -11
c3 -35 6 -73 7 -113c-15 -3 -32 -5 -50 -7z" />
    <glyph glyph-name="Aacute" unicode="&#xc1;" horiz-adv-x="619" 
d="M-11 62l51 3c3 0 5 2 6 5c66 171 157 414 222 586c14 1 46 2 90 2c63 -175 146 -420 207 -593l57 -2c0 -21 0 -42 -1 -63h-105h-144c0 21 0 42 1 62l66 3c2 1 4 3 2 5c-11 33 -26 79 -38 110c-1 3 -3 4 -6 4l-217 -1c-12 -37 -27 -82 -38 -118l75 -2c0 -21 0 -42 -1 -63
h-136h-92c0 21 0 42 1 62zM296 514h-5c-29 -83 -62 -181 -90 -261c-1 -4 -1 -6 2 -6h181c-27 80 -60 181 -88 267zM399 865c15 -19 32 -45 45 -67c-55 -29 -125 -68 -181 -97c-10 14 -21 30 -29 44c49 36 114 83 165 120z" />
    <glyph glyph-name="Acircumflex" unicode="&#xc2;" horiz-adv-x="619" 
d="M-11 62l51 3c3 0 5 2 6 5c66 171 157 414 222 586c14 1 46 2 90 2c63 -175 146 -420 207 -593l57 -2c0 -21 0 -42 -1 -63h-105h-144c0 21 0 42 1 62l66 3c2 1 4 3 2 5c-11 33 -26 79 -38 110c-1 3 -3 4 -6 4l-217 -1c-12 -37 -27 -82 -38 -118l75 -2c0 -21 0 -42 -1 -63
h-136h-92c0 21 0 42 1 62zM296 514h-5c-29 -83 -62 -181 -90 -261c-1 -4 -1 -6 2 -6h181c-27 80 -60 181 -88 267zM318 778c-39 -24 -83 -51 -117 -73c-11 11 -22 25 -32 38c43 35 88 72 129 106c12 1 28 1 39 1c40 -32 90 -73 129 -105c-9 -14 -21 -28 -33 -40
c-34 22 -77 49 -115 73z" />
    <glyph glyph-name="Adieresis" unicode="&#xc4;" horiz-adv-x="619" 
d="M-11 62l51 3c3 0 5 2 6 5c66 171 157 414 222 586c14 1 46 2 90 2c63 -175 146 -420 207 -593l57 -2c0 -21 0 -42 -1 -63h-105h-144c0 21 0 42 1 62l66 3c2 1 4 3 2 5c-11 33 -26 79 -38 110c-1 3 -3 4 -6 4l-217 -1c-12 -37 -27 -82 -38 -118l75 -2c0 -21 0 -42 -1 -63
h-136h-92c0 21 0 42 1 62zM296 514h-5c-29 -83 -62 -181 -90 -261c-1 -4 -1 -6 2 -6h181c-27 80 -60 181 -88 267zM225 816h1c33 0 49 -27 49 -50c0 -28 -20 -51 -52 -51c-28 0 -51 21 -51 51c0 23 17 50 53 50zM409 816h1c34 0 51 -27 51 -50c0 -30 -23 -51 -50 -51
c-33 0 -53 23 -53 51c0 23 16 50 51 50z" />
    <glyph glyph-name="Agrave" unicode="&#xc0;" horiz-adv-x="619" 
d="M-11 62l51 3c3 0 5 2 6 5c66 171 157 414 222 586c14 1 46 2 90 2c63 -175 146 -420 207 -593l57 -2c0 -21 0 -42 -1 -63h-105h-144c0 21 0 42 1 62l66 3c2 1 4 3 2 5c-11 33 -26 79 -38 110c-1 3 -3 4 -6 4l-217 -1c-12 -37 -27 -82 -38 -118l75 -2c0 -21 0 -42 -1 -63
h-136h-92c0 21 0 42 1 62zM296 514h-5c-29 -83 -62 -181 -90 -261c-1 -4 -1 -6 2 -6h181c-27 80 -60 181 -88 267zM220 865c52 -37 116 -84 165 -120c-8 -14 -19 -30 -29 -44c-56 29 -125 67 -181 97c13 22 30 48 45 67z" />
    <glyph glyph-name="Aring" unicode="&#xc5;" horiz-adv-x="619" 
d="M-11 62l51 3c3 0 5 2 6 5c66 171 157 414 222 586c14 1 46 2 90 2c63 -175 146 -420 207 -593l57 -2c0 -21 0 -42 -1 -63h-105h-144c0 21 0 42 1 62l66 3c2 1 4 3 2 5c-11 33 -26 79 -38 110c-1 3 -3 4 -6 4l-217 -1c-12 -37 -27 -82 -38 -118l75 -2c0 -21 0 -42 -1 -63
h-136h-92c0 21 0 42 1 62zM296 514h-5c-29 -83 -62 -181 -90 -261c-1 -4 -1 -6 2 -6h181c-27 80 -60 181 -88 267zM312 885h1c64 0 108 -39 108 -92c0 -54 -48 -94 -109 -94s-109 33 -109 92c0 47 45 94 109 94zM313 842h-1c-29 0 -49 -23 -49 -51c0 -29 22 -49 50 -49
c30 0 47 21 47 50s-17 50 -47 50z" />
    <glyph glyph-name="Atilde" unicode="&#xc3;" horiz-adv-x="619" 
d="M-11 62l51 3c3 0 5 2 6 5c66 171 157 414 222 586c14 1 46 2 90 2c63 -175 146 -420 207 -593l57 -2c0 -21 0 -42 -1 -63h-105h-144c0 21 0 42 1 62l66 3c2 1 4 3 2 5c-11 33 -26 79 -38 110c-1 3 -3 4 -6 4l-217 -1c-12 -37 -27 -82 -38 -118l75 -2c0 -21 0 -42 -1 -63
h-136h-92c0 21 0 42 1 62zM296 514h-5c-29 -83 -62 -181 -90 -261c-1 -4 -1 -6 2 -6h181c-27 80 -60 181 -88 267zM254 825h1c28 0 50 -13 72 -26c22 -12 38 -22 56 -22c20 0 34 19 36 45c14 1 32 1 47 0c-2 -55 -28 -112 -86 -112c-26 0 -47 14 -69 27
c-23 12 -37 22 -59 22c-19 0 -35 -18 -38 -44c-14 -1 -32 -1 -46 0c2 57 37 110 86 110z" />
    <glyph glyph-name="Ccedilla" unicode="&#xc7;" horiz-adv-x="596" 
d="M269 -80l75 71h-7c-61 0 -130 20 -181 59c-64 48 -110 133 -110 237c0 140 62 237 135 296c69 56 157 77 234 77c58 0 106 -8 130 -18c5 -61 9 -123 12 -184c-24 -4 -51 -7 -77 -10l-20 106c-1 7 -3 12 -7 14c-17 11 -39 16 -67 16c-46 0 -94 -16 -132 -54
c-50 -52 -80 -125 -80 -215c0 -86 16 -142 60 -188c35 -38 91 -57 146 -57c54 0 130 18 168 31c6 -21 11 -47 14 -69c-48 -18 -100 -31 -146 -37l-66 -65c50 -7 73 -34 73 -70c0 -54 -57 -100 -156 -100c-4 14 -6 31 -7 45c48 2 85 15 85 47c0 11 -6 23 -14 29
c-12 9 -26 11 -51 11c-4 10 -8 20 -11 28z" />
    <glyph glyph-name="Eacute" unicode="&#xc9;" horiz-adv-x="566" 
d="M51 62l61 3c3 0 4 2 4 4v516l-67 2c0 21 1 43 2 63h122h227h91c4 -53 7 -107 9 -162c-21 -2 -47 -6 -71 -8l-16 83c-2 9 -7 15 -22 17c-21 2 -72 5 -136 5h-21l-1 -222c46 1 85 1 128 2c13 0 17 7 19 19l5 44c23 0 48 0 69 -1c-1 -31 -1 -65 -2 -99v-95
c-22 -1 -46 -2 -69 -2l-4 47c-1 15 -7 20 -21 20c-38 1 -79 2 -125 1l-1 -213c0 -18 4 -21 54 -21c64 0 108 3 123 7c10 2 15 8 19 19l31 87c24 -4 49 -9 71 -14c-11 -54 -23 -110 -36 -165c-48 1 -181 1 -318 1h-126c0 20 0 42 1 62zM383 865c15 -19 32 -45 45 -67
c-55 -29 -125 -68 -181 -97c-10 14 -21 30 -29 44c49 36 114 83 165 120z" />
    <glyph glyph-name="Ecircumflex" unicode="&#xca;" horiz-adv-x="566" 
d="M51 62l61 3c3 0 4 2 4 4v516l-67 2c0 21 1 43 2 63h122h227h91c4 -53 7 -107 9 -162c-21 -2 -47 -6 -71 -8l-16 83c-2 9 -7 15 -22 17c-21 2 -72 5 -136 5h-21l-1 -222c46 1 85 1 128 2c13 0 17 7 19 19l5 44c23 0 48 0 69 -1c-1 -31 -1 -65 -2 -99v-95
c-22 -1 -46 -2 -69 -2l-4 47c-1 15 -7 20 -21 20c-38 1 -79 2 -125 1l-1 -213c0 -18 4 -21 54 -21c64 0 108 3 123 7c10 2 15 8 19 19l31 87c24 -4 49 -9 71 -14c-11 -54 -23 -110 -36 -165c-48 1 -181 1 -318 1h-126c0 20 0 42 1 62zM285 779c-39 -24 -83 -51 -117 -73
c-11 11 -22 25 -32 38c43 35 88 72 129 106c12 1 28 1 39 1c40 -32 90 -73 129 -105c-9 -14 -21 -28 -33 -40c-34 22 -77 49 -115 73z" />
    <glyph glyph-name="Edieresis" unicode="&#xcb;" horiz-adv-x="566" 
d="M51 62l61 3c3 0 4 2 4 4v516l-67 2c0 21 1 43 2 63h122h227h91c4 -53 7 -107 9 -162c-21 -2 -47 -6 -71 -8l-16 83c-2 9 -7 15 -22 17c-21 2 -72 5 -136 5h-21l-1 -222c46 1 85 1 128 2c13 0 17 7 19 19l5 44c23 0 48 0 69 -1c-1 -31 -1 -65 -2 -99v-95
c-22 -1 -46 -2 -69 -2l-4 47c-1 15 -7 20 -21 20c-38 1 -79 2 -125 1l-1 -213c0 -18 4 -21 54 -21c64 0 108 3 123 7c10 2 15 8 19 19l31 87c24 -4 49 -9 71 -14c-11 -54 -23 -110 -36 -165c-48 1 -181 1 -318 1h-126c0 20 0 42 1 62zM190 817h1c33 0 49 -27 49 -50
c0 -28 -20 -51 -52 -51c-28 0 -51 21 -51 51c0 23 17 50 53 50zM374 817h1c34 0 51 -27 51 -50c0 -30 -23 -51 -50 -51c-33 0 -53 23 -53 51c0 23 16 50 51 50z" />
    <glyph glyph-name="Egrave" unicode="&#xc8;" horiz-adv-x="566" 
d="M51 62l61 3c3 0 4 2 4 4v516l-67 2c0 21 1 43 2 63h122h227h91c4 -53 7 -107 9 -162c-21 -2 -47 -6 -71 -8l-16 83c-2 9 -7 15 -22 17c-21 2 -72 5 -136 5h-21l-1 -222c46 1 85 1 128 2c13 0 17 7 19 19l5 44c23 0 48 0 69 -1c-1 -31 -1 -65 -2 -99v-95
c-22 -1 -46 -2 -69 -2l-4 47c-1 15 -7 20 -21 20c-38 1 -79 2 -125 1l-1 -213c0 -18 4 -21 54 -21c64 0 108 3 123 7c10 2 15 8 19 19l31 87c24 -4 49 -9 71 -14c-11 -54 -23 -110 -36 -165c-48 1 -181 1 -318 1h-126c0 20 0 42 1 62zM211 865c52 -37 116 -84 165 -120
c-8 -14 -19 -30 -29 -44c-56 29 -125 67 -181 97c13 22 30 48 45 67z" />
    <glyph glyph-name="Iacute" unicode="&#xcd;" horiz-adv-x="348" 
d="M116 584l-71 3c0 20 0 43 1 63c38 0 92 -1 135 -1s92 1 130 1c0 -20 0 -43 -1 -63l-72 -3c-2 0 -2 -1 -2 -4l-3 -513l77 -3c1 -21 0 -43 -1 -64c-37 0 -88 1 -132 1c-42 0 -91 -1 -132 -1c0 21 0 43 1 63l67 3c2 0 3 2 3 4v514zM263 865c15 -19 32 -45 45 -67
c-55 -29 -125 -68 -181 -97c-10 14 -21 30 -29 44c49 36 114 83 165 120z" />
    <glyph glyph-name="Icircumflex" unicode="&#xce;" horiz-adv-x="348" 
d="M116 584l-71 3c0 20 0 43 1 63c38 0 92 -1 135 -1s92 1 130 1c0 -20 0 -43 -1 -63l-72 -3c-2 0 -2 -1 -2 -4l-3 -513l77 -3c1 -21 0 -43 -1 -64c-37 0 -88 1 -132 1c-42 0 -91 -1 -132 -1c0 21 0 43 1 63l67 3c2 0 3 2 3 4v514zM180 779c-39 -24 -83 -51 -117 -73
c-11 11 -22 25 -32 38c43 35 88 72 129 106c12 1 28 1 39 1c40 -32 90 -73 129 -105c-9 -14 -21 -28 -33 -40c-34 22 -77 49 -115 73z" />
    <glyph glyph-name="Idieresis" unicode="&#xcf;" horiz-adv-x="348" 
d="M116 584l-71 3c0 20 0 43 1 63c38 0 92 -1 135 -1s92 1 130 1c0 -20 0 -43 -1 -63l-72 -3c-2 0 -2 -1 -2 -4l-3 -513l77 -3c1 -21 0 -43 -1 -64c-37 0 -88 1 -132 1c-42 0 -91 -1 -132 -1c0 21 0 43 1 63l67 3c2 0 3 2 3 4v514zM90 817h1c33 0 49 -27 49 -50
c0 -28 -20 -51 -52 -51c-28 0 -51 21 -51 51c0 23 17 50 53 50zM274 817h1c34 0 51 -27 51 -50c0 -30 -23 -51 -50 -51c-33 0 -53 23 -53 51c0 23 16 50 51 50z" />
    <glyph glyph-name="Igrave" unicode="&#xcc;" horiz-adv-x="348" 
d="M116 584l-71 3c0 20 0 43 1 63c38 0 92 -1 135 -1s92 1 130 1c0 -20 0 -43 -1 -63l-72 -3c-2 0 -2 -1 -2 -4l-3 -513l77 -3c1 -21 0 -43 -1 -64c-37 0 -88 1 -132 1c-42 0 -91 -1 -132 -1c0 21 0 43 1 63l67 3c2 0 3 2 3 4v514zM94 865c52 -37 116 -84 165 -120
c-8 -14 -19 -30 -29 -44c-56 29 -125 67 -181 97c13 22 30 48 45 67z" />
    <glyph glyph-name="Ntilde" unicode="&#xd1;" horiz-adv-x="716" 
d="M44 63l58 3c2 0 4 1 4 4l-1 515l-67 2c0 20 0 43 1 62h165c98 -143 229 -341 328 -495l6 1c-1 143 -2 287 -4 430l-85 1c0 21 1 43 1 63h127c34 0 72 1 100 1c1 -20 0 -42 0 -62l-54 -3c-2 0 -3 -1 -3 -5l-4 -574c-16 -7 -50 -14 -82 -14c-88 116 -216 292 -339 478h-7
c0 -136 -1 -269 -1 -404l89 -2c0 -20 -1 -43 -1 -64c-41 0 -91 1 -137 1c-33 0 -67 -1 -95 -1c0 20 0 43 1 63zM311 825h1c28 0 50 -13 72 -26c22 -12 38 -22 56 -22c20 0 34 19 36 45c14 1 32 1 47 0c-2 -55 -28 -112 -86 -112c-26 0 -47 14 -69 27c-23 12 -37 22 -59 22
c-19 0 -35 -18 -38 -44c-14 -1 -32 -1 -46 0c2 57 37 110 86 110z" />
    <glyph glyph-name="Oacute" unicode="&#xd3;" horiz-adv-x="725" 
d="M348 -10h-1c-88 0 -162 33 -211 83c-58 59 -90 140 -90 246c0 130 65 234 143 286c61 39 122 55 194 55c63 0 120 -16 171 -50c74 -50 124 -151 124 -267c0 -101 -34 -203 -104 -270c-56 -54 -128 -83 -226 -83zM365 55h1c47 0 89 15 121 53c37 45 62 114 62 213
c0 88 -20 164 -58 214c-31 41 -72 60 -122 60c-49 0 -89 -16 -120 -48c-40 -40 -73 -115 -73 -219c0 -100 18 -168 63 -218c35 -39 80 -55 126 -55zM467 868c15 -19 32 -45 45 -67c-55 -29 -125 -68 -181 -97c-10 14 -21 30 -29 44c49 36 114 83 165 120z" />
    <glyph glyph-name="Ocircumflex" unicode="&#xd4;" horiz-adv-x="725" 
d="M348 -10h-1c-88 0 -162 33 -211 83c-58 59 -90 140 -90 246c0 130 65 234 143 286c61 39 122 55 194 55c63 0 120 -16 171 -50c74 -50 124 -151 124 -267c0 -101 -34 -203 -104 -270c-56 -54 -128 -83 -226 -83zM365 55h1c47 0 89 15 121 53c37 45 62 114 62 213
c0 88 -20 164 -58 214c-31 41 -72 60 -122 60c-49 0 -89 -16 -120 -48c-40 -40 -73 -115 -73 -219c0 -100 18 -168 63 -218c35 -39 80 -55 126 -55zM380 779c-39 -24 -83 -51 -117 -73c-11 11 -22 25 -32 38c43 35 88 72 129 106c12 1 28 1 39 1c40 -32 90 -73 129 -105
c-9 -14 -21 -28 -33 -40c-34 22 -77 49 -115 73z" />
    <glyph glyph-name="Odieresis" unicode="&#xd6;" horiz-adv-x="725" 
d="M348 -10h-1c-88 0 -162 33 -211 83c-58 59 -90 140 -90 246c0 130 65 234 143 286c61 39 122 55 194 55c63 0 120 -16 171 -50c74 -50 124 -151 124 -267c0 -101 -34 -203 -104 -270c-56 -54 -128 -83 -226 -83zM365 55h1c47 0 89 15 121 53c37 45 62 114 62 213
c0 88 -20 164 -58 214c-31 41 -72 60 -122 60c-49 0 -89 -16 -120 -48c-40 -40 -73 -115 -73 -219c0 -100 18 -168 63 -218c35 -39 80 -55 126 -55zM289 817h1c33 0 49 -27 49 -50c0 -28 -20 -51 -52 -51c-28 0 -51 21 -51 51c0 23 17 50 53 50zM473 817h1
c34 0 51 -27 51 -50c0 -30 -23 -51 -50 -51c-33 0 -53 23 -53 51c0 23 16 50 51 50z" />
    <glyph glyph-name="Ograve" unicode="&#xd2;" horiz-adv-x="725" 
d="M348 -10h-1c-88 0 -162 33 -211 83c-58 59 -90 140 -90 246c0 130 65 234 143 286c61 39 122 55 194 55c63 0 120 -16 171 -50c74 -50 124 -151 124 -267c0 -101 -34 -203 -104 -270c-56 -54 -128 -83 -226 -83zM365 55h1c47 0 89 15 121 53c37 45 62 114 62 213
c0 88 -20 164 -58 214c-31 41 -72 60 -122 60c-49 0 -89 -16 -120 -48c-40 -40 -73 -115 -73 -219c0 -100 18 -168 63 -218c35 -39 80 -55 126 -55zM292 868c52 -37 116 -84 165 -120c-8 -14 -19 -30 -29 -44c-56 29 -125 67 -181 97c13 22 30 48 45 67z" />
    <glyph glyph-name="Otilde" unicode="&#xd5;" horiz-adv-x="725" 
d="M348 -10h-1c-88 0 -162 33 -211 83c-58 59 -90 140 -90 246c0 130 65 234 143 286c61 39 122 55 194 55c63 0 120 -16 171 -50c74 -50 124 -151 124 -267c0 -101 -34 -203 -104 -270c-56 -54 -128 -83 -226 -83zM365 55h1c47 0 89 15 121 53c37 45 62 114 62 213
c0 88 -20 164 -58 214c-31 41 -72 60 -122 60c-49 0 -89 -16 -120 -48c-40 -40 -73 -115 -73 -219c0 -100 18 -168 63 -218c35 -39 80 -55 126 -55zM317 828h1c28 0 50 -13 72 -26c22 -12 38 -22 56 -22c20 0 34 19 36 45c14 1 32 1 47 0c-2 -55 -28 -112 -86 -112
c-26 0 -47 14 -69 27c-23 12 -37 22 -59 22c-19 0 -35 -18 -38 -44c-14 -1 -32 -1 -46 0c2 57 37 110 86 110z" />
    <glyph glyph-name="Scaron" unicode="&#x160;" horiz-adv-x="511" 
d="M115 194l22 -102c1 -5 3 -9 7 -11c19 -13 51 -21 82 -21c37 0 75 11 95 31c19 19 28 41 28 70c0 70 -37 84 -126 122c-93 39 -163 91 -163 183c0 58 29 108 67 140c40 34 103 54 183 54c50 0 103 -9 127 -21c6 -53 9 -109 13 -162c-23 -3 -50 -7 -75 -9l-20 93
c-2 5 -3 8 -6 10c-14 12 -38 18 -64 18c-30 0 -58 -8 -79 -25c-17 -14 -33 -39 -33 -72c0 -61 28 -75 127 -115c104 -42 162 -91 162 -183c0 -59 -23 -112 -65 -148c-44 -37 -105 -56 -193 -56c-46 0 -112 8 -150 22c-6 56 -11 114 -16 170c24 5 52 9 77 12zM282 784
c39 24 83 52 116 74c12 -11 23 -26 33 -40c-39 -31 -89 -73 -130 -106c-11 0 -27 0 -39 1c-40 34 -85 71 -128 105c10 14 21 28 32 39c34 -22 78 -49 116 -73z" />
    <glyph glyph-name="Uacute" unicode="&#xda;" horiz-adv-x="672" 
d="M214 585l-2 -318c-1 -90 14 -127 39 -159c19 -23 49 -44 103 -44c52 0 78 20 99 42c24 25 42 82 42 163c0 90 0 218 -1 312c0 2 -1 3 -4 3l-78 3c0 20 1 42 1 62h124c38 0 77 1 110 1c0 -20 0 -42 -1 -63l-57 -3l-2 -308c-1 -114 -35 -184 -72 -222
c-33 -34 -84 -64 -171 -64c-78 0 -138 17 -183 59c-57 54 -68 129 -68 212v318c0 4 -1 6 -5 6l-54 2c0 21 0 43 1 63c35 0 82 -1 121 -1c48 0 97 1 139 1c0 -20 0 -43 -1 -63zM449 865c15 -19 32 -45 45 -67c-55 -29 -125 -68 -181 -97c-10 14 -21 30 -29 44
c49 36 114 83 165 120z" />
    <glyph glyph-name="Ucircumflex" unicode="&#xdb;" horiz-adv-x="672" 
d="M214 585l-2 -318c-1 -90 14 -127 39 -159c19 -23 49 -44 103 -44c52 0 78 20 99 42c24 25 42 82 42 163c0 90 0 218 -1 312c0 2 -1 3 -4 3l-78 3c0 20 1 42 1 62h124c38 0 77 1 110 1c0 -20 0 -42 -1 -63l-57 -3l-2 -308c-1 -114 -35 -184 -72 -222
c-33 -34 -84 -64 -171 -64c-78 0 -138 17 -183 59c-57 54 -68 129 -68 212v318c0 4 -1 6 -5 6l-54 2c0 21 0 43 1 63c35 0 82 -1 121 -1c48 0 97 1 139 1c0 -20 0 -43 -1 -63zM360 779c-39 -24 -83 -51 -117 -73c-11 11 -22 25 -32 38c43 35 88 72 129 106c12 1 28 1 39 1
c40 -32 90 -73 129 -105c-9 -14 -21 -28 -33 -40c-34 22 -77 49 -115 73z" />
    <glyph glyph-name="Udieresis" unicode="&#xdc;" horiz-adv-x="672" 
d="M214 585l-2 -318c-1 -90 14 -127 39 -159c19 -23 49 -44 103 -44c52 0 78 20 99 42c24 25 42 82 42 163c0 90 0 218 -1 312c0 2 -1 3 -4 3l-78 3c0 20 1 42 1 62h124c38 0 77 1 110 1c0 -20 0 -42 -1 -63l-57 -3l-2 -308c-1 -114 -35 -184 -72 -222
c-33 -34 -84 -64 -171 -64c-78 0 -138 17 -183 59c-57 54 -68 129 -68 212v318c0 4 -1 6 -5 6l-54 2c0 21 0 43 1 63c35 0 82 -1 121 -1c48 0 97 1 139 1c0 -20 0 -43 -1 -63zM268 817h1c33 0 49 -27 49 -50c0 -28 -20 -51 -52 -51c-28 0 -51 21 -51 51c0 23 17 50 53 50z
M452 817h1c34 0 51 -27 51 -50c0 -30 -23 -51 -50 -51c-33 0 -53 23 -53 51c0 23 16 50 51 50z" />
    <glyph glyph-name="Ugrave" unicode="&#xd9;" horiz-adv-x="672" 
d="M214 585l-2 -318c-1 -90 14 -127 39 -159c19 -23 49 -44 103 -44c52 0 78 20 99 42c24 25 42 82 42 163c0 90 0 218 -1 312c0 2 -1 3 -4 3l-78 3c0 20 1 42 1 62h124c38 0 77 1 110 1c0 -20 0 -42 -1 -63l-57 -3l-2 -308c-1 -114 -35 -184 -72 -222
c-33 -34 -84 -64 -171 -64c-78 0 -138 17 -183 59c-57 54 -68 129 -68 212v318c0 4 -1 6 -5 6l-54 2c0 21 0 43 1 63c35 0 82 -1 121 -1c48 0 97 1 139 1c0 -20 0 -43 -1 -63zM282 865c52 -37 116 -84 165 -120c-8 -14 -19 -30 -29 -44c-56 29 -125 67 -181 97
c13 22 30 48 45 67z" />
    <glyph glyph-name="Yacute" unicode="&#xdd;" horiz-adv-x="588" 
d="M157 63l72 3c4 0 5 2 5 5v176c-52 92 -129 235 -182 333c-1 2 -3 4 -5 4l-47 3c0 20 0 43 1 62h110c54 0 111 1 156 1c0 -20 0 -43 -1 -63l-77 -4c33 -73 88 -183 128 -261h5c36 66 101 192 129 257c1 2 -1 4 -3 4l-70 3c0 20 0 43 1 63h132c29 0 62 1 87 1
c0 -20 0 -43 -1 -63l-48 -3c-56 -94 -136 -236 -197 -335l-1 -182l84 -3c0 -21 0 -43 -1 -64c-39 0 -93 1 -140 1c-43 0 -94 -1 -138 -1c0 21 0 43 1 63zM427 865c15 -19 32 -45 45 -67c-55 -29 -125 -68 -181 -97c-10 14 -21 30 -29 44c49 36 114 83 165 120z" />
    <glyph glyph-name="Ydieresis" unicode="&#x178;" horiz-adv-x="588" 
d="M157 63l72 3c4 0 5 2 5 5v176c-52 92 -129 235 -182 333c-1 2 -3 4 -5 4l-47 3c0 20 0 43 1 62h110c54 0 111 1 156 1c0 -20 0 -43 -1 -63l-77 -4c33 -73 88 -183 128 -261h5c36 66 101 192 129 257c1 2 -1 4 -3 4l-70 3c0 20 0 43 1 63h132c29 0 62 1 87 1
c0 -20 0 -43 -1 -63l-48 -3c-56 -94 -136 -236 -197 -335l-1 -182l84 -3c0 -21 0 -43 -1 -64c-39 0 -93 1 -140 1c-43 0 -94 -1 -138 -1c0 21 0 43 1 63zM235 817h1c33 0 49 -27 49 -50c0 -28 -20 -51 -52 -51c-28 0 -51 21 -51 51c0 23 17 50 53 50zM419 817h1
c34 0 51 -27 51 -50c0 -30 -23 -51 -50 -51c-33 0 -53 23 -53 51c0 23 16 50 51 50z" />
    <glyph glyph-name="Zcaron" unicode="&#x17d;" horiz-adv-x="592" 
d="M168 76l1 -4c130 0 214 1 254 10c14 4 23 12 29 28l32 96c26 -4 55 -9 78 -14c-14 -64 -29 -130 -45 -193c-18 0 -159 1 -298 1h-168c-9 18 -17 40 -24 59c124 161 271 363 382 514l-2 5h-123c-62 0 -83 -1 -100 -4c-9 -3 -17 -12 -21 -24l-33 -103c-25 4 -53 9 -77 14
c11 63 23 128 35 190c12 0 64 -1 97 -2h338c9 -24 18 -53 24 -79c-153 -207 -288 -382 -379 -494zM318 784c39 24 83 52 116 74c12 -11 23 -26 33 -40c-39 -31 -89 -73 -130 -106c-11 0 -27 0 -39 1c-40 34 -85 71 -128 105c10 14 21 28 32 39c34 -22 78 -49 116 -73z" />
    <glyph glyph-name="aacute" unicode="&#xe1;" horiz-adv-x="483" 
d="M297 35h-5c-68 -35 -110 -45 -146 -45c-51 0 -120 46 -120 106c0 56 63 141 207 141h61c3 82 -20 119 -74 119c-39 0 -86 -29 -123 -62c-14 16 -29 34 -42 52c55 49 119 92 205 92c76 0 143 -57 143 -157c0 -55 -2 -164 -2 -206c0 -9 2 -13 7 -12l61 2c0 -18 1 -40 0 -59
c-15 -5 -77 -16 -137 -16c-10 9 -21 25 -35 45zM140 108v-1c0 -27 27 -46 58 -46c28 0 64 13 93 33c2 2 2 4 2 7v79c-5 0 -21 1 -41 1c-79 0 -112 -34 -112 -73zM329 662c19 -17 37 -38 53 -57c-54 -41 -111 -86 -162 -124c-11 12 -23 26 -35 40c46 44 98 97 144 141z" />
    <glyph glyph-name="acircumflex" unicode="&#xe2;" horiz-adv-x="483" 
d="M297 35h-5c-68 -35 -110 -45 -146 -45c-51 0 -120 46 -120 106c0 56 63 141 207 141h61c3 82 -20 119 -74 119c-39 0 -86 -29 -123 -62c-14 16 -29 34 -42 52c55 49 119 92 205 92c76 0 143 -57 143 -157c0 -55 -2 -164 -2 -206c0 -9 2 -13 7 -12l61 2c0 -18 1 -40 0 -59
c-15 -5 -77 -16 -137 -16c-10 9 -21 25 -35 45zM140 108v-1c0 -27 27 -46 58 -46c28 0 64 13 93 33c2 2 2 4 2 7v79c-5 0 -21 1 -41 1c-79 0 -112 -34 -112 -73zM244 573c-32 -30 -68 -65 -98 -94c-12 10 -26 22 -38 33c37 43 78 92 112 131c16 1 34 1 48 1
c33 -37 79 -93 112 -131c-11 -11 -24 -24 -37 -34c-29 28 -66 63 -99 94z" />
    <glyph glyph-name="adieresis" unicode="&#xe4;" horiz-adv-x="483" 
d="M297 35h-5c-68 -35 -110 -45 -146 -45c-51 0 -120 46 -120 106c0 56 63 141 207 141h61c3 82 -20 119 -74 119c-39 0 -86 -29 -123 -62c-14 16 -29 34 -42 52c55 49 119 92 205 92c76 0 143 -57 143 -157c0 -55 -2 -164 -2 -206c0 -9 2 -13 7 -12l61 2c0 -18 1 -40 0 -59
c-15 -5 -77 -16 -137 -16c-10 9 -21 25 -35 45zM140 108v-1c0 -27 27 -46 58 -46c28 0 64 13 93 33c2 2 2 4 2 7v79c-5 0 -21 1 -41 1c-79 0 -112 -34 -112 -73zM154 601h1c34 0 49 -27 49 -50c0 -27 -19 -50 -51 -50c-28 0 -51 21 -51 50c0 23 18 50 52 50zM324 601h1
c32 0 50 -27 50 -50c0 -29 -23 -50 -51 -50c-32 0 -51 23 -51 50c0 23 15 50 51 50z" />
    <glyph glyph-name="agrave" unicode="&#xe0;" horiz-adv-x="483" 
d="M297 35h-5c-68 -35 -110 -45 -146 -45c-51 0 -120 46 -120 106c0 56 63 141 207 141h61c3 82 -20 119 -74 119c-39 0 -86 -29 -123 -62c-14 16 -29 34 -42 52c55 49 119 92 205 92c76 0 143 -57 143 -157c0 -55 -2 -164 -2 -206c0 -9 2 -13 7 -12l61 2c0 -18 1 -40 0 -59
c-15 -5 -77 -16 -137 -16c-10 9 -21 25 -35 45zM140 108v-1c0 -27 27 -46 58 -46c28 0 64 13 93 33c2 2 2 4 2 7v79c-5 0 -21 1 -41 1c-79 0 -112 -34 -112 -73zM178 663c44 -44 97 -99 140 -141c-11 -14 -24 -28 -36 -40c-48 38 -106 85 -157 124c16 19 35 40 53 57z" />
    <glyph glyph-name="aring" unicode="&#xe5;" horiz-adv-x="483" 
d="M297 35h-5c-68 -35 -110 -45 -146 -45c-51 0 -120 46 -120 106c0 56 63 141 207 141h61c3 82 -20 119 -74 119c-39 0 -86 -29 -123 -62c-14 16 -29 34 -42 52c55 49 119 92 205 92c76 0 143 -57 143 -157c0 -55 -2 -164 -2 -206c0 -9 2 -13 7 -12l61 2c0 -18 1 -40 0 -59
c-15 -5 -77 -16 -137 -16c-10 9 -21 25 -35 45zM140 108v-1c0 -27 27 -46 58 -46c28 0 64 13 93 33c2 2 2 4 2 7v79c-5 0 -21 1 -41 1c-79 0 -112 -34 -112 -73zM245 676h1c62 0 103 -38 103 -89c0 -53 -45 -94 -105 -94c-58 0 -106 35 -106 92c0 45 45 91 107 91zM245 634
h-1c-29 0 -48 -23 -48 -50c0 -28 22 -49 49 -49c32 0 47 22 47 50c0 29 -16 49 -47 49z" />
    <glyph glyph-name="atilde" unicode="&#xe3;" horiz-adv-x="483" 
d="M297 35h-5c-68 -35 -110 -45 -146 -45c-51 0 -120 46 -120 106c0 56 63 141 207 141h61c3 82 -20 119 -74 119c-39 0 -86 -29 -123 -62c-14 16 -29 34 -42 52c55 49 119 92 205 92c76 0 143 -57 143 -157c0 -55 -2 -164 -2 -206c0 -9 2 -13 7 -12l61 2c0 -18 1 -40 0 -59
c-15 -5 -77 -16 -137 -16c-10 9 -21 25 -35 45zM140 108v-1c0 -27 27 -46 58 -46c28 0 64 13 93 33c2 2 2 4 2 7v79c-5 0 -21 1 -41 1c-79 0 -112 -34 -112 -73zM178 614h1c29 0 50 -18 71 -32c18 -12 30 -23 49 -23s29 18 33 51c16 1 31 1 45 0c-3 -61 -24 -114 -80 -114
c-25 0 -45 15 -65 29c-21 14 -35 27 -55 27s-31 -21 -36 -51c-15 -1 -31 0 -45 0c5 61 29 113 82 113z" />
    <glyph glyph-name="ccedilla" unicode="&#xe7;" horiz-adv-x="419" 
d="M150 -73l71 64h-6c-64 0 -179 54 -179 195c0 144 105 252 262 252c40 0 81 -10 100 -22c0 -22 -25 -74 -41 -83c-10 4 -55 27 -95 27c-32 0 -55 -11 -73 -34c-20 -26 -35 -64 -35 -119c0 -52 12 -84 34 -111c21 -24 54 -31 80 -31c40 0 90 15 120 26c6 -19 11 -41 15 -59
c-36 -18 -77 -30 -112 -36l-65 -61c37 -6 62 -33 62 -69c0 -54 -52 -93 -143 -94c-3 14 -4 31 -5 44c48 3 77 16 77 43c0 14 -5 23 -12 30c-10 9 -25 12 -45 11c-4 8 -7 19 -10 27z" />
    <glyph glyph-name="eacute" unicode="&#xe9;" horiz-adv-x="468" 
d="M36 193v1c0 135 91 244 229 244c57 0 99 -20 125 -52c31 -37 44 -87 44 -140c-3 -13 -33 -45 -43 -46c-44 -3 -164 -3 -238 -3c0 -46 11 -78 30 -99c27 -29 57 -33 92 -33c44 0 102 17 135 30c6 -19 12 -42 15 -61c-57 -27 -129 -44 -174 -44c-131 0 -215 76 -215 203z
M251 376h-1c-27 0 -47 -9 -63 -29c-13 -17 -31 -44 -32 -90c48 0 115 1 161 3c7 0 11 4 11 11c0 28 -9 58 -20 75c-13 18 -31 30 -56 30zM328 662c19 -17 37 -38 53 -57c-54 -41 -111 -86 -162 -124c-11 12 -23 26 -35 40c46 44 98 97 144 141z" />
    <glyph glyph-name="ecircumflex" unicode="&#xea;" horiz-adv-x="468" 
d="M36 193v1c0 135 91 244 229 244c57 0 99 -20 125 -52c31 -37 44 -87 44 -140c-3 -13 -33 -45 -43 -46c-44 -3 -164 -3 -238 -3c0 -46 11 -78 30 -99c27 -29 57 -33 92 -33c44 0 102 17 135 30c6 -19 12 -42 15 -61c-57 -27 -129 -44 -174 -44c-131 0 -215 76 -215 203z
M251 376h-1c-27 0 -47 -9 -63 -29c-13 -17 -31 -44 -32 -90c48 0 115 1 161 3c7 0 11 4 11 11c0 28 -9 58 -20 75c-13 18 -31 30 -56 30zM263 573c-32 -30 -68 -65 -98 -94c-12 10 -26 22 -38 33c37 43 78 92 112 131c16 1 34 1 48 1c33 -37 79 -93 112 -131
c-11 -11 -24 -24 -37 -34c-29 28 -66 63 -99 94z" />
    <glyph glyph-name="edieresis" unicode="&#xeb;" horiz-adv-x="468" 
d="M36 193v1c0 135 91 244 229 244c57 0 99 -20 125 -52c31 -37 44 -87 44 -140c-3 -13 -33 -45 -43 -46c-44 -3 -164 -3 -238 -3c0 -46 11 -78 30 -99c27 -29 57 -33 92 -33c44 0 102 17 135 30c6 -19 12 -42 15 -61c-57 -27 -129 -44 -174 -44c-131 0 -215 76 -215 203z
M251 376h-1c-27 0 -47 -9 -63 -29c-13 -17 -31 -44 -32 -90c48 0 115 1 161 3c7 0 11 4 11 11c0 28 -9 58 -20 75c-13 18 -31 30 -56 30zM176 601h1c34 0 49 -27 49 -50c0 -27 -19 -50 -51 -50c-28 0 -51 21 -51 50c0 23 18 50 52 50zM346 601h1c32 0 50 -27 50 -50
c0 -29 -23 -50 -51 -50c-32 0 -51 23 -51 50c0 23 15 50 51 50z" />
    <glyph glyph-name="egrave" unicode="&#xe8;" horiz-adv-x="468" 
d="M36 193v1c0 135 91 244 229 244c57 0 99 -20 125 -52c31 -37 44 -87 44 -140c-3 -13 -33 -45 -43 -46c-44 -3 -164 -3 -238 -3c0 -46 11 -78 30 -99c27 -29 57 -33 92 -33c44 0 102 17 135 30c6 -19 12 -42 15 -61c-57 -27 -129 -44 -174 -44c-131 0 -215 76 -215 203z
M251 376h-1c-27 0 -47 -9 -63 -29c-13 -17 -31 -44 -32 -90c48 0 115 1 161 3c7 0 11 4 11 11c0 28 -9 58 -20 75c-13 18 -31 30 -56 30zM204 663c44 -44 97 -99 140 -141c-11 -14 -24 -28 -36 -40c-48 38 -106 85 -157 124c16 19 35 40 53 57z" />
    <glyph glyph-name="iacute" unicode="&#xed;" horiz-adv-x="288" 
d="M95 349l-71 3c-1 19 0 41 0 60c48 5 174 26 183 26c1 0 1 -1 1 -3c0 -109 -2 -268 -2 -372l64 -2c0 -20 0 -41 -1 -60h-122c-37 0 -81 -1 -118 -1c0 20 0 41 1 60l61 3c3 0 4 2 4 4v282zM213 662c19 -17 37 -38 53 -57c-54 -41 -111 -86 -162 -124c-11 12 -23 26 -35 40
c46 44 98 97 144 141z" />
    <glyph glyph-name="icircumflex" unicode="&#xee;" horiz-adv-x="288" 
d="M95 349l-71 3c-1 19 0 41 0 60c48 5 174 26 183 26c1 0 1 -1 1 -3c0 -109 -2 -268 -2 -372l64 -2c0 -20 0 -41 -1 -60h-122c-37 0 -81 -1 -118 -1c0 20 0 41 1 60l61 3c3 0 4 2 4 4v282zM147 573c-32 -30 -68 -65 -98 -94c-12 10 -26 22 -38 33c37 43 78 92 112 131
c16 1 34 1 48 1c33 -37 79 -93 112 -131c-11 -11 -24 -24 -37 -34c-29 28 -66 63 -99 94z" />
    <glyph glyph-name="idieresis" unicode="&#xef;" horiz-adv-x="288" 
d="M95 349l-71 3c-1 19 0 41 0 60c48 5 174 26 183 26c1 0 1 -1 1 -3c0 -109 -2 -268 -2 -372l64 -2c0 -20 0 -41 -1 -60h-122c-37 0 -81 -1 -118 -1c0 20 0 41 1 60l61 3c3 0 4 2 4 4v282zM57 601h1c34 0 49 -27 49 -50c0 -27 -19 -50 -51 -50c-28 0 -51 21 -51 50
c0 23 18 50 52 50zM227 601h1c32 0 50 -27 50 -50c0 -29 -23 -50 -51 -50c-32 0 -51 23 -51 50c0 23 15 50 51 50z" />
    <glyph glyph-name="igrave" unicode="&#xec;" horiz-adv-x="288" 
d="M95 349l-71 3c-1 19 0 41 0 60c48 5 174 26 183 26c1 0 1 -1 1 -3c0 -109 -2 -268 -2 -372l64 -2c0 -20 0 -41 -1 -60h-122c-37 0 -81 -1 -118 -1c0 20 0 41 1 60l61 3c3 0 4 2 4 4v282zM75 663c44 -44 97 -99 140 -141c-11 -14 -24 -28 -36 -40c-48 38 -106 85 -157 124
c16 19 35 40 53 57z" />
    <glyph glyph-name="ntilde" unicode="&#xf1;" horiz-adv-x="580" 
d="M95 350l-71 2c0 19 1 40 1 58c44 5 159 27 165 27c2 0 2 -1 2 -3c4 -20 9 -43 12 -60l5 -1c99 60 121 65 165 65c48 0 86 -37 106 -69c16 -28 20 -55 20 -80c0 -66 -2 -156 -3 -226l58 -2c0 -19 0 -41 -1 -60h-115c-36 0 -77 -1 -108 -1v60l51 3c2 0 3 2 4 4v161
c0 43 0 75 -11 94c-15 28 -35 31 -56 31c-30 0 -77 -22 -109 -48c-2 -69 -3 -176 -3 -242l60 -2c0 -20 -1 -41 -1 -60h-118c-36 0 -78 -1 -112 -1c0 19 0 41 1 60l55 3c2 0 3 2 3 4v283zM237 614h1c29 0 50 -18 71 -32c18 -12 30 -23 49 -23s29 18 33 51c16 1 31 1 45 0
c-3 -61 -24 -114 -80 -114c-25 0 -45 15 -65 29c-21 14 -35 27 -55 27s-31 -21 -36 -51c-15 -1 -31 0 -45 0c5 61 29 113 82 113z" />
    <glyph glyph-name="oacute" unicode="&#xf3;" horiz-adv-x="522" 
d="M253 -10h-1c-57 0 -110 16 -146 48c-45 39 -70 93 -70 166c0 74 30 141 89 187c41 32 95 47 148 47c50 0 93 -11 130 -37c50 -36 83 -95 83 -178s-40 -153 -95 -193c-38 -27 -84 -40 -138 -40zM261 49h1c24 0 48 7 66 29c27 31 36 74 36 141c0 58 -10 98 -31 125
c-18 25 -41 35 -69 35c-23 0 -49 -8 -67 -30c-25 -29 -38 -73 -38 -134c0 -68 12 -108 37 -136c16 -20 39 -30 65 -30zM340 662c19 -17 37 -38 53 -57c-54 -41 -111 -86 -162 -124c-11 12 -23 26 -35 40c46 44 98 97 144 141z" />
    <glyph glyph-name="ocircumflex" unicode="&#xf4;" horiz-adv-x="522" 
d="M253 -10h-1c-57 0 -110 16 -146 48c-45 39 -70 93 -70 166c0 74 30 141 89 187c41 32 95 47 148 47c50 0 93 -11 130 -37c50 -36 83 -95 83 -178s-40 -153 -95 -193c-38 -27 -84 -40 -138 -40zM261 49h1c24 0 48 7 66 29c27 31 36 74 36 141c0 58 -10 98 -31 125
c-18 25 -41 35 -69 35c-23 0 -49 -8 -67 -30c-25 -29 -38 -73 -38 -134c0 -68 12 -108 37 -136c16 -20 39 -30 65 -30zM272 573c-32 -30 -68 -65 -98 -94c-12 10 -26 22 -38 33c37 43 78 92 112 131c16 1 34 1 48 1c33 -37 79 -93 112 -131c-11 -11 -24 -24 -37 -34
c-29 28 -66 63 -99 94z" />
    <glyph glyph-name="odieresis" unicode="&#xf6;" horiz-adv-x="522" 
d="M253 -10h-1c-57 0 -110 16 -146 48c-45 39 -70 93 -70 166c0 74 30 141 89 187c41 32 95 47 148 47c50 0 93 -11 130 -37c50 -36 83 -95 83 -178s-40 -153 -95 -193c-38 -27 -84 -40 -138 -40zM261 49h1c24 0 48 7 66 29c27 31 36 74 36 141c0 58 -10 98 -31 125
c-18 25 -41 35 -69 35c-23 0 -49 -8 -67 -30c-25 -29 -38 -73 -38 -134c0 -68 12 -108 37 -136c16 -20 39 -30 65 -30zM186 601h1c34 0 49 -27 49 -50c0 -27 -19 -50 -51 -50c-28 0 -51 21 -51 50c0 23 18 50 52 50zM356 601h1c32 0 50 -27 50 -50c0 -29 -23 -50 -51 -50
c-32 0 -51 23 -51 50c0 23 15 50 51 50z" />
    <glyph glyph-name="ograve" unicode="&#xf2;" horiz-adv-x="522" 
d="M253 -10h-1c-57 0 -110 16 -146 48c-45 39 -70 93 -70 166c0 74 30 141 89 187c41 32 95 47 148 47c50 0 93 -11 130 -37c50 -36 83 -95 83 -178s-40 -153 -95 -193c-38 -27 -84 -40 -138 -40zM261 49h1c24 0 48 7 66 29c27 31 36 74 36 141c0 58 -10 98 -31 125
c-18 25 -41 35 -69 35c-23 0 -49 -8 -67 -30c-25 -29 -38 -73 -38 -134c0 -68 12 -108 37 -136c16 -20 39 -30 65 -30zM208 663c44 -44 97 -99 140 -141c-11 -14 -24 -28 -36 -40c-48 38 -106 85 -157 124c16 19 35 40 53 57z" />
    <glyph glyph-name="otilde" unicode="&#xf5;" horiz-adv-x="522" 
d="M253 -10h-1c-57 0 -110 16 -146 48c-45 39 -70 93 -70 166c0 74 30 141 89 187c41 32 95 47 148 47c50 0 93 -11 130 -37c50 -36 83 -95 83 -178s-40 -153 -95 -193c-38 -27 -84 -40 -138 -40zM261 49h1c24 0 48 7 66 29c27 31 36 74 36 141c0 58 -10 98 -31 125
c-18 25 -41 35 -69 35c-23 0 -49 -8 -67 -30c-25 -29 -38 -73 -38 -134c0 -68 12 -108 37 -136c16 -20 39 -30 65 -30zM215 614h1c29 0 50 -18 71 -32c18 -12 30 -23 49 -23s29 18 33 51c16 1 31 1 45 0c-3 -61 -24 -114 -80 -114c-25 0 -45 15 -65 29c-21 14 -35 27 -55 27
s-31 -21 -36 -51c-15 -1 -31 0 -45 0c5 61 29 113 82 113z" />
    <glyph glyph-name="scaron" unicode="&#x161;" horiz-adv-x="421" 
d="M99 144l15 -61c2 -5 3 -8 8 -12c16 -11 40 -18 63 -18s42 1 59 12c14 8 26 22 26 45c0 40 -22 47 -98 69c-85 25 -122 62 -122 121c0 52 36 92 73 111c30 16 73 27 128 27c54 0 94 -10 107 -16c5 -40 9 -80 12 -120c-20 -3 -44 -7 -67 -10l-15 59c-1 4 -3 9 -6 11
c-13 9 -32 13 -51 13s-39 -5 -51 -14c-12 -8 -22 -22 -22 -45c0 -32 18 -39 96 -62c72 -20 125 -45 125 -123c0 -49 -27 -90 -74 -116c-29 -16 -78 -25 -133 -25c-51 0 -98 8 -125 18c-5 41 -10 83 -15 124c21 5 45 9 67 12zM225 562c34 32 70 67 99 95
c13 -10 26 -23 37 -34c-33 -38 -80 -94 -112 -131c-14 -1 -33 -1 -48 0c-35 40 -75 89 -112 131c12 12 26 24 38 33c30 -28 66 -63 98 -94z" />
    <glyph glyph-name="uacute" unicode="&#xfa;" horiz-adv-x="545" 
d="M358 42h-5c-86 -49 -106 -52 -146 -52c-65 0 -132 74 -132 138c0 83 1 164 1 233l-54 1c0 20 1 42 2 62c38 2 151 5 163 6c2 0 3 -3 3 -4c-1 -73 -3 -157 -3 -236c0 -36 -1 -68 14 -91c15 -24 34 -30 56 -30c28 0 62 14 94 38c1 76 0 185 0 254l-58 2c0 21 1 43 1 63
c37 1 156 3 170 3c1 0 1 -2 1 -4c0 -109 -2 -233 -2 -349c0 -8 2 -11 6 -11l62 1c0 -19 0 -40 -1 -59c-11 -5 -81 -17 -134 -17c-12 10 -24 27 -38 52zM341 662c19 -17 37 -38 53 -57c-54 -41 -111 -86 -162 -124c-11 12 -23 26 -35 40c46 44 98 97 144 141z" />
    <glyph glyph-name="ucircumflex" unicode="&#xfb;" horiz-adv-x="545" 
d="M358 42h-5c-86 -49 -106 -52 -146 -52c-65 0 -132 74 -132 138c0 83 1 164 1 233l-54 1c0 20 1 42 2 62c38 2 151 5 163 6c2 0 3 -3 3 -4c-1 -73 -3 -157 -3 -236c0 -36 -1 -68 14 -91c15 -24 34 -30 56 -30c28 0 62 14 94 38c1 76 0 185 0 254l-58 2c0 21 1 43 1 63
c37 1 156 3 170 3c1 0 1 -2 1 -4c0 -109 -2 -233 -2 -349c0 -8 2 -11 6 -11l62 1c0 -19 0 -40 -1 -59c-11 -5 -81 -17 -134 -17c-12 10 -24 27 -38 52zM268 573c-32 -30 -68 -65 -98 -94c-12 10 -26 22 -38 33c37 43 78 92 112 131c16 1 34 1 48 1c33 -37 79 -93 112 -131
c-11 -11 -24 -24 -37 -34c-29 28 -66 63 -99 94z" />
    <glyph glyph-name="udieresis" unicode="&#xfc;" horiz-adv-x="545" 
d="M358 42h-5c-86 -49 -106 -52 -146 -52c-65 0 -132 74 -132 138c0 83 1 164 1 233l-54 1c0 20 1 42 2 62c38 2 151 5 163 6c2 0 3 -3 3 -4c-1 -73 -3 -157 -3 -236c0 -36 -1 -68 14 -91c15 -24 34 -30 56 -30c28 0 62 14 94 38c1 76 0 185 0 254l-58 2c0 21 1 43 1 63
c37 1 156 3 170 3c1 0 1 -2 1 -4c0 -109 -2 -233 -2 -349c0 -8 2 -11 6 -11l62 1c0 -19 0 -40 -1 -59c-11 -5 -81 -17 -134 -17c-12 10 -24 27 -38 52zM181 601h1c34 0 49 -27 49 -50c0 -27 -19 -50 -51 -50c-28 0 -51 21 -51 50c0 23 18 50 52 50zM351 601h1
c32 0 50 -27 50 -50c0 -29 -23 -50 -51 -50c-32 0 -51 23 -51 50c0 23 15 50 51 50z" />
    <glyph glyph-name="ugrave" unicode="&#xf9;" horiz-adv-x="545" 
d="M358 42h-5c-86 -49 -106 -52 -146 -52c-65 0 -132 74 -132 138c0 83 1 164 1 233l-54 1c0 20 1 42 2 62c38 2 151 5 163 6c2 0 3 -3 3 -4c-1 -73 -3 -157 -3 -236c0 -36 -1 -68 14 -91c15 -24 34 -30 56 -30c28 0 62 14 94 38c1 76 0 185 0 254l-58 2c0 21 1 43 1 63
c37 1 156 3 170 3c1 0 1 -2 1 -4c0 -109 -2 -233 -2 -349c0 -8 2 -11 6 -11l62 1c0 -19 0 -40 -1 -59c-11 -5 -81 -17 -134 -17c-12 10 -24 27 -38 52zM201 663c44 -44 97 -99 140 -141c-11 -14 -24 -28 -36 -40c-48 38 -106 85 -157 124c16 19 35 40 53 57z" />
    <glyph glyph-name="yacute" unicode="&#xfd;" horiz-adv-x="484" 
d="M486 367l-41 -2c-12 -32 -48 -123 -83 -206c-29 -70 -100 -232 -153 -313c-29 -44 -57 -81 -82 -96c-24 0 -87 43 -87 61c28 17 57 41 83 68c28 30 58 70 74 109c-32 79 -56 138 -85 214c-24 64 -44 118 -60 159c0 2 -3 3 -5 3l-45 2c1 21 1 43 2 62h100h130
c0 -19 0 -42 -1 -61l-60 -3c7 -24 20 -65 40 -123c17 -53 33 -96 49 -141h6c15 40 28 76 44 125c18 54 30 95 40 134c0 3 0 5 -4 5l-49 2c0 20 0 43 1 61h107c27 0 57 1 80 1c0 -19 0 -41 -1 -61zM344 662c19 -17 37 -38 53 -57c-54 -41 -111 -86 -162 -124
c-11 12 -23 26 -35 40c46 44 98 97 144 141z" />
    <glyph glyph-name="ydieresis" unicode="&#xff;" horiz-adv-x="484" 
d="M486 367l-41 -2c-12 -32 -48 -123 -83 -206c-29 -70 -100 -232 -153 -313c-29 -44 -57 -81 -82 -96c-24 0 -87 43 -87 61c28 17 57 41 83 68c28 30 58 70 74 109c-32 79 -56 138 -85 214c-24 64 -44 118 -60 159c0 2 -3 3 -5 3l-45 2c1 21 1 43 2 62h100h130
c0 -19 0 -42 -1 -61l-60 -3c7 -24 20 -65 40 -123c17 -53 33 -96 49 -141h6c15 40 28 76 44 125c18 54 30 95 40 134c0 3 0 5 -4 5l-49 2c0 20 0 43 1 61h107c27 0 57 1 80 1c0 -19 0 -41 -1 -61zM171 601h1c34 0 49 -27 49 -50c0 -27 -19 -50 -51 -50c-28 0 -51 21 -51 50
c0 23 18 50 52 50zM341 601h1c32 0 50 -27 50 -50c0 -29 -23 -50 -51 -50c-32 0 -51 23 -51 50c0 23 15 50 51 50z" />
    <glyph glyph-name="zcaron" unicode="&#x17e;" horiz-adv-x="466" 
d="M160 66l1 -4c43 0 105 0 151 3c16 1 29 7 33 19l30 79c23 -4 47 -10 67 -15c-11 -49 -24 -99 -37 -149c-14 0 -83 1 -153 1h-121h-88c-7 16 -14 37 -19 55c83 93 185 207 274 306l-1 5c-30 0 -107 0 -135 -1c-19 0 -24 -6 -27 -15l-27 -79c-24 3 -49 8 -70 12
c10 49 21 98 31 146c13 0 48 -1 100 -2h238c8 -23 15 -50 20 -74c-42 -51 -210 -225 -267 -287zM235 562c34 32 70 67 99 95c13 -10 26 -23 37 -34c-33 -38 -80 -94 -112 -131c-14 -1 -33 -1 -48 0c-35 40 -75 89 -112 131c12 12 26 24 38 33c30 -28 66 -63 98 -94z" />
    <glyph glyph-name="exclamsmall" unicode="&#xf721;" horiz-adv-x="281" 
d="M204 518h1c1 0 2 0 2 -2c-7 -82 -24 -251 -32 -342c-17 -4 -56 -8 -70 -9c-2 31 -13 123 -16 159c-3 43 -15 136 -20 179c30 8 98 15 135 15zM142 116h1c40 0 63 -31 63 -65s-27 -61 -66 -61c-36 0 -65 25 -65 60s27 66 67 66z" />
    <glyph glyph-name="Hungarumlautsmall" unicode="&#xf6f8;" horiz-adv-x="382" 
d="M216 718c15 -16 27 -37 38 -55c-52 -30 -105 -60 -158 -90c-10 13 -20 28 -29 40c47 33 103 72 149 105zM388 714c13 -15 26 -37 37 -55c-51 -30 -103 -60 -156 -91c-10 13 -20 27 -28 40c45 33 101 73 147 106z" />
    <glyph glyph-name="dollaroldstyle" unicode="&#xf724;" horiz-adv-x="443" 
d="M262 397l-3 -128c85 -17 141 -55 141 -127c0 -39 -15 -74 -40 -96c-27 -25 -69 -42 -124 -46l-2 -77c-18 -2 -36 -3 -54 -4l1 81c-54 1 -113 8 -154 33c3 21 21 52 39 70c38 -27 77 -41 117 -43l2 137c-82 22 -143 53 -143 130c0 39 24 73 51 94c27 20 67 33 115 36l1 77
c19 3 37 6 57 7l-2 -83c45 -1 91 -8 126 -27c0 -20 -19 -58 -35 -70c-25 16 -59 34 -93 36zM205 282l2 116c-25 0 -45 -7 -57 -19c-12 -10 -20 -26 -20 -40c0 -31 24 -49 75 -57zM240 187l-3 -130c21 1 39 6 53 16c15 11 23 27 23 46c0 38 -23 56 -73 68z" />
    <glyph glyph-name="dollarsuperior" unicode="&#xf6e4;" 
d="M209 696l-2 -84c63 -15 104 -37 104 -87c0 -30 -11 -55 -33 -72c-18 -15 -49 -27 -88 -29l-1 -55l-42 -3l1 58c-37 0 -82 8 -113 25c1 14 16 43 28 53c24 -16 55 -30 85 -32l2 89c-63 17 -104 37 -104 90c0 26 16 51 38 66c18 13 46 23 83 25l1 55c14 3 30 4 44 4l-1 -58
c37 -1 70 -9 91 -19c0 -16 -14 -43 -26 -53c-21 14 -45 26 -67 27zM165 620l2 76c-18 0 -30 -5 -38 -11c-8 -7 -13 -17 -13 -27c0 -19 14 -29 49 -38zM193 551l-2 -82c17 1 29 5 37 11c9 7 14 17 14 30c0 20 -13 32 -49 41z" />
    <glyph glyph-name="ampersandsmall" unicode="&#xf726;" horiz-adv-x="673" 
d="M313 280v-4c45 -31 99 -83 143 -123c19 21 39 72 40 103c0 4 0 5 -4 5l-46 2c0 20 0 38 1 56h102c28 0 55 1 88 1c1 -19 1 -38 0 -57l-47 -2c-19 -62 -52 -116 -89 -152c15 -14 31 -30 42 -40c9 -9 18 -10 32 -10l59 -1c1 -20 0 -39 -1 -58c-51 -3 -108 -5 -153 -7
c-17 18 -36 40 -52 57c-45 -32 -101 -60 -195 -60c-51 0 -98 10 -130 29c-44 27 -67 65 -67 111c0 63 49 118 121 147v3c-38 26 -71 61 -71 110c0 35 18 68 47 90c30 23 74 38 132 38c50 0 86 -10 113 -29s44 -50 44 -79c0 -57 -38 -100 -109 -130zM189 401v-1
c0 -36 27 -59 69 -87c41 20 66 46 66 87c0 15 -5 31 -16 43c-12 13 -30 18 -50 18s-37 -4 -50 -16s-19 -28 -19 -44zM265 56h1c43 0 90 15 116 37c-54 55 -120 111 -172 147c-32 -18 -60 -47 -60 -93c0 -25 11 -49 31 -65c19 -16 46 -26 84 -26z" />
    <glyph glyph-name="Acutesmall" unicode="&#xf7b4;" horiz-adv-x="382" 
d="M275 719c15 -21 28 -46 39 -68c-61 -28 -127 -59 -184 -85c-9 15 -18 31 -26 47c54 33 117 73 171 106z" />
    <glyph glyph-name="parenleftsuperior" unicode="&#x207d;" horiz-adv-x="259" 
d="M73 567v1c0 116 73 200 138 238c10 -9 19 -21 26 -32c-45 -37 -84 -110 -84 -203c0 -104 40 -166 84 -210c-9 -10 -20 -21 -31 -29c-62 47 -133 112 -133 235z" />
    <glyph glyph-name="parenrightsuperior" unicode="&#x207e;" horiz-adv-x="259" 
d="M188 574v-1c0 -120 -70 -196 -136 -242c-9 9 -20 21 -28 30c43 43 84 105 84 210c0 95 -36 160 -83 204c9 10 19 21 29 30c63 -38 134 -115 134 -231z" />
    <glyph glyph-name="twodotenleader" unicode="&#x2025;" horiz-adv-x="574" 
d="M146 125h1c44 0 65 -35 65 -67c0 -38 -27 -68 -68 -68c-37 0 -68 27 -68 67c0 33 25 68 70 68zM433 125h1c44 0 65 -35 65 -67c0 -38 -27 -68 -68 -68c-37 0 -68 27 -68 67c0 33 25 68 70 68z" />
    <glyph glyph-name="onedotenleader" unicode="&#x2024;" horiz-adv-x="287" 
d="M146 125h1c44 0 65 -35 65 -67c0 -38 -27 -68 -68 -68c-37 0 -68 27 -68 67c0 33 25 68 70 68z" />
    <glyph glyph-name="zerooldstyle" unicode="&#xf730;" horiz-adv-x="555" 
d="M270 -10h-1c-60 0 -110 17 -147 46c-46 34 -81 93 -81 176c0 75 36 143 89 186c38 31 95 50 160 50c63 0 112 -19 145 -45c50 -39 80 -96 80 -174c0 -84 -35 -150 -88 -191c-40 -32 -96 -48 -157 -48zM275 68h1c31 0 64 10 85 31c26 26 45 65 45 123c0 56 -18 92 -45 118
c-22 22 -50 30 -81 30c-29 0 -58 -10 -79 -30c-29 -27 -50 -65 -50 -124c0 -56 19 -93 45 -119c19 -18 51 -29 79 -29z" />
    <glyph glyph-name="oneoldstyle" unicode="&#xf731;" horiz-adv-x="462" 
d="M54 62l141 3c3 0 4 2 4 4v263c-47 -12 -93 -23 -140 -35c-5 19 -9 40 -13 61c90 33 259 97 266 97c3 0 4 -1 4 -4c-1 -112 -3 -276 -3 -386l127 -3c0 -22 0 -43 -1 -62c-59 1 -129 1 -187 1c-63 0 -128 -1 -199 -1c0 19 0 39 1 62z" />
    <glyph glyph-name="twooldstyle" unicode="&#xf732;" horiz-adv-x="470" 
d="M175 79v-6c61 0 194 2 257 2c0 -27 -1 -52 -4 -76c-34 0 -192 1 -264 1h-122c-7 20 -13 43 -18 66c52 27 88 44 130 69c89 54 136 96 136 158c0 21 -7 39 -19 52c-16 17 -42 24 -66 24c-52 0 -100 -30 -130 -62c-15 13 -32 30 -44 45c38 43 103 96 215 96
c55 0 100 -17 128 -46c26 -27 39 -60 39 -96c0 -83 -49 -139 -157 -193c-31 -15 -58 -25 -81 -34z" />
    <glyph glyph-name="threeoldstyle" unicode="&#xf733;" horiz-adv-x="454" 
d="M271 165v-7c97 -6 146 -75 146 -142c0 -58 -25 -106 -67 -139c-45 -36 -112 -58 -197 -58c-53 0 -113 12 -143 28c5 20 13 42 20 62c20 -8 63 -22 114 -22c46 0 90 12 119 38c22 19 35 46 35 82c0 67 -54 107 -146 107c-15 0 -38 0 -51 -1c-1 20 -3 43 -3 63
c131 2 178 53 178 114c0 23 -5 41 -21 58c-13 14 -35 24 -65 24c-55 0 -103 -32 -128 -58c-13 13 -27 30 -39 47c28 31 93 87 206 87c54 0 97 -17 125 -45c24 -24 37 -56 37 -91c0 -76 -56 -127 -120 -147z" />
    <glyph glyph-name="fouroldstyle" unicode="&#xf734;" horiz-adv-x="529" 
d="M310 -176v178c-31 0 -229 -1 -263 -1c-11 24 -22 50 -30 75c29 42 81 113 132 179c60 77 113 139 158 191c38 0 77 -1 113 -3c-1 -114 -2 -250 -3 -371h102c0 -22 -1 -45 -3 -67h-100c0 -53 -1 -114 -1 -176c-32 -4 -72 -5 -105 -5zM312 347h-5
c-39 -50 -64 -84 -103 -138c-34 -47 -63 -88 -87 -127c-3 -4 -1 -7 2 -7c45 -1 167 -2 191 -2z" />
    <glyph glyph-name="fiveoldstyle" unicode="&#xf735;" horiz-adv-x="463" 
d="M67 145l-12 11c10 79 24 193 37 282h153s112 0 164 -1c0 -25 -1 -53 -4 -80c-85 0 -177 -1 -242 -2c-7 -42 -14 -85 -22 -128c18 1 37 1 63 1c148 0 220 -84 220 -180c0 -72 -32 -132 -82 -171c-47 -36 -111 -57 -200 -57c-35 0 -93 10 -123 25c5 20 11 42 19 61
c22 -8 68 -18 103 -18c55 0 97 12 125 36c26 23 43 60 43 103c0 74 -52 121 -158 121c-26 0 -63 -2 -84 -3z" />
    <glyph glyph-name="sixoldstyle" unicode="&#xf736;" horiz-adv-x="519" 
d="M164 337l7 -2c32 36 79 57 134 57c50 0 96 -19 124 -48c32 -34 50 -86 50 -128c0 -69 -25 -131 -73 -174c-36 -33 -89 -52 -151 -52c-65 0 -115 20 -153 62c-35 37 -60 103 -60 170c0 133 55 234 126 306c54 53 126 92 208 113c10 -17 20 -38 26 -60
c-57 -18 -110 -47 -149 -87c-41 -42 -71 -90 -89 -157zM264 51h1c25 0 48 9 65 27c23 24 33 65 33 113c0 40 -12 76 -30 99c-15 20 -40 30 -64 30c-40 0 -83 -20 -109 -67v-36c1 -50 14 -98 33 -126c16 -24 43 -40 71 -40z" />
    <glyph glyph-name="sevenoldstyle" unicode="&#xf737;" horiz-adv-x="465" 
d="M317 349l-2 5c-97 0 -236 -1 -293 -3c1 28 5 61 9 88c66 0 162 -1 248 -1h139c9 -22 17 -51 23 -75c-89 -161 -197 -400 -263 -547c-25 7 -55 16 -83 29c67 151 137 317 222 504z" />
    <glyph glyph-name="eightoldstyle" unicode="&#xf738;" horiz-adv-x="517" 
d="M344 335v-5c87 -29 135 -89 135 -157c0 -57 -23 -105 -68 -138c-41 -30 -98 -45 -162 -45c-66 0 -116 14 -152 40c-33 24 -60 59 -60 115c0 70 51 135 137 165v6c-65 27 -106 73 -106 140c0 42 22 82 54 110c34 30 89 50 153 50c57 0 106 -15 138 -43
c24 -22 43 -55 43 -95c0 -69 -48 -116 -112 -143zM170 471v-1c0 -53 38 -82 109 -109c45 22 77 60 77 108c0 24 -7 45 -20 60c-16 19 -41 28 -71 28s-55 -8 -73 -28c-12 -14 -22 -34 -22 -58zM371 151v1c0 61 -44 96 -135 128c-52 -24 -89 -74 -89 -126c0 -31 11 -57 29 -75
c20 -20 51 -31 82 -31c33 0 64 10 84 29c18 18 29 43 29 74z" />
    <glyph glyph-name="nineoldstyle" unicode="&#xf739;" horiz-adv-x="515" 
d="M356 109l-6 3c-30 -34 -80 -55 -132 -55c-49 0 -96 18 -126 47c-35 34 -54 78 -54 131c0 63 28 121 72 159c40 35 90 54 154 54c59 0 110 -20 145 -56c42 -43 65 -102 65 -186c0 -131 -55 -232 -123 -296c-59 -55 -137 -90 -216 -103c-11 20 -19 43 -26 65
c55 12 122 38 166 83c35 34 67 85 81 154zM250 387h-1c-24 0 -45 -9 -61 -26c-23 -25 -35 -61 -35 -111c0 -43 12 -75 32 -96c16 -18 39 -28 63 -28c36 0 82 23 107 62c1 9 1 19 1 26c0 57 -14 105 -30 130c-17 26 -43 43 -76 43z" />
    <glyph glyph-name="commasuperior" unicode="&#xf6e2;" horiz-adv-x="245" 
d="M183 438v-1c0 -63 -45 -122 -107 -157c-10 12 -21 24 -30 36c44 30 60 58 60 85c0 26 -26 38 -46 43c-5 42 22 73 52 73c37 0 71 -37 71 -79z" />
    <glyph glyph-name="threequartersemdash" unicode="&#xf6de;" horiz-adv-x="750" 
d="M36 275c110 0 223 1 333 1c109 0 241 1 347 2c0 -23 -1 -50 -3 -71h-341h-338c1 22 1 47 2 68z" />
    <glyph glyph-name="periodsuperior" unicode="&#xf6e8;" horiz-adv-x="245" 
d="M123 517h1c36 0 53 -28 53 -54c0 -31 -22 -55 -55 -55c-30 0 -55 22 -55 54c0 27 20 55 56 55z" />
    <glyph glyph-name="questionsmall" unicode="&#xf73f;" horiz-adv-x="445" 
d="M408 394v-1c0 -74 -55 -118 -143 -162c-12 -6 -17 -12 -17 -22c0 -13 4 -32 10 -53c-20 -8 -50 -14 -79 -17c-14 18 -37 67 -37 97c98 54 142 86 142 145c0 47 -31 68 -76 68c-28 0 -53 -8 -67 -18c-4 -2 -4 -5 -6 -10l-16 -69c-25 2 -50 5 -74 7c3 44 6 86 8 126
c38 18 103 33 176 33c114 0 179 -49 179 -124zM217 107h1c38 0 63 -26 63 -61c0 -30 -27 -56 -65 -56c-35 0 -65 24 -65 56s27 61 66 61z" />
    <glyph glyph-name="asuperior" unicode="&#xf6e9;" horiz-adv-x="383" 
d="M230 340h-3c-45 -25 -80 -33 -108 -33c-38 0 -91 33 -91 79c0 44 48 109 152 109h47c1 59 -14 86 -53 86c-30 0 -67 -23 -93 -46c-11 12 -23 27 -33 41c43 39 91 69 156 69c54 0 109 -43 109 -118c0 -42 -1 -123 -1 -154c0 -7 1 -9 5 -9l47 2c0 -15 0 -32 -1 -46
c-18 -4 -69 -13 -108 -13c-8 6 -16 16 -25 33zM116 396v-1c0 -20 22 -32 45 -32c20 0 46 10 64 23c2 2 2 3 2 4v59c-3 1 -13 1 -26 1c-58 0 -85 -22 -85 -54z" />
    <glyph glyph-name="bsuperior" unicode="&#xf6ea;" horiz-adv-x="406" 
d="M139 609l2 -1c69 34 82 37 111 37c54 0 100 -54 107 -106c7 -35 8 -70 -1 -105c-8 -38 -29 -74 -60 -99c-22 -17 -58 -28 -100 -28c-29 0 -58 9 -79 22l-21 -27c-14 1 -31 5 -50 8c2 19 5 59 5 89v373l-54 3c0 16 0 33 1 47c37 3 129 19 138 19c1 0 2 -1 2 -2
c0 -65 -1 -152 -1 -230zM216 581h-1c-21 0 -50 -10 -76 -28c-1 -50 -1 -110 -1 -161c0 -18 33 -33 61 -33c19 0 39 7 53 24c16 19 27 49 27 92c0 39 -8 66 -18 81c-11 15 -27 25 -45 25z" />
    <glyph glyph-name="centsuperior" unicode="&#xf6e0;" 
d="M180 399l1 62c-68 2 -135 34 -135 108c0 69 50 130 138 138v56c14 2 31 3 46 3l-1 -57h6c24 0 53 -6 76 -16c0 -18 -13 -48 -25 -56c-17 10 -40 22 -59 22l-2 -149c23 1 50 9 76 20c4 -12 9 -27 12 -41c-28 -13 -62 -23 -88 -26l-1 -61c-14 -1 -29 -2 -44 -3zM181 511
l2 147c-37 -4 -63 -39 -63 -78c0 -27 10 -46 27 -58c9 -6 21 -10 34 -11z" />
    <glyph glyph-name="dsuperior" unicode="&#xf6eb;" horiz-adv-x="424" 
d="M275 340h-5c-63 -32 -78 -34 -101 -34c-32 0 -64 10 -90 36c-28 27 -45 66 -45 116c0 52 18 100 53 139c26 30 69 47 110 47c27 0 50 -6 67 -11l2 1v136l-60 2v49c42 4 139 19 148 19c1 0 2 -1 2 -3c0 -129 -2 -319 -2 -460c0 -8 2 -12 7 -12l46 1c0 -14 1 -32 0 -47
c-13 -4 -67 -13 -108 -13c-9 7 -16 17 -24 34zM207 587h-1c-18 0 -39 -7 -52 -25c-16 -21 -25 -50 -25 -95c0 -34 5 -59 20 -78c12 -15 30 -24 48 -24c22 0 43 7 66 21c3 2 3 6 3 11v176c-16 8 -37 14 -59 14z" />
    <glyph glyph-name="esuperior" unicode="&#xf6ec;" horiz-adv-x="366" 
d="M34 460v1c0 59 22 112 63 145c28 25 64 39 110 39c42 0 74 -16 93 -39c23 -29 33 -66 33 -114c0 -5 -24 -29 -30 -30c-36 -2 -124 -2 -178 -2c0 -29 8 -54 22 -70c20 -21 44 -24 69 -24c32 0 75 12 99 23c5 -16 9 -34 12 -49c-43 -21 -96 -33 -131 -33
c-100 0 -162 57 -162 153zM196 595h-1c-17 0 -33 -6 -45 -20c-10 -13 -23 -32 -24 -67c34 0 86 1 116 2c5 0 8 3 8 9c0 22 -6 42 -14 55c-10 13 -24 21 -40 21z" />
    <glyph glyph-name="isuperior" unicode="&#xf6ed;" horiz-adv-x="225" 
d="M112 806h1c34 0 50 -26 50 -50c0 -32 -24 -54 -53 -54c-27 0 -52 23 -52 53c0 26 21 51 54 51zM75 576l-55 1v48c37 4 133 20 140 20c1 0 1 -1 1 -2c0 -84 -1 -202 -1 -281l49 -2c0 -16 0 -32 -1 -48h-93h-91c0 16 0 33 1 48l47 2c2 0 3 1 3 3v211z" />
    <glyph glyph-name="lsuperior" unicode="&#xf6ee;" horiz-adv-x="218" 
d="M64 771l-57 2c0 16 0 33 1 47c37 4 134 19 142 19c2 0 3 -1 3 -3c-1 -132 -3 -328 -3 -474l53 -2c0 -15 0 -32 -1 -48h-96h-93c0 15 1 33 1 48l47 2c2 0 3 2 3 3v406z" />
    <glyph glyph-name="msuperior" unicode="&#xf6ef;" horiz-adv-x="633" 
d="M75 577l-53 1c0 15 0 32 1 46c32 4 123 20 129 20c1 0 2 -1 2 -2c1 -13 3 -34 4 -41l3 -1c69 41 86 45 114 45c43 0 70 -36 78 -50h2c72 45 87 49 117 49c37 0 62 -25 78 -46c11 -17 18 -40 18 -62c0 -55 -2 -119 -2 -173l46 -1c0 -16 -1 -34 -1 -50h-85h-82
c0 16 0 34 1 49l35 2c1 0 3 2 3 3v140c0 20 -1 35 -8 49c-8 18 -24 24 -40 24c-20 0 -51 -16 -70 -29c0 -54 -1 -130 -1 -187l42 -1c0 -16 0 -33 -1 -50h-88h-74c0 16 1 33 1 49l36 2c2 0 3 2 3 3v145c0 22 0 36 -8 49c-8 16 -22 20 -38 20c-21 0 -54 -15 -77 -32
c0 -55 -1 -130 -1 -185l44 -2c0 -15 0 -32 -1 -49h-89h-84c0 16 0 34 1 49l43 2c1 0 3 2 3 3z" />
    <glyph glyph-name="nsuperior" unicode="&#x207f;" horiz-adv-x="445" 
d="M75 576l-55 1c0 16 1 32 1 46c34 4 122 21 129 21c2 0 2 -1 2 -2c2 -14 5 -35 7 -46l2 -1c74 46 90 50 124 50c37 0 65 -28 79 -53c13 -21 16 -41 16 -62c0 -49 -1 -115 -2 -167l45 -2c0 -15 0 -32 -1 -48h-89h-81v48l38 2c2 0 3 1 3 3v118c0 31 0 55 -8 70
c-12 21 -27 23 -42 23c-21 0 -57 -16 -81 -35c0 -51 -1 -129 -1 -179l44 -2v-48h-89h-86v48l43 2c2 0 3 1 3 3z" />
    <glyph glyph-name="osuperior" unicode="&#xf6f0;" horiz-adv-x="400" 
d="M194 307h-1c-42 0 -83 13 -109 38c-30 30 -50 67 -50 123c0 55 22 107 63 141c30 24 70 36 111 36c37 0 72 -9 98 -28c35 -26 60 -70 60 -133s-26 -116 -69 -147c-28 -21 -64 -30 -103 -30zM199 354h1c18 0 35 5 49 20c19 22 25 55 25 105c0 45 -7 74 -22 94
c-13 18 -30 25 -49 25c-20 0 -36 -7 -50 -22c-16 -20 -27 -53 -27 -98c0 -52 9 -82 25 -101c13 -16 29 -23 48 -23z" />
    <glyph glyph-name="rsuperior" unicode="&#xf6f1;" horiz-adv-x="315" 
d="M74 578l-52 1c0 15 1 31 1 46c33 4 122 19 128 19c1 0 1 -1 1 -2c1 -16 2 -60 3 -96l4 -1c44 85 67 100 101 100c18 0 37 -4 49 -9c0 -24 -15 -69 -27 -79c-7 0 -27 6 -42 6c-8 0 -15 -2 -24 -10c-14 -11 -28 -29 -45 -62c-8 -17 -11 -44 -11 -67c-1 -20 -1 -44 -1 -62
l69 -2c0 -16 -1 -32 -1 -48h-107h-92c0 15 1 32 1 47l42 2c2 1 3 2 3 2v215z" />
    <glyph glyph-name="ssuperior" unicode="&#xf6f2;" horiz-adv-x="331" 
d="M81 425l11 -46c1 -3 2 -6 6 -9c12 -8 32 -13 49 -13s31 1 43 8c11 6 19 17 19 32c0 30 -15 35 -75 51c-65 19 -93 48 -93 92c0 40 28 70 55 84c23 13 56 21 100 21c43 0 72 -8 82 -12l9 -93c-16 -3 -34 -6 -52 -8l-12 45c0 3 -2 6 -5 8c-9 6 -25 9 -39 9s-31 -3 -41 -12
c-8 -6 -13 -15 -13 -28c0 -25 14 -30 74 -47c55 -15 95 -35 95 -94c0 -37 -20 -68 -56 -87c-21 -12 -59 -19 -101 -19s-77 6 -97 13c-3 32 -7 64 -11 96c16 4 34 7 52 9z" />
    <glyph glyph-name="tsuperior" unicode="&#xf6f3;" horiz-adv-x="301" 
d="M70 387v1v103c1 20 1 75 1 91h-52c0 17 1 34 1 50c16 1 33 2 49 3c2 0 5 2 5 5c1 21 2 47 4 67c28 15 75 32 79 32c1 0 2 -1 2 -3c-1 -22 -1 -74 -2 -101c39 0 81 1 119 1c0 -18 -1 -37 -2 -54h-117c0 -7 -1 -41 -1 -74v-101c0 -27 20 -40 42 -40c23 0 52 5 78 12
c3 -16 5 -33 7 -49c-45 -16 -92 -23 -131 -23c-20 0 -40 3 -60 21c-22 20 -22 37 -22 59z" />
    <glyph glyph-name="parenleftinferior" unicode="&#x208d;" horiz-adv-x="259" 
d="M73 38v1c0 116 73 200 138 238c10 -9 19 -21 26 -32c-45 -37 -84 -110 -84 -203c0 -104 40 -166 84 -210c-9 -10 -20 -21 -31 -29c-62 47 -133 112 -133 235z" />
    <glyph glyph-name="parenrightinferior" unicode="&#x208e;" horiz-adv-x="259" 
d="M188 45v-1c0 -120 -70 -196 -136 -242c-9 9 -20 21 -28 30c43 43 84 105 84 210c0 95 -36 160 -83 204c9 10 19 21 29 30c63 -38 134 -115 134 -231z" />
    <glyph glyph-name="Circumflexsmall" unicode="&#xf6f6;" horiz-adv-x="382" 
d="M192 655c-32 -30 -68 -65 -98 -93c-12 10 -26 21 -38 33c37 43 78 91 112 131c16 0 34 1 48 0c33 -37 79 -93 112 -131c-11 -11 -24 -24 -37 -34c-29 28 -66 64 -99 94z" />
    <glyph glyph-name="hyphensuperior" unicode="&#xf6e6;" horiz-adv-x="278" 
d="M37 611c34 0 68 1 101 1c36 0 70 0 103 1c0 -20 -1 -42 -2 -61h-104h-99c0 19 0 39 1 59z" />
    <glyph glyph-name="Gravesmall" unicode="&#xf760;" horiz-adv-x="382" 
d="M111 720c53 -33 116 -75 167 -108c-8 -16 -17 -31 -27 -46c-55 27 -122 60 -180 87c12 22 26 47 40 67z" />
    <glyph glyph-name="Asmall" unicode="&#xf761;" horiz-adv-x="553" 
d="M1 59l41 3c3 0 4 1 6 3c55 132 129 313 188 448c17 1 48 2 95 2c53 -137 122 -325 174 -453l46 -2c0 -22 0 -41 -1 -60h-93h-128c0 19 1 38 1 60l56 2c2 0 3 2 2 5c-8 22 -19 50 -27 71c-1 3 -2 4 -5 4l-189 -1c-10 -24 -21 -56 -30 -79l65 -2c0 -22 0 -41 -1 -60h-122
h-79c0 19 0 38 1 59zM270 403h-7c-25 -67 -54 -141 -75 -199c-1 -3 -1 -5 1 -5h153c-23 60 -48 136 -72 204z" />
    <glyph glyph-name="Bsmall" unicode="&#xf762;" horiz-adv-x="542" 
d="M45 60l55 2c2 0 4 1 4 4v378l-59 3c0 21 1 41 1 59c53 1 130 2 185 2c78 0 130 -2 173 -20c37 -17 67 -55 67 -96c0 -55 -43 -97 -98 -116v-5c73 -10 129 -60 129 -123c0 -87 -82 -148 -215 -148h-123h-119v60zM216 448l-1 -157c6 -1 18 -1 30 -1c64 0 116 28 116 83
c0 48 -37 78 -108 78c-18 0 -30 -1 -37 -3zM215 231l-1 -148c-1 -20 16 -25 54 -25c64 0 117 24 117 86c0 44 -36 88 -135 88c-16 0 -28 0 -35 -1z" />
    <glyph glyph-name="Csmall" unicode="&#xf763;" horiz-adv-x="535" 
d="M408 340l-17 85c-1 6 -3 10 -6 12c-14 7 -32 10 -51 10c-34 0 -76 -11 -108 -42c-38 -37 -61 -91 -61 -159c0 -59 13 -104 49 -140c29 -28 75 -41 120 -41c44 0 103 14 140 26c5 -21 10 -44 13 -66c-61 -21 -126 -35 -179 -35c-66 0 -128 14 -175 48
c-52 37 -91 104 -91 186c0 110 52 186 112 232c56 44 129 62 201 62c57 0 94 -6 117 -14c4 -50 8 -102 11 -156c-23 -3 -48 -6 -75 -8z" />
    <glyph glyph-name="Dsmall" unicode="&#xf764;" horiz-adv-x="610" 
d="M45 60l53 2c2 0 4 2 4 4v378l-58 2c0 23 1 42 1 60c59 1 129 2 200 2c99 0 159 -13 205 -38c69 -37 118 -112 118 -198c0 -100 -44 -180 -111 -226c-49 -32 -119 -47 -191 -47c-37 0 -83 1 -110 1h-111v60zM216 446l-2 -364c0 -17 7 -23 42 -23c54 0 97 11 132 41
c38 33 59 96 59 145c0 75 -17 123 -66 165c-34 28 -79 39 -129 39c-15 0 -28 -1 -36 -3z" />
    <glyph glyph-name="Esmall" unicode="&#xf765;" horiz-adv-x="507" 
d="M45 60l53 2c2 0 3 1 3 3v379l-57 2c0 22 0 42 1 61h115h191h88c4 -43 6 -87 8 -134c-22 -2 -45 -5 -70 -7l-13 60c-2 8 -6 12 -19 14c-17 1 -60 4 -114 4h-17v-155c38 1 71 1 107 2c10 0 15 5 16 15l4 31c24 0 47 0 68 -1c0 -26 0 -53 -1 -80v-76c-22 -1 -44 -2 -68 -2
l-4 33c-1 12 -5 16 -17 16c-33 1 -66 2 -105 1l-1 -149c0 -14 4 -17 45 -17c52 0 90 3 103 6c8 1 12 6 16 15l25 63c24 -4 48 -8 69 -12c-9 -46 -19 -91 -29 -134h-279h-119c0 18 0 39 1 60z" />
    <glyph glyph-name="Fsmall" unicode="&#xf766;" horiz-adv-x="491" 
d="M102 444l-57 2v61c40 0 80 -1 117 -1c26 0 173 1 194 1c34 0 58 0 86 1c4 -46 7 -92 10 -141c-22 -2 -46 -4 -70 -7l-16 66c-2 8 -5 13 -19 14c-20 2 -64 5 -116 5c-7 0 -12 0 -15 -1l-1 -171c37 0 73 0 110 1c15 0 19 5 20 15l5 35c24 0 46 0 68 -1c0 -27 -1 -56 -1 -86
c0 -27 -1 -56 -1 -80c-22 -1 -44 -1 -68 -1l-4 39c-1 12 -6 15 -21 15c-34 1 -69 1 -108 1l-1 -148l96 -3c1 -21 0 -40 -1 -60c-42 0 -96 1 -143 1c-39 0 -78 -1 -121 -1c0 19 1 39 1 60l52 2c3 0 4 1 4 4v378z" />
    <glyph glyph-name="Gsmall" unicode="&#xf767;" horiz-adv-x="590" 
d="M548 179l-41 -3c-2 0 -3 -1 -3 -3l-2 -155c-28 -15 -82 -28 -161 -28c-92 0 -161 19 -207 54c-56 44 -91 107 -91 194c0 104 53 181 123 228c57 37 134 52 196 52c61 0 107 -10 134 -22c4 -48 6 -98 8 -150c-24 -3 -49 -5 -75 -6l-15 82c-1 5 -2 9 -6 12
c-16 10 -37 16 -65 16c-35 0 -76 -9 -111 -39c-42 -38 -65 -99 -65 -162c0 -59 15 -111 51 -148c40 -41 92 -49 129 -49c25 0 46 6 46 13v111l-93 2c0 21 0 42 1 62h147h101c0 -20 0 -41 -1 -61z" />
    <glyph glyph-name="Hsmall" unicode="&#xf768;" horiz-adv-x="647" 
d="M47 61l52 3c2 0 3 1 3 4v377l-56 2v60h116h119c1 -18 0 -40 0 -60l-62 -2c-1 0 -2 -2 -2 -3l-1 -142c0 -2 1 -3 4 -3h214v148l-64 2c0 21 1 41 1 60h122h109c0 -18 0 -40 -1 -60l-50 -2c-2 0 -3 -1 -3 -3l-2 -378l57 -3c0 -20 0 -41 -1 -61c-34 0 -75 1 -112 1
c-42 0 -85 -1 -122 -1c0 19 1 41 1 61l61 3c3 0 4 1 4 3v162c0 2 -1 3 -4 3l-214 -1l-1 -167l66 -3v-61c-35 0 -80 1 -122 1c-38 0 -78 -1 -113 -1c0 20 0 41 1 61z" />
    <glyph glyph-name="Ismall" unicode="&#xf769;" horiz-adv-x="319" 
d="M102 444l-64 3c0 21 0 41 1 60c40 0 87 -1 125 -1c39 0 82 1 119 1c0 -18 0 -39 -1 -60l-63 -3c-2 0 -2 -1 -2 -3l-2 -377l68 -3c0 -21 0 -41 -1 -61c-37 0 -81 1 -121 1c-37 0 -81 -1 -122 -1v61l59 3c3 0 4 1 4 4v376z" />
    <glyph glyph-name="Jsmall" unicode="&#xf76a;" horiz-adv-x="478" 
d="M443 448l-56 -3c-2 0 -2 -1 -2 -3c0 -80 0 -164 -1 -247c-1 -66 -11 -110 -46 -149c-33 -36 -88 -64 -182 -64c-43 0 -78 4 -112 11c-8 48 -15 95 -22 144c23 6 48 12 70 16l24 -84c2 -4 4 -7 7 -9c13 -7 39 -10 51 -10c31 0 62 11 78 33c19 28 20 63 20 109
c0 81 0 170 -1 253l-100 3c0 21 0 41 1 59h159h113c0 -18 0 -39 -1 -59z" />
    <glyph glyph-name="Ksmall" unicode="&#xf76b;" horiz-adv-x="588" 
d="M103 444l-55 3c0 21 0 41 1 60c39 0 82 -1 119 -1c35 0 74 1 105 1c0 -19 0 -39 -1 -60l-52 -3c-3 0 -3 -1 -3 -4l-1 -154c10 1 32 1 50 5c29 27 97 106 130 148c2 3 1 4 -2 4l-44 2c0 22 0 42 1 61h122c26 0 54 1 82 1c0 -19 -1 -39 -1 -61l-48 -3
c-58 -61 -110 -114 -157 -162v-5c33 -21 63 -57 90 -105c19 -30 35 -58 57 -90c7 -11 15 -15 32 -16l49 -3c0 -21 0 -43 -1 -61c-32 0 -64 -1 -87 -1c-19 0 -55 -1 -74 -1c-18 23 -49 79 -76 126c-26 51 -61 103 -82 103c-13 0 -33 0 -41 -1l-1 -164l60 -3
c0 -20 0 -40 -1 -60c-32 0 -74 1 -109 1c-36 0 -79 -1 -118 -1c0 20 1 39 1 60l52 3c2 0 3 1 3 3v378z" />
    <glyph glyph-name="Lsmall" unicode="&#xf76c;" horiz-adv-x="488" 
d="M102 444l-55 2c-1 22 0 42 1 61h116h122c0 -18 -1 -39 -2 -61l-66 -2c-1 0 -2 -1 -2 -3l-2 -363c0 -14 0 -17 37 -17c66 0 90 2 106 5c7 2 11 7 14 16l31 85c24 -3 47 -8 70 -13c-10 -52 -22 -106 -34 -155c-59 0 -164 1 -278 1h-114c0 18 0 39 1 60l51 2c3 0 4 1 4 3
v379z" />
    <glyph glyph-name="Msmall" unicode="&#xf76d;" horiz-adv-x="756" 
d="M100 442l-55 2c0 22 1 44 1 63h196c39 -94 93 -240 138 -360l6 1c43 114 96 252 141 359h184c0 -19 0 -40 -1 -62l-50 -3c-1 0 -2 -1 -2 -4c0 -114 0 -255 1 -375l54 -2c0 -21 0 -42 -1 -61h-105h-112c-1 19 0 40 0 61l58 2c2 0 4 1 4 3c1 98 0 215 1 320h-7
c-60 -157 -110 -270 -153 -359c-15 -1 -40 -1 -64 -1c-46 100 -96 219 -147 365h-8c0 -107 -2 -223 -2 -328l67 -2v-61h-110h-92v61l51 2c2 0 4 1 4 3c0 115 2 263 3 376z" />
    <glyph glyph-name="Nsmall" unicode="&#xf76e;" horiz-adv-x="633" 
d="M48 60l49 3c3 0 4 2 4 4v378l-58 2c0 21 1 41 1 59h159c80 -112 183 -264 255 -379h6c-1 104 -2 212 -4 318l-72 1c0 21 0 42 1 60h111c31 0 65 1 95 1c1 -18 0 -39 0 -60l-47 -2c-1 0 -3 -1 -3 -4l-3 -435c-21 -7 -57 -13 -88 -13c-70 89 -173 227 -265 367h-6
c0 -98 -1 -198 0 -297l76 -2c0 -21 -1 -42 -1 -61c-38 0 -81 1 -120 1c-30 0 -60 -1 -91 -1c0 19 0 39 1 60z" />
    <glyph glyph-name="Osmall" unicode="&#xf76f;" horiz-adv-x="628" 
d="M302 -10h-1c-79 0 -141 25 -184 66c-47 43 -75 109 -75 192c0 103 54 186 117 226c52 32 106 44 171 44c61 0 113 -13 159 -46c58 -40 97 -117 97 -205c0 -78 -28 -159 -86 -211c-48 -43 -111 -66 -198 -66zM314 51h1c34 0 72 13 99 45c28 34 48 89 48 157
c0 58 -15 114 -45 153c-26 36 -61 52 -100 52c-38 0 -69 -15 -95 -41c-31 -31 -56 -88 -56 -162c0 -67 15 -123 51 -161c28 -31 64 -43 97 -43z" />
    <glyph glyph-name="Psmall" unicode="&#xf770;" horiz-adv-x="517" 
d="M102 445l-56 1c0 22 1 42 1 60c59 1 124 2 185 2c57 0 96 -1 141 -14c67 -20 106 -77 106 -138c0 -68 -44 -123 -100 -148c-34 -16 -79 -25 -121 -25c-17 0 -39 0 -45 1l-1 -121l86 -2v-61h-145h-106c0 19 0 40 1 60l50 3c2 0 4 0 4 3v379zM214 446l-1 -194
c3 -7 18 -8 36 -8c26 0 52 5 72 19c30 19 42 48 42 85c0 67 -47 101 -117 101c-18 0 -27 -1 -32 -3z" />
    <glyph glyph-name="Qsmall" unicode="&#xf771;" horiz-adv-x="627" 
d="M411 7v-4c40 -25 69 -39 108 -53c25 -9 48 -9 65 -9c19 0 52 5 70 9c3 -19 6 -41 8 -61c-41 -13 -100 -26 -131 -26c-17 0 -38 2 -66 16c-48 24 -95 61 -157 111h-14c-72 0 -135 27 -179 68c-49 47 -74 116 -74 191c0 102 54 183 121 225c47 30 102 44 168 44
c61 0 109 -14 151 -42c66 -43 104 -124 104 -209c0 -90 -39 -166 -89 -211c-28 -25 -60 -42 -85 -49zM166 254v-1c0 -67 13 -124 52 -163c29 -28 62 -40 98 -40c38 0 72 14 98 44c27 34 47 90 47 154s-15 125 -48 164c-27 33 -57 47 -93 47c-39 0 -71 -12 -97 -37
c-32 -29 -57 -93 -57 -168z" />
    <glyph glyph-name="Rsmall" unicode="&#xf772;" horiz-adv-x="562" 
d="M101 444l-55 2c0 21 0 41 1 61c65 0 137 1 200 1c50 0 80 -1 124 -12c63 -14 109 -67 109 -122c0 -66 -47 -115 -108 -137v-4c39 -17 59 -61 97 -133c19 -34 27 -41 37 -41l47 -4c0 -18 0 -36 -2 -54c-24 -1 -51 -1 -71 -1c-16 0 -62 -1 -78 -1c-25 36 -69 130 -91 168
c-15 25 -36 34 -64 34c-15 0 -29 0 -35 -2l-1 -136l60 -3c0 -20 -1 -40 -1 -60h-112h-111v59l50 3c2 0 4 1 4 3v379zM213 445l-1 -183c7 -2 18 -2 34 -2c81 0 118 47 118 94c0 63 -46 95 -113 95c-19 0 -34 -1 -38 -4z" />
    <glyph glyph-name="Ssmall" unicode="&#xf773;" horiz-adv-x="472" 
d="M114 161l18 -80c2 -5 4 -7 7 -10c13 -9 43 -15 67 -15c35 0 69 7 87 24c14 13 20 28 20 47c0 50 -38 61 -111 90c-80 30 -141 72 -141 147c0 45 24 85 55 110c33 27 88 44 169 44c46 0 96 -9 117 -18c5 -44 9 -90 11 -136c-21 -2 -47 -5 -71 -8l-17 75c-1 4 -2 6 -5 8
c-10 8 -33 13 -52 13c-29 0 -57 -6 -73 -19c-15 -11 -25 -29 -25 -48c0 -45 27 -55 111 -86c88 -32 142 -73 142 -148c0 -45 -19 -87 -55 -115c-37 -29 -93 -46 -176 -46c-43 0 -104 8 -136 20c-5 45 -10 92 -15 140c22 5 49 9 73 11z" />
    <glyph glyph-name="Tsmall" unicode="&#xf774;" horiz-adv-x="540" 
d="M146 61l65 3c2 0 3 1 3 3v376c-45 0 -65 -2 -81 -3c-14 -2 -17 -7 -19 -15l-14 -80c-24 1 -50 3 -74 5c3 56 6 107 9 158c29 0 57 -1 88 -1h153h147c34 1 57 1 85 1c3 -50 6 -102 8 -157c-24 -2 -49 -4 -75 -6l-13 80c-1 9 -5 13 -19 15c-19 2 -36 3 -81 3l-2 -379l71 -3
c0 -21 0 -41 -1 -61c-37 0 -83 1 -123 1c-39 0 -84 -1 -128 -1c0 20 0 40 1 61z" />
    <glyph glyph-name="Usmall" unicode="&#xf775;" horiz-adv-x="604" 
d="M202 444l-1 -230c0 -76 11 -104 34 -127c16 -16 40 -29 78 -29c33 0 56 10 74 28c20 20 37 55 37 130c0 66 0 159 -1 225c0 2 -1 3 -3 3l-66 2c0 21 0 42 1 61c35 0 76 -1 115 -1c33 0 66 1 99 1c0 -19 0 -39 -1 -61l-49 -2l-2 -229c-1 -89 -29 -143 -59 -173
c-27 -26 -73 -52 -152 -52c-73 0 -125 15 -163 49c-47 41 -56 98 -56 164v237c0 3 -1 5 -4 5l-48 1c0 22 1 42 1 61c34 0 74 -1 109 -1c44 0 87 1 126 1c0 -19 0 -39 -1 -61z" />
    <glyph glyph-name="Vsmall" unicode="&#xf776;" horiz-adv-x="563" 
d="M562 446l-47 -2c-23 -53 -52 -127 -80 -195c-33 -78 -75 -176 -112 -257c-18 -1 -50 -2 -98 -2c-36 85 -74 183 -105 266c-24 63 -48 132 -66 185c-1 2 -2 3 -5 4l-45 1c0 22 1 42 1 61c33 0 72 -1 105 -1c49 0 100 1 146 1c0 -18 -1 -40 -1 -61l-73 -2
c6 -22 35 -116 45 -150c20 -62 42 -129 62 -196h7c22 58 46 125 65 176c18 50 48 135 57 165c1 3 0 5 -3 5l-63 1c-1 22 0 43 0 61h124c27 0 57 1 86 1c1 -19 0 -39 0 -61z" />
    <glyph glyph-name="Wsmall" unicode="&#xf777;" horiz-adv-x="773" 
d="M771 447l-48 -2c-18 -65 -36 -128 -55 -194c-23 -81 -52 -175 -79 -259c-21 -1 -55 -2 -97 -2c-35 106 -70 214 -99 331h-6c-35 -112 -77 -230 -115 -329c-21 -2 -58 -2 -96 -2c-24 93 -47 179 -68 267c-15 64 -30 129 -42 185c-1 2 -2 3 -4 3l-49 2c0 22 0 42 1 61
c34 0 71 -1 103 -1h140c0 -18 0 -38 -1 -60l-70 -2c4 -28 14 -90 25 -149c10 -65 21 -127 32 -190h5c29 89 88 285 118 374c16 2 62 2 83 2c28 -97 75 -270 103 -377h7c11 56 26 119 37 173c10 48 26 126 32 162c0 3 0 4 -3 4l-64 2c0 22 0 43 1 61h121c28 0 58 1 89 1
c0 -19 0 -39 -1 -61z" />
    <glyph glyph-name="Xsmall" unicode="&#xf778;" horiz-adv-x="554" 
d="M6 60l52 3c3 0 5 1 7 4c48 56 98 117 152 181v6c-49 63 -99 134 -137 187c-1 2 -3 3 -6 3l-53 2c0 22 0 42 1 60h103c49 0 98 1 140 1c0 -19 0 -39 -1 -61l-54 -2c21 -34 65 -101 81 -127h5c22 30 69 100 82 123c1 2 0 4 -3 4l-50 1c0 22 1 43 1 61h123c27 0 56 1 84 1
c0 -19 0 -39 -1 -61l-51 -2c-44 -56 -95 -118 -144 -175v-5c50 -65 110 -145 152 -201l54 -3c0 -21 0 -41 -1 -60h-101h-142c0 19 1 40 1 61l51 2c3 0 5 3 3 5c-16 24 -69 102 -90 130h-5c-22 -30 -78 -110 -95 -135l54 -2c0 -21 0 -42 -1 -61c-37 0 -81 1 -125 1
c-27 0 -58 -1 -87 -1c0 19 0 39 1 60z" />
    <glyph glyph-name="Ysmall" unicode="&#xf779;" horiz-adv-x="514" 
d="M135 61l63 3c3 0 4 1 4 4v125c-44 72 -109 182 -148 249c-2 2 -4 3 -6 3l-43 3c0 21 1 41 1 59h95c50 0 100 1 143 1c0 -19 -1 -39 -1 -61l-61 -2c25 -49 67 -132 96 -185h5c24 44 75 138 94 180c1 3 1 5 -2 5l-54 2c0 21 0 41 1 60h119c24 0 53 1 78 1
c0 -19 0 -39 -1 -61l-44 -2c-42 -66 -109 -174 -159 -251l-1 -130l71 -3c0 -21 -1 -41 -2 -61c-38 0 -83 1 -123 1c-38 0 -83 -1 -126 -1c0 20 0 40 1 61z" />
    <glyph glyph-name="Zsmall" unicode="&#xf77a;" horiz-adv-x="528" 
d="M174 71l1 -3c115 0 168 1 193 8c12 3 19 9 24 22l28 77c27 -4 53 -9 75 -15c-12 -54 -25 -108 -38 -161c-27 0 -143 1 -259 1h-147c-6 15 -13 33 -19 48c103 126 223 277 314 388l-1 4c-112 1 -150 0 -171 -4c-8 -2 -14 -9 -18 -18l-28 -82c-24 4 -51 8 -74 13
c10 54 20 108 30 159c14 0 55 -1 80 -1c101 0 202 0 302 1c8 -20 15 -44 20 -65c-135 -163 -233 -282 -312 -372z" />
    <glyph glyph-name="colonmonetary" unicode="&#x20a1;" horiz-adv-x="545" 
d="M368 32l-10 -109c-14 -2 -31 -2 -46 -2l9 108c-23 0 -44 2 -63 5l-10 -111c-15 -2 -32 -2 -47 -2l11 124c-120 36 -175 140 -175 242c0 144 81 270 220 310l9 117c16 3 34 4 53 4l-10 -110c20 3 40 4 59 4l8 101c16 4 34 5 53 5l-10 -109c46 -2 90 -15 115 -31
c0 -25 -23 -66 -41 -81c-25 17 -57 32 -82 36l-38 -432c44 3 93 17 125 28c5 -19 10 -42 13 -62c-48 -18 -100 -30 -143 -35zM326 100l37 442c-20 2 -42 0 -61 -3l-37 -429c19 -6 38 -9 61 -10zM219 130l33 393c-59 -29 -106 -108 -106 -212c0 -94 25 -145 73 -181z" />
    <glyph glyph-name="rupiah" unicode="&#xf6dd;" horiz-adv-x="1093" 
d="M116 579l-63 2c1 21 1 42 2 63c60 1 135 2 205 2c56 0 84 -1 136 -15c75 -18 131 -85 131 -154c0 -86 -57 -146 -131 -175v-5c46 -21 72 -77 119 -173c24 -48 33 -57 44 -57l83 -3l1 286h-58c0 19 0 40 1 58c29 6 149 31 156 31c2 0 2 -1 2 -3c2 -18 5 -38 6 -53l6 -1
c96 53 114 56 150 56c91 0 154 -98 153 -192c0 -47 -9 -89 -27 -128c-15 -35 -37 -68 -78 -98c-21 -15 -63 -30 -104 -30s-66 7 -92 19l-4 -2c0 -56 -1 -128 -1 -186l88 -2c0 -20 0 -41 -1 -60c-42 0 -95 0 -143 -1c-36 0 -79 0 -113 -1v59l54 4c2 0 4 3 4 5v177
c-35 -1 -70 -1 -98 -2c-19 0 -74 -1 -90 -1c-32 45 -86 172 -113 220c-19 33 -35 45 -73 45c-23 0 -34 -1 -38 -2l-1 -197l69 -3v-62h-128h-117c1 21 1 42 1 62l58 3c2 0 4 1 4 3v511zM232 581l-2 -254c5 -2 19 -2 37 -2c100 0 140 64 140 126c0 85 -55 134 -133 134
c-21 0 -36 -1 -42 -4zM858 354h-1c-28 0 -64 -13 -100 -39c-1 -67 -2 -151 -2 -215c0 -21 43 -44 79 -44c25 0 49 9 68 31c23 26 37 67 37 128c0 41 -6 76 -19 99c-12 22 -32 40 -62 40z" />
    <glyph glyph-name="Tildesmall" unicode="&#xf6fe;" horiz-adv-x="382" 
d="M252 574h-1c-24 0 -44 15 -64 29c-21 14 -35 27 -55 27s-31 -21 -36 -51c-15 -1 -31 0 -45 1c5 60 29 112 82 112c30 0 51 -18 72 -32c18 -12 30 -23 49 -23s29 18 33 51c16 1 31 1 45 0c-3 -61 -24 -114 -80 -114z" />
    <glyph glyph-name="exclamdownsmall" unicode="&#xf7a1;" horiz-adv-x="281" 
d="M139 392h-1c-40 0 -63 31 -63 65s27 61 66 61c36 0 65 -25 65 -60s-27 -66 -67 -66zM77 -10h-1c-1 0 -2 0 -2 2c7 82 24 252 32 342c17 5 56 8 70 9c2 -30 13 -123 16 -159c4 -43 15 -135 20 -179c-29 -8 -98 -15 -135 -15z" />
    <glyph glyph-name="centoldstyle" unicode="&#xf7a2;" horiz-adv-x="425" 
d="M222 -55l1 93c-101 2 -188 50 -188 159c0 99 72 186 192 201v84c19 3 39 5 60 6l-2 -86h12c37 0 73 -9 100 -22c0 -22 -18 -60 -33 -70c-22 13 -54 29 -81 29l-4 -239c31 1 71 12 105 24c5 -15 10 -33 14 -48c-41 -21 -82 -32 -119 -36l-1 -90c-19 -2 -38 -4 -56 -5z
M223 100l2 238c-55 -11 -91 -68 -91 -123c0 -40 11 -66 26 -83c13 -16 38 -28 63 -32z" />
    <glyph glyph-name="Lslashsmall" unicode="&#xf6f9;" horiz-adv-x="500" 
d="M227 237l-1 -159c0 -14 0 -17 37 -17c66 0 90 2 106 5c7 2 11 7 14 16l31 85c24 -3 47 -8 70 -13c-10 -52 -22 -106 -34 -155c-59 0 -164 1 -278 1h-114c0 18 0 39 1 60l51 2c3 0 4 1 4 3v128c-21 -9 -42 -19 -65 -30c-9 17 -18 37 -24 55c31 14 61 28 89 41v185l-56 2
c0 22 1 42 2 61h116h122c0 -18 -1 -39 -2 -61l-66 -2c-1 0 -2 -1 -2 -3l-1 -135c36 16 75 34 116 54c9 -20 17 -41 23 -61c-47 -21 -96 -43 -139 -62z" />
    <glyph glyph-name="Scaronsmall" unicode="&#xf6fd;" horiz-adv-x="472" 
d="M114 161l18 -80c2 -5 4 -7 7 -10c13 -9 43 -15 67 -15c35 0 69 7 87 24c14 13 20 28 20 47c0 50 -38 61 -111 90c-80 30 -141 72 -141 147c0 45 24 85 55 110c33 27 88 44 169 44c46 0 96 -9 117 -18c5 -44 9 -90 11 -136c-21 -2 -47 -5 -71 -8l-17 75c-1 4 -2 6 -5 8
c-10 8 -33 13 -52 13c-29 0 -57 -6 -73 -19c-15 -11 -25 -29 -25 -48c0 -45 27 -55 111 -86c88 -32 142 -73 142 -148c0 -45 -19 -87 -55 -115c-37 -29 -93 -46 -176 -46c-43 0 -104 8 -136 20c-5 45 -10 92 -15 140c22 5 49 9 73 11zM249 654c34 32 70 68 99 95
c13 -10 26 -22 37 -34c-33 -38 -80 -94 -112 -131c-14 -1 -33 -1 -48 0c-35 40 -75 89 -112 131c12 12 26 24 38 33c30 -28 66 -63 98 -94z" />
    <glyph glyph-name="Zcaronsmall" unicode="&#xf6ff;" horiz-adv-x="528" 
d="M174 71l1 -3c115 0 168 1 193 8c12 3 19 9 24 22l28 77c27 -4 53 -9 75 -15c-12 -54 -25 -108 -38 -161c-27 0 -143 1 -259 1h-147c-6 15 -13 33 -19 48c103 126 223 277 314 388l-1 4c-112 1 -150 0 -171 -4c-8 -2 -14 -9 -18 -18l-28 -82c-24 4 -51 8 -74 13
c10 54 20 108 30 159c14 0 55 -1 80 -1c101 0 202 0 302 1c8 -20 15 -44 20 -65c-135 -163 -233 -282 -312 -372zM272 654c34 32 70 68 99 95c13 -10 26 -22 37 -34c-33 -38 -80 -94 -112 -131c-14 -1 -33 -1 -48 0c-35 40 -75 89 -112 131c12 12 26 24 38 33
c30 -28 66 -63 98 -94z" />
    <glyph glyph-name="Dieresissmall" unicode="&#xf7a8;" horiz-adv-x="382" 
d="M107 680h1c34 0 49 -27 49 -50c0 -27 -19 -50 -51 -50c-28 0 -51 21 -51 50c0 23 18 50 52 50zM277 680h1c32 0 50 -27 50 -50c0 -29 -23 -50 -51 -50c-32 0 -51 23 -51 50c0 23 15 50 51 50z" />
    <glyph glyph-name="Brevesmall" unicode="&#xf6f4;" horiz-adv-x="382" 
d="M190 572h-1c-65 0 -116 48 -126 106c16 6 34 11 50 14c14 -35 42 -59 80 -59c39 0 66 29 76 56c16 -2 35 -6 51 -11c-9 -49 -60 -106 -130 -106z" />
    <glyph glyph-name="Caronsmall" unicode="&#xf6f5;" horiz-adv-x="382" 
d="M192 645c34 32 70 68 99 95c13 -10 26 -22 37 -34c-33 -38 -80 -94 -112 -131c-14 -1 -33 -1 -48 0c-35 40 -75 89 -112 131c12 12 26 24 38 33c30 -28 66 -63 98 -94z" />
    <glyph glyph-name="Dotaccentsmall" unicode="&#xf6f7;" horiz-adv-x="382" 
d="M192 693h1c37 0 54 -27 54 -54c0 -30 -22 -55 -56 -55c-30 0 -55 23 -55 55c0 26 19 54 56 54z" />
    <glyph glyph-name="Macronsmall" unicode="&#xf7af;" horiz-adv-x="382" 
d="M300 653c1 -19 1 -40 0 -59c-63 0 -146 1 -217 1c-1 17 -1 38 0 56c73 1 144 2 217 2z" />
    <glyph glyph-name="figuredash" unicode="&#x2012;" horiz-adv-x="541" 
d="M38 331h2c81 0 160 1 237 1c73 0 159 1 228 2c0 -24 -1 -50 -3 -70h-224h-242c0 21 1 46 2 67z" />
    <glyph glyph-name="hypheninferior" unicode="&#xf6e5;" horiz-adv-x="278" 
d="M37 82c34 0 68 1 101 1c36 0 70 0 103 1c0 -20 -1 -42 -2 -61h-104h-99c0 19 0 39 1 59z" />
    <glyph glyph-name="Ogoneksmall" unicode="&#xf6fb;" horiz-adv-x="382" 
d="M310 6h45c-42 -32 -64 -70 -64 -104c0 -32 22 -48 48 -48c14 0 29 4 39 8c4 -14 8 -27 11 -40c-20 -12 -45 -18 -69 -18c-50 0 -101 28 -101 82c0 39 28 85 91 120z" />
    <glyph glyph-name="Ringsmall" unicode="&#xf6fc;" horiz-adv-x="382" 
d="M193 753h1c62 0 106 -37 106 -89c0 -54 -48 -94 -108 -94c-59 0 -109 34 -109 92c0 46 48 91 110 91zM193 711h-1c-29 0 -51 -22 -51 -50c0 -29 24 -49 52 -49c32 0 50 22 50 50c0 30 -18 49 -50 49z" />
    <glyph glyph-name="Cedillasmall" unicode="&#xf7b8;" horiz-adv-x="382" 
d="M224 -73l82 74h64l-70 -66c37 -7 62 -34 62 -69c0 -54 -52 -93 -143 -94c-3 14 -4 31 -5 44c48 3 77 17 77 46c0 12 -5 20 -12 27c-10 9 -25 12 -45 11c-4 8 -7 19 -10 27z" />
    <glyph glyph-name="questiondownsmall" unicode="&#xf7bf;" horiz-adv-x="445" 
d="M230 401h-1c-38 0 -63 26 -63 61c0 30 27 56 65 56c35 0 65 -24 65 -56s-27 -61 -66 -61zM39 113v1c0 75 55 119 143 163c12 6 17 12 17 21c0 13 -4 33 -10 54c20 8 50 14 79 16c14 -17 37 -67 37 -97c-98 -54 -142 -85 -142 -144c0 -46 31 -68 76 -68c28 0 53 8 67 18
c4 2 4 5 6 9l16 70c25 -2 50 -4 74 -8c-2 -43 -5 -84 -8 -125c-38 -18 -103 -33 -176 -33c-114 0 -179 49 -179 123z" />
    <glyph glyph-name="oneeighth" unicode="&#x215b;" horiz-adv-x="800" 
d="M234 360l79 -1v-46h-118h-132c0 14 0 30 1 46l86 1c2 0 2 1 2 3v207c-26 -5 -54 -10 -88 -17c-3 15 -6 32 -8 47c71 20 166 56 178 56c1 0 1 -1 1 -3c0 -89 -1 -200 -1 -293zM242 -17c-17 8 -35 16 -52 26c54 92 116 198 171 294c62 109 131 231 202 358
c19 -7 40 -16 57 -27c-73 -126 -148 -257 -207 -360c-50 -86 -123 -209 -171 -291zM678 181v-3c49 -16 76 -47 75 -84c0 -28 -13 -54 -34 -71c-26 -20 -64 -31 -113 -31c-47 0 -79 8 -103 25c-20 14 -32 35 -32 62c0 37 27 70 74 89v4c-36 16 -59 41 -59 76
c0 24 13 49 36 66c22 15 55 25 98 25s71 -8 90 -22c18 -13 29 -34 29 -56c0 -39 -29 -65 -61 -80zM563 254v-1c0 -22 17 -36 65 -53c24 13 36 33 36 53c0 14 -4 23 -11 30c-7 8 -20 13 -36 13s-29 -3 -38 -10c-9 -6 -16 -18 -16 -32zM672 83v1c0 29 -24 44 -77 63
c-25 -13 -42 -36 -42 -61c0 -17 7 -29 18 -38c10 -8 27 -13 42 -13s30 3 41 11c11 7 18 20 18 37z" />
    <glyph glyph-name="threeeighths" unicode="&#x215c;" horiz-adv-x="800" 
d="M115 416l12 -51c1 -3 2 -4 4 -6c7 -4 23 -7 35 -7c21 0 38 4 48 13c12 8 20 19 20 38c0 36 -29 56 -81 56h-37c-1 17 -1 32 -1 48c86 -1 113 23 113 57c0 14 -4 23 -12 30c-9 8 -22 11 -40 11c-13 0 -31 -4 -40 -10c-2 -2 -3 -3 -3 -5l-9 -49c-19 1 -37 2 -57 3
c2 32 3 61 4 89c30 11 71 19 116 19c41 0 76 -5 97 -22c17 -13 31 -34 31 -55c0 -40 -26 -68 -74 -81v-4c57 -8 82 -46 82 -81c0 -36 -18 -61 -44 -77c-23 -16 -62 -27 -119 -27c-35 0 -65 2 -92 8c-4 30 -7 61 -11 95c20 3 39 6 58 8zM235 -17c-16 8 -34 16 -52 26
c54 91 116 197 171 293c63 110 132 232 203 359c19 -7 39 -16 56 -27c-72 -126 -147 -257 -207 -360c-50 -86 -123 -209 -171 -291zM670 181v-3c49 -16 76 -46 76 -84c0 -28 -13 -54 -34 -71c-26 -20 -64 -31 -113 -31c-47 0 -79 8 -103 25c-20 14 -32 35 -32 62
c0 37 27 71 74 89v4c-36 16 -59 41 -59 76c0 24 13 49 36 66c22 15 55 25 97 25c43 0 71 -8 90 -22c18 -13 29 -34 29 -56c0 -39 -29 -65 -61 -80zM556 254v-1c0 -22 17 -36 65 -53c23 13 35 33 35 53c0 14 -4 23 -11 30c-7 8 -20 13 -36 13s-28 -3 -37 -10
c-9 -6 -16 -18 -16 -32zM665 83v1c0 30 -24 44 -77 64c-25 -14 -42 -37 -42 -62c0 -17 7 -29 18 -38c10 -8 27 -13 42 -13s30 3 41 11c11 7 18 20 18 37z" />
    <glyph glyph-name="fiveeighths" unicode="&#x215d;" horiz-adv-x="800" 
d="M85 470l-7 7c5 50 13 117 20 167h111h109c0 -18 -2 -39 -4 -57h-154c-4 -17 -8 -40 -12 -60c15 1 29 2 44 2c80 0 133 -39 133 -100c0 -44 -21 -76 -47 -94c-27 -20 -66 -30 -122 -30c-32 0 -63 2 -81 7c-5 30 -10 62 -13 93c17 4 38 8 56 10l14 -52c1 -3 2 -4 4 -6
c8 -4 21 -5 33 -5c21 0 39 5 51 15c13 11 20 26 20 45c0 38 -29 62 -88 62c-25 0 -58 -3 -67 -4zM232 -17c-17 8 -35 16 -52 26c54 92 116 198 171 294c62 109 131 231 202 358c19 -7 40 -16 57 -27c-73 -126 -148 -257 -207 -360c-50 -86 -123 -209 -171 -291zM667 181v-3
c49 -16 76 -47 76 -84c0 -28 -13 -54 -34 -71c-26 -20 -64 -31 -114 -31c-47 0 -79 8 -103 25c-20 14 -32 35 -32 62c0 37 27 71 75 89v4c-36 16 -59 41 -59 76c0 24 13 49 36 66c22 15 55 25 97 25c43 0 71 -8 90 -22c18 -13 29 -34 29 -56c0 -39 -29 -65 -61 -80zM553 254
v-1c0 -22 17 -36 65 -53c23 13 35 33 35 53c0 14 -4 23 -11 30c-7 8 -20 13 -36 13s-28 -3 -37 -10c-9 -6 -16 -18 -16 -32zM662 83v1c0 30 -24 44 -78 64c-24 -14 -42 -37 -42 -62c0 -17 7 -29 18 -38c10 -8 28 -13 43 -13s30 3 41 11c11 7 18 20 18 37z" />
    <glyph glyph-name="seveneighths" unicode="&#x215e;" horiz-adv-x="800" 
d="M270 581l-1 3c-77 1 -106 1 -118 -1c-6 0 -10 -5 -12 -11l-13 -44c-17 2 -38 6 -56 9c6 36 12 73 17 108c19 -1 41 -1 61 -1h185c6 -17 13 -38 17 -54c-55 -84 -96 -162 -112 -218c-5 -17 -7 -42 -7 -61c-29 -2 -67 -3 -85 -3c-1 26 4 49 11 67c19 49 63 124 113 206z
M199 -17c-16 8 -34 16 -52 26c55 92 116 198 171 294c63 109 131 231 202 358c19 -7 40 -16 57 -27c-73 -126 -148 -257 -207 -360c-49 -86 -122 -209 -171 -291zM634 182v-4c49 -15 76 -46 76 -84c0 -28 -13 -54 -34 -71c-26 -20 -64 -31 -113 -31c-47 0 -79 8 -103 25
c-20 14 -32 35 -32 62c0 37 27 71 74 90v3c-36 17 -59 41 -59 76c0 24 13 49 36 66c22 15 55 25 97 25c43 0 71 -8 90 -22c18 -13 29 -34 29 -56c0 -39 -29 -65 -61 -79zM520 254v-1c0 -21 17 -36 65 -52c23 13 35 32 35 52c0 14 -4 23 -11 30c-7 8 -20 13 -36 13
s-28 -3 -37 -10c-9 -6 -16 -18 -16 -32zM629 83v1c0 30 -24 44 -77 64c-25 -14 -42 -37 -42 -62c0 -17 7 -29 18 -38c10 -8 27 -13 42 -13s30 3 41 11c11 7 18 20 18 37z" />
    <glyph glyph-name="onethird" unicode="&#x2153;" horiz-adv-x="800" 
d="M230 360l79 -1v-46h-118h-132c0 14 0 30 1 46l86 1c2 0 2 1 2 3v207c-26 -5 -54 -10 -88 -17c-3 15 -6 32 -8 47c71 20 166 56 178 56c1 0 1 -1 1 -3c0 -89 -1 -200 -1 -293zM238 -17c-17 8 -35 16 -52 26c54 91 116 198 171 294c62 109 131 231 202 358
c19 -7 40 -16 57 -27c-73 -126 -148 -257 -207 -360c-50 -86 -123 -209 -171 -291zM537 103l13 -51c1 -3 2 -4 4 -6c7 -4 23 -7 35 -7c21 0 38 4 48 13c12 8 20 19 20 38c0 36 -29 56 -81 56h-37c-1 17 -1 32 -1 48c85 -1 112 23 112 57c0 14 -4 23 -12 30
c-8 8 -22 11 -39 11c-13 0 -31 -4 -40 -10c-2 -2 -3 -3 -3 -5l-9 -49l-57 3c2 32 3 61 4 89c30 11 71 19 116 19c40 0 75 -5 96 -22c17 -13 31 -34 31 -55c0 -40 -26 -68 -73 -81v-4c57 -8 82 -46 82 -81c0 -36 -18 -61 -44 -77c-23 -16 -62 -27 -119 -27c-35 0 -65 2 -92 8
c-4 30 -7 61 -12 95c20 3 39 6 58 8z" />
    <glyph glyph-name="twothirds" unicode="&#x2154;" horiz-adv-x="800" 
d="M304 551v-1c0 -65 -64 -117 -103 -145c-17 -14 -32 -23 -46 -32l1 -5c31 0 115 4 151 5c1 0 2 0 2 -2c0 -20 -1 -40 -3 -58h-172h-81c-4 13 -9 28 -13 42c42 27 62 42 90 66c40 33 86 75 86 127c0 18 -6 31 -15 41c-8 10 -25 14 -38 14c-16 0 -31 -3 -41 -12
c-2 -1 -3 -3 -3 -6l-10 -56c-19 1 -38 3 -56 4c2 36 4 69 6 100c26 11 68 20 114 20s79 -10 99 -28s32 -41 32 -74zM243 -17c-17 8 -35 16 -53 26c55 91 117 198 172 293c62 110 131 232 202 359c19 -7 40 -16 57 -27c-73 -126 -148 -257 -207 -360
c-50 -86 -123 -209 -171 -291zM542 103l12 -51c1 -3 2 -4 4 -6c7 -4 23 -7 35 -7c21 0 38 4 48 13c12 8 20 19 20 38c0 36 -29 56 -81 56h-37c-1 17 -1 32 -1 48c86 -1 113 23 113 57c0 14 -4 23 -12 30c-9 8 -22 11 -40 11c-13 0 -31 -4 -40 -10c-2 -2 -3 -3 -3 -5l-9 -49
c-19 1 -37 2 -57 3c2 32 3 61 4 89c30 11 71 19 116 19c41 0 76 -5 97 -22c17 -13 31 -34 31 -55c0 -40 -26 -68 -74 -81v-4c57 -8 82 -46 82 -81c0 -36 -18 -61 -44 -77c-23 -16 -62 -27 -119 -27c-35 0 -65 2 -92 8c-4 30 -7 61 -11 95c20 3 39 6 58 8z" />
    <glyph glyph-name="zerosuperior" unicode="&#x2070;" 
d="M320 586v-1c0 -66 -19 -115 -51 -145c-23 -21 -55 -32 -95 -32c-36 0 -67 11 -90 33c-26 26 -45 68 -45 129c0 69 21 121 53 151c23 23 55 34 95 34c38 0 69 -11 92 -37c24 -26 41 -69 41 -132zM181 711h-1c-11 0 -24 -6 -34 -21c-11 -19 -19 -55 -19 -117
c0 -54 7 -86 18 -102c8 -13 20 -18 34 -18c10 0 25 3 33 16c12 16 20 47 20 106c0 56 -5 93 -15 113c-8 15 -20 23 -36 23z" />
    <glyph glyph-name="foursuperior" unicode="&#x2074;" 
d="M268 457l42 -1v-40h-88h-95c0 12 0 27 1 39l67 2c2 0 3 1 3 2v37h-153c-9 16 -17 34 -23 50c25 32 47 61 78 101c37 46 62 78 86 106c29 0 57 -1 84 -2c0 -62 -1 -137 -1 -203h61c0 -16 -1 -32 -2 -50h-60v-41zM199 685h-7c-21 -29 -36 -48 -54 -71
c-18 -25 -35 -47 -43 -60c-2 -3 -1 -6 3 -6h100z" />
    <glyph glyph-name="fivesuperior" unicode="&#x2075;" 
d="M68 574l-7 7c5 50 13 117 20 167h111h109c0 -18 -2 -39 -4 -58c-55 0 -107 1 -154 1c-4 -18 -8 -41 -12 -61c15 1 29 2 44 2c80 0 133 -39 133 -100c0 -44 -21 -76 -47 -94c-27 -20 -66 -30 -122 -30c-32 0 -63 2 -81 7c-5 30 -10 62 -13 93c17 4 38 8 56 10l14 -52
c1 -3 2 -4 4 -6c8 -4 21 -5 33 -5c21 0 39 5 51 15c13 11 20 26 20 46c0 38 -29 62 -88 62c-25 0 -58 -3 -67 -4z" />
    <glyph glyph-name="sixsuperior" unicode="&#x2076;" 
d="M127 601h3c22 15 48 26 81 26c34 0 58 -11 74 -25c19 -17 33 -45 33 -75c0 -39 -16 -70 -41 -90c-24 -20 -55 -29 -97 -29c-38 0 -71 10 -95 31c-25 23 -43 59 -43 120c0 59 19 116 57 153c28 27 68 43 121 43c29 0 51 -4 67 -8c3 -26 7 -54 9 -83c-17 -3 -37 -7 -56 -9
l-11 43c-1 3 -2 5 -5 6c-4 2 -12 4 -20 4c-16 0 -33 -7 -45 -21c-17 -20 -28 -50 -32 -86zM185 451h1c12 0 26 5 35 16c9 13 12 28 12 48c0 23 -6 41 -18 52c-7 7 -18 10 -31 10c-15 0 -39 -9 -55 -30c-1 -37 7 -64 21 -80c8 -10 22 -16 35 -16z" />
    <glyph glyph-name="sevensuperior" unicode="&#x2077;" 
d="M241 685l-1 3c-77 1 -106 1 -118 -1c-6 0 -10 -5 -12 -11l-13 -44c-17 2 -38 6 -56 9c6 36 12 73 17 108c19 -1 41 -1 61 -1h185c7 -17 13 -38 17 -54c-55 -85 -96 -163 -112 -218c-5 -18 -7 -42 -7 -62c-29 -2 -67 -3 -85 -3c-1 27 4 49 11 68c19 49 63 124 113 206z
" />
    <glyph glyph-name="eightsuperior" unicode="&#x2078;" 
d="M244 597v-3c49 -16 76 -47 75 -84c0 -28 -13 -54 -34 -71c-26 -20 -64 -31 -113 -31c-47 0 -79 8 -103 25c-20 14 -32 35 -32 62c0 37 27 71 74 89v4c-36 16 -59 41 -59 76c0 24 13 50 36 66c22 15 55 25 98 25s71 -8 90 -22c18 -13 29 -34 29 -56c0 -39 -29 -65 -61 -80
zM129 670v-1c0 -22 17 -36 65 -53c24 13 36 33 36 53c0 14 -4 23 -11 30c-7 8 -20 13 -36 13s-29 -3 -38 -10c-9 -6 -16 -18 -16 -32zM238 499v1c0 30 -24 44 -77 64c-25 -14 -42 -37 -42 -62c0 -17 7 -29 18 -38c10 -8 27 -13 42 -13s30 3 41 11c11 7 18 20 18 37z" />
    <glyph glyph-name="ninesuperior" unicode="&#x2079;" 
d="M229 562l-3 1c-20 -15 -49 -26 -80 -26c-32 0 -61 12 -78 28c-16 15 -30 41 -30 71c0 36 16 65 41 88c23 19 55 31 97 31c38 0 73 -11 95 -33c24 -23 43 -59 43 -121c0 -64 -21 -119 -58 -152c-28 -26 -66 -41 -119 -41c-33 0 -58 3 -75 8c-4 27 -9 55 -13 81
c18 5 37 9 55 12l14 -42c2 -5 5 -7 7 -9c5 -2 15 -3 23 -3c16 0 39 6 50 20c17 20 28 50 31 87zM171 712h-1c-12 0 -25 -5 -33 -16c-9 -12 -15 -27 -15 -49c0 -20 6 -37 15 -47c8 -10 21 -14 35 -14c16 0 40 9 55 28c1 35 -7 65 -21 82c-7 10 -19 16 -35 16z" />
    <glyph glyph-name="zeroinferior" unicode="&#x2080;" 
d="M320 57v-1c0 -66 -19 -115 -51 -145c-23 -21 -55 -32 -95 -32c-36 0 -67 11 -90 33c-26 26 -45 68 -45 129c0 69 21 121 53 151c23 23 55 34 95 34c38 0 69 -11 92 -37c24 -26 41 -69 41 -132zM181 182h-1c-11 0 -24 -6 -34 -21c-11 -19 -19 -55 -19 -117
c0 -54 7 -86 18 -102c8 -13 20 -18 34 -18c10 0 25 3 33 16c12 16 20 47 20 106c0 56 -5 93 -15 113c-8 15 -20 23 -36 23z" />
    <glyph glyph-name="oneinferior" unicode="&#x2081;" 
d="M235 -66l79 -1v-46h-118h-132c0 14 0 30 1 46l86 1c2 0 2 1 2 3v207c-26 -5 -54 -10 -88 -17c-3 16 -6 32 -8 47c71 21 166 56 178 56c1 0 1 0 1 -3c0 -89 -1 -200 -1 -293z" />
    <glyph glyph-name="twoinferior" unicode="&#x2082;" 
d="M304 126v-1c0 -66 -64 -117 -103 -146c-17 -13 -32 -23 -46 -32l1 -5c31 0 115 4 151 5c1 0 2 0 2 -2c0 -20 -1 -40 -3 -58h-172h-81c-4 13 -9 28 -13 42c42 27 62 42 90 66c40 33 86 75 86 127c0 18 -6 31 -15 41c-8 10 -25 14 -38 14c-16 0 -31 -3 -41 -12
c-2 -1 -3 -3 -3 -6l-10 -56c-19 1 -38 3 -56 4c2 36 4 69 6 100c26 11 68 20 114 20s79 -10 99 -28s32 -41 32 -73z" />
    <glyph glyph-name="threeinferior" unicode="&#x2083;" 
d="M103 -10l12 -51c1 -3 2 -4 4 -6c7 -4 23 -7 35 -7c21 0 38 4 48 13c12 8 20 19 20 38c0 36 -29 56 -81 56h-37c-1 17 -1 32 -1 48c86 -1 113 23 113 57c0 14 -4 23 -12 30c-9 8 -22 11 -40 11c-13 0 -31 -4 -40 -10c-2 -2 -3 -3 -3 -5l-9 -49c-19 1 -37 2 -57 3
c2 32 3 61 4 89c30 11 71 19 116 19c41 0 76 -6 97 -22c17 -13 31 -34 31 -55c0 -40 -26 -68 -74 -81v-4c57 -8 82 -46 82 -81c0 -36 -18 -61 -44 -77c-23 -16 -62 -27 -119 -27c-35 0 -65 2 -92 8c-4 30 -7 61 -11 95c20 3 39 6 58 8z" />
    <glyph glyph-name="fourinferior" unicode="&#x2084;" 
d="M268 -72l42 -1v-40h-88h-95c0 12 0 27 1 39l67 2c2 0 3 1 3 2v37h-153c-9 16 -17 34 -23 50c25 32 47 61 78 101c37 46 62 78 86 106c29 0 57 -1 84 -2c0 -62 -1 -137 -1 -203h61c0 -16 -1 -32 -2 -50h-60v-41zM199 156h-7c-21 -29 -36 -48 -54 -71
c-18 -25 -35 -47 -43 -60c-2 -3 -1 -6 3 -6h100z" />
    <glyph glyph-name="fiveinferior" unicode="&#x2085;" 
d="M68 45l-7 7c5 50 13 117 20 167h111h109c0 -18 -2 -39 -4 -58c-55 0 -107 1 -154 1c-4 -18 -8 -41 -12 -61c15 1 29 2 44 2c80 0 133 -39 133 -100c0 -44 -21 -76 -47 -94c-27 -20 -66 -30 -122 -30c-32 0 -63 2 -81 7c-5 30 -10 62 -13 93c17 4 38 8 56 10l14 -52
c1 -3 2 -4 4 -6c8 -4 21 -5 33 -5c21 0 39 5 51 15c13 11 20 26 20 46c0 38 -29 62 -88 62c-25 0 -58 -3 -67 -4z" />
    <glyph glyph-name="sixinferior" unicode="&#x2086;" 
d="M127 72h3c22 15 48 26 81 26c34 0 58 -11 74 -25c19 -17 33 -45 33 -75c0 -39 -16 -70 -41 -90c-24 -20 -55 -29 -97 -29c-38 0 -71 10 -95 31c-25 23 -43 59 -43 120c0 59 19 116 57 153c28 27 68 43 121 43c29 0 51 -4 67 -8c3 -26 7 -54 9 -83c-17 -3 -37 -7 -56 -9
l-11 43c-1 3 -2 5 -5 6c-4 2 -12 4 -20 4c-16 0 -33 -7 -45 -21c-17 -20 -28 -50 -32 -86zM185 -78h1c12 0 26 5 35 16c9 13 12 28 12 48c0 23 -6 41 -18 52c-7 7 -18 10 -31 10c-15 0 -39 -9 -55 -30c-1 -37 7 -64 21 -80c8 -10 22 -16 35 -16z" />
    <glyph glyph-name="seveninferior" unicode="&#x2087;" 
d="M241 156l-1 3c-77 1 -106 1 -118 -1c-6 0 -10 -5 -12 -11l-13 -44c-17 2 -38 6 -56 9c6 36 12 73 17 108c19 -1 41 -1 61 -1h185c7 -17 13 -38 17 -54c-55 -85 -96 -163 -112 -218c-5 -18 -7 -42 -7 -62c-29 -2 -67 -3 -85 -3c-1 27 4 49 11 68c19 49 63 124 113 206z
" />
    <glyph glyph-name="eightinferior" unicode="&#x2088;" 
d="M244 68v-3c49 -16 76 -47 75 -84c0 -28 -13 -54 -34 -71c-26 -20 -64 -31 -113 -31c-47 0 -79 8 -103 25c-20 14 -32 35 -32 62c0 37 27 71 74 89v4c-36 16 -59 41 -59 76c0 24 13 50 36 66c22 15 55 25 98 25s71 -8 90 -22c18 -13 29 -34 29 -56c0 -39 -29 -65 -61 -80z
M129 141v-1c0 -22 17 -36 65 -53c24 13 36 33 36 53c0 14 -4 23 -11 30c-7 8 -20 13 -36 13s-29 -3 -38 -10c-9 -6 -16 -18 -16 -32zM238 -30v1c0 30 -24 44 -77 64c-25 -14 -42 -37 -42 -62c0 -17 7 -29 18 -38c10 -8 27 -13 42 -13s30 3 41 11c11 7 18 20 18 37z" />
    <glyph glyph-name="nineinferior" unicode="&#x2089;" 
d="M229 33l-3 1c-20 -15 -49 -26 -80 -26c-32 0 -61 12 -78 28c-16 15 -30 41 -30 71c0 36 16 65 41 88c23 19 55 31 97 31c38 0 73 -11 95 -33c24 -23 43 -59 43 -121c0 -64 -21 -119 -58 -152c-28 -26 -66 -41 -119 -41c-33 0 -58 3 -75 8c-4 27 -9 55 -13 81
c18 5 37 9 55 12l14 -42c2 -5 5 -7 7 -9c5 -2 15 -3 23 -3c16 0 39 6 50 20c17 20 28 50 31 87zM171 183h-1c-12 0 -25 -5 -33 -16c-9 -12 -15 -27 -15 -49c0 -20 6 -37 15 -47c8 -10 21 -14 35 -14c16 0 40 9 55 28c1 35 -7 65 -21 82c-7 10 -19 16 -35 16z" />
    <glyph glyph-name="centinferior" unicode="&#xf6df;" 
d="M180 -130l1 62c-68 2 -135 34 -135 108c0 69 50 130 138 138v56c14 2 31 3 46 3l-1 -57h6c24 0 53 -6 76 -16c0 -18 -13 -48 -25 -56c-17 10 -40 22 -59 22l-2 -149c23 1 50 9 76 20c4 -12 9 -27 12 -41c-28 -13 -62 -23 -88 -26l-1 -61c-14 -1 -29 -2 -44 -3zM181 -18
l2 147c-37 -4 -63 -39 -63 -78c0 -27 10 -46 27 -58c9 -6 21 -10 34 -11z" />
    <glyph glyph-name="dollarinferior" unicode="&#xf6e3;" 
d="M209 167l-2 -84c63 -15 104 -37 104 -87c0 -30 -11 -55 -33 -72c-18 -15 -49 -27 -88 -29l-1 -55l-42 -3l1 58c-37 0 -82 8 -113 25c1 14 16 43 28 53c24 -16 55 -30 85 -32l2 89c-63 17 -104 37 -104 90c0 26 16 51 38 66c18 13 46 23 83 25l1 55c14 3 30 4 44 4l-1 -58
c37 -1 70 -9 91 -19c0 -16 -14 -43 -26 -53c-21 14 -45 26 -67 27zM165 91l2 76c-18 0 -30 -5 -38 -11c-8 -7 -13 -17 -13 -27c0 -19 14 -29 49 -38zM193 22l-2 -82c17 1 29 5 37 11c9 7 14 17 14 30c0 20 -13 32 -49 41z" />
    <glyph glyph-name="periodinferior" unicode="&#xf6e7;" horiz-adv-x="245" 
d="M123 -12h1c36 0 53 -28 53 -54c0 -31 -22 -55 -55 -55c-30 0 -55 22 -55 54c0 27 20 55 56 55z" />
    <glyph glyph-name="commainferior" unicode="&#xf6e1;" horiz-adv-x="245" 
d="M183 -91v-1c0 -63 -45 -122 -107 -157c-10 12 -21 24 -30 36c44 30 60 58 60 85c0 26 -26 38 -46 43c-5 42 22 73 52 73c37 0 71 -37 71 -79z" />
    <glyph glyph-name="Agravesmall" unicode="&#xf7e0;" horiz-adv-x="553" 
d="M1 59l41 3c3 0 4 1 6 3c55 132 129 313 188 448c17 1 48 2 95 2c53 -137 122 -325 174 -453l46 -2c0 -22 0 -41 -1 -60h-93h-128c0 19 1 38 1 60l56 2c2 0 3 2 2 5c-8 22 -19 50 -27 71c-1 3 -2 4 -5 4l-189 -1c-10 -24 -21 -56 -30 -79l65 -2c0 -22 0 -41 -1 -60h-122
h-79c0 19 0 38 1 59zM270 403h-7c-25 -67 -54 -141 -75 -199c-1 -3 -1 -5 1 -5h153c-23 60 -48 136 -72 204zM187 722c53 -33 116 -75 167 -108c-8 -16 -17 -31 -27 -46c-55 27 -122 60 -180 87c12 22 26 47 40 67z" />
    <glyph glyph-name="Aacutesmall" unicode="&#xf7e1;" horiz-adv-x="553" 
d="M1 59l41 3c3 0 4 1 6 3c55 132 129 313 188 448c17 1 48 2 95 2c53 -137 122 -325 174 -453l46 -2c0 -22 0 -41 -1 -60h-93h-128c0 19 1 38 1 60l56 2c2 0 3 2 2 5c-8 22 -19 50 -27 71c-1 3 -2 4 -5 4l-189 -1c-10 -24 -21 -56 -30 -79l65 -2c0 -22 0 -41 -1 -60h-122
h-79c0 19 0 38 1 59zM270 403h-7c-25 -67 -54 -141 -75 -199c-1 -3 -1 -5 1 -5h153c-23 60 -48 136 -72 204zM383 721c15 -21 28 -46 39 -68c-61 -28 -127 -59 -184 -85c-9 15 -18 31 -26 47c54 33 117 73 171 106z" />
    <glyph glyph-name="Acircumflexsmall" unicode="&#xf7e2;" horiz-adv-x="553" 
d="M1 59l41 3c3 0 4 1 6 3c55 132 129 313 188 448c17 1 48 2 95 2c53 -137 122 -325 174 -453l46 -2c0 -22 0 -41 -1 -60h-93h-128c0 19 1 38 1 60l56 2c2 0 3 2 2 5c-8 22 -19 50 -27 71c-1 3 -2 4 -5 4l-189 -1c-10 -24 -21 -56 -30 -79l65 -2c0 -22 0 -41 -1 -60h-122
h-79c0 19 0 38 1 59zM270 403h-7c-25 -67 -54 -141 -75 -199c-1 -3 -1 -5 1 -5h153c-23 60 -48 136 -72 204zM285 656c-32 -30 -68 -65 -98 -93c-12 10 -26 21 -38 33c37 43 78 91 112 131c16 0 34 1 48 0c33 -37 79 -93 112 -131c-11 -11 -24 -24 -37 -34
c-29 28 -66 64 -99 94z" />
    <glyph glyph-name="Atildesmall" unicode="&#xf7e3;" horiz-adv-x="553" 
d="M1 59l41 3c3 0 4 1 6 3c55 132 129 313 188 448c17 1 48 2 95 2c53 -137 122 -325 174 -453l46 -2c0 -22 0 -41 -1 -60h-93h-128c0 19 1 38 1 60l56 2c2 0 3 2 2 5c-8 22 -19 50 -27 71c-1 3 -2 4 -5 4l-189 -1c-10 -24 -21 -56 -30 -79l65 -2c0 -22 0 -41 -1 -60h-122
h-79c0 19 0 38 1 59zM270 403h-7c-25 -67 -54 -141 -75 -199c-1 -3 -1 -5 1 -5h153c-23 60 -48 136 -72 204zM340 575h-1c-24 0 -44 15 -64 29c-21 14 -35 27 -55 27s-31 -21 -36 -51c-15 -1 -31 0 -45 1c5 60 29 112 82 112c30 0 51 -18 72 -32c18 -12 30 -23 49 -23
s29 18 33 51c16 1 31 1 45 0c-3 -61 -24 -114 -80 -114z" />
    <glyph glyph-name="Adieresissmall" unicode="&#xf7e4;" horiz-adv-x="553" 
d="M1 59l41 3c3 0 4 1 6 3c55 132 129 313 188 448c17 1 48 2 95 2c53 -137 122 -325 174 -453l46 -2c0 -22 0 -41 -1 -60h-93h-128c0 19 1 38 1 60l56 2c2 0 3 2 2 5c-8 22 -19 50 -27 71c-1 3 -2 4 -5 4l-189 -1c-10 -24 -21 -56 -30 -79l65 -2c0 -22 0 -41 -1 -60h-122
h-79c0 19 0 38 1 59zM270 403h-7c-25 -67 -54 -141 -75 -199c-1 -3 -1 -5 1 -5h153c-23 60 -48 136 -72 204zM198 682h1c34 0 49 -27 49 -50c0 -27 -19 -50 -51 -50c-28 0 -51 21 -51 50c0 23 18 50 52 50zM368 682h1c32 0 50 -27 50 -50c0 -29 -23 -50 -51 -50
c-32 0 -51 23 -51 50c0 23 15 50 51 50z" />
    <glyph glyph-name="Aringsmall" unicode="&#xf7e5;" horiz-adv-x="553" 
d="M1 59l41 3c3 0 4 1 6 3c55 132 129 313 188 448c17 1 48 2 95 2c53 -137 122 -325 174 -453l46 -2c0 -22 0 -41 -1 -60h-93h-128c0 19 1 38 1 60l56 2c2 0 3 2 2 5c-8 22 -19 50 -27 71c-1 3 -2 4 -5 4l-189 -1c-10 -24 -21 -56 -30 -79l65 -2c0 -22 0 -41 -1 -60h-122
h-79c0 19 0 38 1 59zM270 403h-7c-25 -67 -54 -141 -75 -199c-1 -3 -1 -5 1 -5h153c-23 60 -48 136 -72 204zM285 757h1c62 0 106 -37 106 -89c0 -54 -48 -94 -108 -94c-59 0 -109 34 -109 92c0 46 48 91 110 91zM285 715h-1c-29 0 -51 -22 -51 -50c0 -29 24 -49 52 -49
c32 0 50 22 50 50c0 30 -18 49 -50 49z" />
    <glyph glyph-name="AEsmall" unicode="&#xf7e6;" horiz-adv-x="777" 
d="M372 187l-152 -1c-23 -39 -47 -84 -69 -123l61 -3v-60h-133h-84c0 19 0 38 1 60l54 4c2 0 4 1 5 3c78 127 184 302 271 437c3 3 5 3 8 3h100h189h88c4 -43 6 -90 8 -134c-22 -3 -46 -5 -70 -7l-13 61c-2 8 -6 13 -19 14c-18 1 -59 4 -112 4h-17v-177c38 1 70 2 105 2
c11 0 15 5 16 16l4 34c24 0 47 0 68 -1c0 -28 0 -56 -1 -83v-71c-23 -1 -46 -2 -68 -2l-3 27c-2 13 -6 16 -18 16c-32 1 -65 2 -104 1v-128c0 -14 4 -17 45 -17c51 0 88 3 101 6c8 1 12 6 15 15l24 56c24 -4 47 -8 69 -13c-8 -42 -17 -85 -27 -126h-282h-119v60l61 2
c1 0 3 1 3 3v118c0 3 -2 4 -5 4zM377 448h-7c-41 -68 -76 -129 -115 -196c-2 -4 -1 -6 3 -6h119v202z" />
    <glyph glyph-name="Ccedillasmall" unicode="&#xf7e7;" horiz-adv-x="535" 
d="M228 -73l70 64h-7c-50 0 -114 16 -158 48c-52 37 -91 104 -91 186c0 109 52 185 112 231c56 44 129 62 201 62c56 0 94 -6 116 -14c5 -50 9 -102 11 -155c-23 -4 -48 -7 -75 -9l-16 86c-1 5 -3 9 -7 11c-13 7 -31 10 -51 10c-33 0 -75 -11 -107 -42
c-38 -37 -61 -90 -61 -158c0 -60 13 -104 49 -140c29 -28 75 -41 120 -41c43 0 102 14 139 26c5 -21 10 -44 14 -66c-41 -14 -80 -24 -118 -30l-65 -61c37 -6 62 -33 62 -69c0 -54 -52 -93 -143 -94c-3 14 -4 31 -5 44c48 3 77 17 77 46c0 12 -5 20 -12 27
c-10 9 -25 12 -45 11c-4 8 -7 19 -10 27z" />
    <glyph glyph-name="Egravesmall" unicode="&#xf7e8;" horiz-adv-x="507" 
d="M45 60l53 2c2 0 3 1 3 3v379l-57 2c0 22 0 42 1 61h115h191h88c4 -43 6 -87 8 -134c-22 -2 -45 -5 -70 -7l-13 60c-2 8 -6 12 -19 14c-17 1 -60 4 -114 4h-17v-155c38 1 71 1 107 2c10 0 15 5 16 15l4 31c24 0 47 0 68 -1c0 -26 0 -53 -1 -80v-76c-22 -1 -44 -2 -68 -2
l-4 33c-1 12 -5 16 -17 16c-33 1 -66 2 -105 1l-1 -149c0 -14 4 -17 45 -17c52 0 90 3 103 6c8 1 12 6 16 15l25 63c24 -4 48 -8 69 -12c-9 -46 -19 -91 -29 -134h-279h-119c0 18 0 39 1 60zM172 729c53 -33 116 -75 167 -108c-8 -16 -17 -31 -27 -46
c-55 27 -122 60 -180 87c12 22 26 47 40 67z" />
    <glyph glyph-name="Eacutesmall" unicode="&#xf7e9;" horiz-adv-x="507" 
d="M45 60l53 2c2 0 3 1 3 3v379l-57 2c0 22 0 42 1 61h115h191h88c4 -43 6 -87 8 -134c-22 -2 -45 -5 -70 -7l-13 60c-2 8 -6 12 -19 14c-17 1 -60 4 -114 4h-17v-155c38 1 71 1 107 2c10 0 15 5 16 15l4 31c24 0 47 0 68 -1c0 -26 0 -53 -1 -80v-76c-22 -1 -44 -2 -68 -2
l-4 33c-1 12 -5 16 -17 16c-33 1 -66 2 -105 1l-1 -149c0 -14 4 -17 45 -17c52 0 90 3 103 6c8 1 12 6 16 15l25 63c24 -4 48 -8 69 -12c-9 -46 -19 -91 -29 -134h-279h-119c0 18 0 39 1 60zM352 728c15 -21 28 -46 39 -68c-61 -28 -127 -59 -184 -85c-9 15 -18 31 -26 47
c54 33 117 73 171 106z" />
    <glyph glyph-name="Ecircumflexsmall" unicode="&#xf7ea;" horiz-adv-x="507" 
d="M45 60l53 2c2 0 3 1 3 3v379l-57 2c0 22 0 42 1 61h115h191h88c4 -43 6 -87 8 -134c-22 -2 -45 -5 -70 -7l-13 60c-2 8 -6 12 -19 14c-17 1 -60 4 -114 4h-17v-155c38 1 71 1 107 2c10 0 15 5 16 15l4 31c24 0 47 0 68 -1c0 -26 0 -53 -1 -80v-76c-22 -1 -44 -2 -68 -2
l-4 33c-1 12 -5 16 -17 16c-33 1 -66 2 -105 1l-1 -149c0 -14 4 -17 45 -17c52 0 90 3 103 6c8 1 12 6 16 15l25 63c24 -4 48 -8 69 -12c-9 -46 -19 -91 -29 -134h-279h-119c0 18 0 39 1 60zM252 664c-32 -30 -68 -65 -98 -93c-12 10 -26 21 -38 33c37 43 78 91 112 131
c16 0 34 1 48 0c33 -37 79 -93 112 -131c-11 -11 -24 -24 -37 -34c-29 28 -66 64 -99 94z" />
    <glyph glyph-name="Edieresissmall" unicode="&#xf7eb;" horiz-adv-x="507" 
d="M45 60l53 2c2 0 3 1 3 3v379l-57 2c0 22 0 42 1 61h115h191h88c4 -43 6 -87 8 -134c-22 -2 -45 -5 -70 -7l-13 60c-2 8 -6 12 -19 14c-17 1 -60 4 -114 4h-17v-155c38 1 71 1 107 2c10 0 15 5 16 15l4 31c24 0 47 0 68 -1c0 -26 0 -53 -1 -80v-76c-22 -1 -44 -2 -68 -2
l-4 33c-1 12 -5 16 -17 16c-33 1 -66 2 -105 1l-1 -149c0 -14 4 -17 45 -17c52 0 90 3 103 6c8 1 12 6 16 15l25 63c24 -4 48 -8 69 -12c-9 -46 -19 -91 -29 -134h-279h-119c0 18 0 39 1 60zM172 689h1c34 0 49 -27 49 -50c0 -27 -19 -50 -51 -50c-28 0 -51 21 -51 50
c0 23 18 50 52 50zM342 689h1c32 0 50 -27 50 -50c0 -29 -23 -50 -51 -50c-32 0 -51 23 -51 50c0 23 15 50 51 50z" />
    <glyph glyph-name="Igravesmall" unicode="&#xf7ec;" horiz-adv-x="319" 
d="M102 444l-64 3c0 21 0 41 1 60c40 0 87 -1 125 -1c39 0 82 1 119 1c0 -18 0 -39 -1 -60l-63 -3c-2 0 -2 -1 -2 -3l-2 -377l68 -3c0 -21 0 -41 -1 -61c-37 0 -81 1 -121 1c-37 0 -81 -1 -122 -1v61l59 3c3 0 4 1 4 4v376zM71 729c53 -33 116 -75 167 -108
c-8 -16 -17 -31 -27 -46c-55 27 -122 60 -180 87c12 22 26 47 40 67z" />
    <glyph glyph-name="Iacutesmall" unicode="&#xf7ed;" horiz-adv-x="319" 
d="M102 444l-64 3c0 21 0 41 1 60c40 0 87 -1 125 -1c39 0 82 1 119 1c0 -18 0 -39 -1 -60l-63 -3c-2 0 -2 -1 -2 -3l-2 -377l68 -3c0 -21 0 -41 -1 -61c-37 0 -81 1 -121 1c-37 0 -81 -1 -122 -1v61l59 3c3 0 4 1 4 4v376zM252 728c15 -21 28 -46 39 -68
c-61 -28 -127 -59 -184 -85c-9 15 -18 31 -26 47c54 33 117 73 171 106z" />
    <glyph glyph-name="Icircumflexsmall" unicode="&#xf7ee;" horiz-adv-x="319" 
d="M102 444l-64 3c0 21 0 41 1 60c40 0 87 -1 125 -1c39 0 82 1 119 1c0 -18 0 -39 -1 -60l-63 -3c-2 0 -2 -1 -2 -3l-2 -377l68 -3c0 -21 0 -41 -1 -61c-37 0 -81 1 -121 1c-37 0 -81 -1 -122 -1v61l59 3c3 0 4 1 4 4v376zM162 664c-32 -30 -68 -65 -98 -93
c-12 10 -26 21 -38 33c37 43 78 91 112 131c16 0 34 1 48 0c33 -37 79 -93 112 -131c-11 -11 -24 -24 -37 -34c-29 28 -66 64 -99 94z" />
    <glyph glyph-name="Idieresissmall" unicode="&#xf7ef;" horiz-adv-x="319" 
d="M102 444l-64 3c0 21 0 41 1 60c40 0 87 -1 125 -1c39 0 82 1 119 1c0 -18 0 -39 -1 -60l-63 -3c-2 0 -2 -1 -2 -3l-2 -377l68 -3c0 -21 0 -41 -1 -61c-37 0 -81 1 -121 1c-37 0 -81 -1 -122 -1v61l59 3c3 0 4 1 4 4v376zM76 689h1c34 0 49 -27 49 -50
c0 -27 -19 -50 -51 -50c-28 0 -51 21 -51 50c0 23 18 50 52 50zM246 689h1c32 0 50 -27 50 -50c0 -29 -23 -50 -51 -50c-32 0 -51 23 -51 50c0 23 15 50 51 50z" />
    <glyph glyph-name="Ethsmall" unicode="&#xf7f0;" horiz-adv-x="617" 
d="M108 282v162l-57 2c-1 23 0 42 0 60c59 1 130 2 201 2c99 0 158 -13 205 -38c69 -37 118 -112 118 -198c0 -100 -44 -180 -111 -226c-49 -32 -119 -47 -191 -47c-37 0 -83 1 -111 1h-111v60l53 2c3 0 4 2 4 4v152h-67c0 20 0 43 2 64h65zM222 218l-1 -136
c0 -17 7 -23 42 -23c54 0 97 11 132 41c38 33 59 96 59 145c0 75 -17 123 -66 165c-34 28 -79 39 -129 39c-15 0 -28 -1 -36 -3l-1 -163c40 0 82 0 130 1c0 -22 -1 -45 -3 -66h-127z" />
    <glyph glyph-name="Ntildesmall" unicode="&#xf7f1;" horiz-adv-x="633" 
d="M48 60l49 3c3 0 4 2 4 4v378l-58 2c0 21 1 41 1 59h159c80 -112 183 -264 255 -379h6c-1 104 -2 212 -4 318l-72 1c0 21 0 42 1 60h111c31 0 65 1 95 1c1 -18 0 -39 0 -60l-47 -2c-1 0 -3 -1 -3 -4l-3 -435c-21 -7 -57 -13 -88 -13c-70 89 -173 227 -265 367h-6
c0 -98 -1 -198 0 -297l76 -2c0 -21 -1 -42 -1 -61c-38 0 -81 1 -120 1c-30 0 -60 -1 -91 -1c0 19 0 39 1 60zM397 583h-1c-24 0 -44 15 -64 29c-21 14 -35 27 -55 27s-31 -21 -36 -51c-15 -1 -31 0 -45 1c5 60 29 112 82 112c30 0 51 -18 72 -32c18 -12 30 -23 49 -23
s29 18 33 51c16 1 31 1 45 0c-3 -61 -24 -114 -80 -114z" />
    <glyph glyph-name="Ogravesmall" unicode="&#xf7f2;" horiz-adv-x="628" 
d="M302 -10h-1c-79 0 -141 25 -184 66c-47 43 -75 109 -75 192c0 103 54 186 117 226c52 32 106 44 171 44c61 0 113 -13 159 -46c58 -40 97 -117 97 -205c0 -78 -28 -159 -86 -211c-48 -43 -111 -66 -198 -66zM314 51h1c34 0 72 13 99 45c28 34 48 89 48 157
c0 58 -15 114 -45 153c-26 36 -61 52 -100 52c-38 0 -69 -15 -95 -41c-31 -31 -56 -88 -56 -162c0 -67 15 -123 51 -161c28 -31 64 -43 97 -43zM228 729c53 -33 116 -75 167 -108c-8 -16 -17 -31 -27 -46c-55 27 -122 60 -180 87c12 22 26 47 40 67z" />
    <glyph glyph-name="Oacutesmall" unicode="&#xf7f3;" horiz-adv-x="628" 
d="M302 -10h-1c-79 0 -141 25 -184 66c-47 43 -75 109 -75 192c0 103 54 186 117 226c52 32 106 44 171 44c61 0 113 -13 159 -46c58 -40 97 -117 97 -205c0 -78 -28 -159 -86 -211c-48 -43 -111 -66 -198 -66zM314 51h1c34 0 72 13 99 45c28 34 48 89 48 157
c0 58 -15 114 -45 153c-26 36 -61 52 -100 52c-38 0 -69 -15 -95 -41c-31 -31 -56 -88 -56 -162c0 -67 15 -123 51 -161c28 -31 64 -43 97 -43zM424 728c15 -21 28 -46 39 -68c-61 -28 -127 -59 -184 -85c-9 15 -18 31 -26 47c54 33 117 73 171 106z" />
    <glyph glyph-name="Ocircumflexsmall" unicode="&#xf7f4;" horiz-adv-x="628" 
d="M302 -10h-1c-79 0 -141 25 -184 66c-47 43 -75 109 -75 192c0 103 54 186 117 226c52 32 106 44 171 44c61 0 113 -13 159 -46c58 -40 97 -117 97 -205c0 -78 -28 -159 -86 -211c-48 -43 -111 -66 -198 -66zM314 51h1c34 0 72 13 99 45c28 34 48 89 48 157
c0 58 -15 114 -45 153c-26 36 -61 52 -100 52c-38 0 -69 -15 -95 -41c-31 -31 -56 -88 -56 -162c0 -67 15 -123 51 -161c28 -31 64 -43 97 -43zM322 664c-32 -30 -68 -65 -98 -93c-12 10 -26 21 -38 33c37 43 78 91 112 131c16 0 34 1 48 0c33 -37 79 -93 112 -131
c-11 -11 -24 -24 -37 -34c-29 28 -66 64 -99 94z" />
    <glyph glyph-name="Otildesmall" unicode="&#xf7f5;" horiz-adv-x="628" 
d="M302 -10h-1c-79 0 -141 25 -184 66c-47 43 -75 109 -75 192c0 103 54 186 117 226c52 32 106 44 171 44c61 0 113 -13 159 -46c58 -40 97 -117 97 -205c0 -78 -28 -159 -86 -211c-48 -43 -111 -66 -198 -66zM314 51h1c34 0 72 13 99 45c28 34 48 89 48 157
c0 58 -15 114 -45 153c-26 36 -61 52 -100 52c-38 0 -69 -15 -95 -41c-31 -31 -56 -88 -56 -162c0 -67 15 -123 51 -161c28 -31 64 -43 97 -43zM378 583h-1c-24 0 -44 15 -64 29c-21 14 -35 27 -55 27s-31 -21 -36 -51c-15 -1 -31 0 -45 1c5 60 29 112 82 112
c30 0 51 -18 72 -32c18 -12 30 -23 49 -23s29 18 33 51c16 1 31 1 45 0c-3 -61 -24 -114 -80 -114z" />
    <glyph glyph-name="Odieresissmall" unicode="&#xf7f6;" horiz-adv-x="628" 
d="M302 -10h-1c-79 0 -141 25 -184 66c-47 43 -75 109 -75 192c0 103 54 186 117 226c52 32 106 44 171 44c61 0 113 -13 159 -46c58 -40 97 -117 97 -205c0 -78 -28 -159 -86 -211c-48 -43 -111 -66 -198 -66zM314 51h1c34 0 72 13 99 45c28 34 48 89 48 157
c0 58 -15 114 -45 153c-26 36 -61 52 -100 52c-38 0 -69 -15 -95 -41c-31 -31 -56 -88 -56 -162c0 -67 15 -123 51 -161c28 -31 64 -43 97 -43zM237 689h1c34 0 49 -27 49 -50c0 -27 -19 -50 -51 -50c-28 0 -51 21 -51 50c0 23 18 50 52 50zM407 689h1c32 0 50 -27 50 -50
c0 -29 -23 -50 -51 -50c-32 0 -51 23 -51 50c0 23 15 50 51 50z" />
    <glyph glyph-name="OEsmall" unicode="&#xf6fa;" horiz-adv-x="844" 
d="M552 229l-1 -150c0 -14 4 -17 46 -17c51 0 88 3 100 6c8 1 12 6 16 15l25 64c24 -4 48 -8 69 -13c-8 -43 -19 -90 -29 -134h-270h-63c0 17 -1 37 -2 53c-34 -39 -79 -63 -160 -63c-61 0 -120 21 -161 58c-50 45 -80 112 -80 200c0 94 43 179 113 227c41 28 87 43 150 43
c69 0 112 -26 139 -54l2 43h56h186h88c3 -43 5 -87 7 -133c-22 -3 -45 -5 -69 -8l-14 61c-1 8 -5 13 -19 14c-17 2 -58 4 -110 4h-18l-1 -156c38 1 70 1 105 2c10 0 15 5 16 15l4 31c23 0 46 -1 68 -1c0 -26 0 -53 -1 -79v-76c-23 -1 -45 -2 -68 -2l-4 33
c-1 12 -5 16 -17 16c-32 1 -65 2 -103 1zM315 52h1c51 0 101 27 125 83v244c-19 47 -65 76 -122 76c-40 0 -71 -13 -96 -37c-30 -30 -56 -85 -56 -161c0 -67 13 -122 46 -160c31 -34 68 -45 102 -45z" />
    <glyph glyph-name="Oslashsmall" unicode="&#xf7f8;" horiz-adv-x="628" 
d="M301 -10h-1c-60 0 -108 14 -148 42c-25 -26 -49 -51 -75 -76c-15 12 -32 27 -45 40c26 26 50 51 73 75c-39 43 -63 101 -63 179c0 101 53 184 117 225c51 31 104 43 171 43c53 0 106 -13 146 -41c21 22 43 45 63 67c18 -14 35 -30 50 -46c-21 -21 -42 -42 -63 -64
c36 -41 60 -100 60 -166c0 -79 -28 -160 -86 -212c-46 -43 -109 -66 -199 -66zM320 458h-1c-37 0 -69 -13 -95 -38c-33 -31 -63 -89 -63 -165c0 -46 6 -81 20 -114c40 46 82 94 119 135c38 42 78 87 122 136c-24 33 -58 46 -102 46zM315 51h1c35 0 72 12 99 44
c28 35 53 88 53 160c0 41 -5 74 -18 105c-43 -49 -85 -96 -120 -135s-78 -86 -121 -133c29 -31 61 -41 106 -41z" />
    <glyph glyph-name="Ugravesmall" unicode="&#xf7f9;" horiz-adv-x="604" 
d="M202 444l-1 -230c0 -76 11 -104 34 -127c16 -16 40 -29 78 -29c33 0 56 10 74 28c20 20 37 55 37 130c0 66 0 159 -1 225c0 2 -1 3 -3 3l-66 2c0 21 0 42 1 61c35 0 76 -1 115 -1c33 0 66 1 99 1c0 -19 0 -39 -1 -61l-49 -2l-2 -229c-1 -89 -29 -143 -59 -173
c-27 -26 -73 -52 -152 -52c-73 0 -125 15 -163 49c-47 41 -56 98 -56 164v237c0 3 -1 5 -4 5l-48 1c0 22 1 42 1 61c34 0 74 -1 109 -1c44 0 87 1 126 1c0 -19 0 -39 -1 -61zM212 729c53 -33 116 -75 167 -108c-8 -16 -17 -31 -27 -46c-55 27 -122 60 -180 87
c12 22 26 47 40 67z" />
    <glyph glyph-name="Uacutesmall" unicode="&#xf7fa;" horiz-adv-x="604" 
d="M202 444l-1 -230c0 -76 11 -104 34 -127c16 -16 40 -29 78 -29c33 0 56 10 74 28c20 20 37 55 37 130c0 66 0 159 -1 225c0 2 -1 3 -3 3l-66 2c0 21 0 42 1 61c35 0 76 -1 115 -1c33 0 66 1 99 1c0 -19 0 -39 -1 -61l-49 -2l-2 -229c-1 -89 -29 -143 -59 -173
c-27 -26 -73 -52 -152 -52c-73 0 -125 15 -163 49c-47 41 -56 98 -56 164v237c0 3 -1 5 -4 5l-48 1c0 22 1 42 1 61c34 0 74 -1 109 -1c44 0 87 1 126 1c0 -19 0 -39 -1 -61zM413 728c15 -21 28 -46 39 -68c-61 -28 -127 -59 -184 -85c-9 15 -18 31 -26 47
c54 33 117 73 171 106z" />
    <glyph glyph-name="Ucircumflexsmall" unicode="&#xf7fb;" horiz-adv-x="604" 
d="M202 444l-1 -230c0 -76 11 -104 34 -127c16 -16 40 -29 78 -29c33 0 56 10 74 28c20 20 37 55 37 130c0 66 0 159 -1 225c0 2 -1 3 -3 3l-66 2c0 21 0 42 1 61c35 0 76 -1 115 -1c33 0 66 1 99 1c0 -19 0 -39 -1 -61l-49 -2l-2 -229c-1 -89 -29 -143 -59 -173
c-27 -26 -73 -52 -152 -52c-73 0 -125 15 -163 49c-47 41 -56 98 -56 164v237c0 3 -1 5 -4 5l-48 1c0 22 1 42 1 61c34 0 74 -1 109 -1c44 0 87 1 126 1c0 -19 0 -39 -1 -61zM307 664c-32 -30 -68 -65 -98 -93c-12 10 -26 21 -38 33c37 43 78 91 112 131c16 0 34 1 48 0
c33 -37 79 -93 112 -131c-11 -11 -24 -24 -37 -34c-29 28 -66 64 -99 94z" />
    <glyph glyph-name="Udieresissmall" unicode="&#xf7fc;" horiz-adv-x="604" 
d="M202 444l-1 -230c0 -76 11 -104 34 -127c16 -16 40 -29 78 -29c33 0 56 10 74 28c20 20 37 55 37 130c0 66 0 159 -1 225c0 2 -1 3 -3 3l-66 2c0 21 0 42 1 61c35 0 76 -1 115 -1c33 0 66 1 99 1c0 -19 0 -39 -1 -61l-49 -2l-2 -229c-1 -89 -29 -143 -59 -173
c-27 -26 -73 -52 -152 -52c-73 0 -125 15 -163 49c-47 41 -56 98 -56 164v237c0 3 -1 5 -4 5l-48 1c0 22 1 42 1 61c34 0 74 -1 109 -1c44 0 87 1 126 1c0 -19 0 -39 -1 -61zM221 689h1c34 0 49 -27 49 -50c0 -27 -19 -50 -51 -50c-28 0 -51 21 -51 50c0 23 18 50 52 50z
M391 689h1c32 0 50 -27 50 -50c0 -29 -23 -50 -51 -50c-32 0 -51 23 -51 50c0 23 15 50 51 50z" />
    <glyph glyph-name="Yacutesmall" unicode="&#xf7fd;" horiz-adv-x="514" 
d="M135 61l63 3c3 0 4 1 4 4v125c-44 72 -109 182 -148 249c-2 2 -4 3 -6 3l-43 3c0 21 1 41 1 59h95c50 0 100 1 143 1c0 -19 -1 -39 -1 -61l-61 -2c25 -49 67 -132 96 -185h5c24 44 75 138 94 180c1 3 1 5 -2 5l-54 2c0 21 0 41 1 60h119c24 0 53 1 78 1
c0 -19 0 -39 -1 -61l-44 -2c-42 -66 -109 -174 -159 -251l-1 -130l71 -3c0 -21 -1 -41 -2 -61c-38 0 -83 1 -123 1c-38 0 -83 -1 -126 -1c0 20 0 40 1 61zM397 728c15 -21 28 -46 39 -68c-61 -28 -127 -59 -184 -85c-9 15 -18 31 -26 47c54 33 117 73 171 106z" />
    <glyph glyph-name="Thornsmall" unicode="&#xf7fe;" horiz-adv-x="525" 
d="M280 450l-64 -3c-3 0 -5 -1 -5 -3v-35h48c42 0 79 -2 115 -13c68 -19 108 -69 108 -127c0 -70 -44 -119 -96 -141c-38 -16 -86 -21 -122 -21h-55v-46l81 -2c0 -21 0 -41 -1 -59h-136h-107v59l50 3c3 0 4 1 4 3v379l-55 2c0 22 0 42 1 61h119h116c0 -18 0 -37 -1 -57z
M211 346l-2 -172c1 -6 19 -7 36 -7c31 0 60 4 82 17c26 16 40 41 40 77c0 57 -46 88 -121 88c-15 0 -31 -1 -35 -3z" />
    <glyph glyph-name="Ydieresissmall" unicode="&#xf7ff;" horiz-adv-x="514" 
d="M135 61l63 3c3 0 4 1 4 4v125c-44 72 -109 182 -148 249c-2 2 -4 3 -6 3l-43 3c0 21 1 41 1 59h95c50 0 100 1 143 1c0 -19 -1 -39 -1 -61l-61 -2c25 -49 67 -132 96 -185h5c24 44 75 138 94 180c1 3 1 5 -2 5l-54 2c0 21 0 41 1 60h119c24 0 53 1 78 1
c0 -19 0 -39 -1 -61l-44 -2c-42 -66 -109 -174 -159 -251l-1 -130l71 -3c0 -21 -1 -41 -2 -61c-38 0 -83 1 -123 1c-38 0 -83 -1 -126 -1c0 20 0 40 1 61zM193 689h1c34 0 49 -27 49 -50c0 -27 -19 -50 -51 -50c-28 0 -51 21 -51 50c0 23 18 50 52 50zM363 689h1
c32 0 50 -27 50 -50c0 -29 -23 -50 -51 -50c-32 0 -51 23 -51 50c0 23 15 50 51 50z" />
    <glyph glyph-name="commaaccent" unicode="&#xf6c3;" horiz-adv-x="382" 
d="M191 -50h1c34 0 67 -34 67 -73c0 -61 -44 -116 -105 -148c-10 10 -20 21 -29 32c44 28 59 55 59 80s-25 36 -45 41c-4 39 22 68 52 68z" />
    <glyph glyph-name="Abreve" unicode="&#x102;" horiz-adv-x="619" 
d="M-11 62l51 3c3 0 5 2 6 5c66 171 157 414 222 586c14 1 46 2 90 2c63 -175 146 -420 207 -593l57 -2c0 -21 0 -42 -1 -63h-105h-144c0 21 0 42 1 62l66 3c2 1 4 3 2 5c-11 33 -26 79 -38 110c-1 3 -3 4 -6 4l-217 -1c-12 -37 -27 -82 -38 -118l75 -2c0 -21 0 -42 -1 -63
h-136h-92c0 21 0 42 1 62zM296 514h-5c-29 -83 -62 -181 -90 -261c-1 -4 -1 -6 2 -6h181c-27 80 -60 181 -88 267zM312 742h-1c-71 0 -129 49 -140 108c16 6 33 11 50 14c16 -36 53 -60 93 -60c43 0 78 29 90 57c16 -2 35 -6 51 -11c-10 -50 -68 -108 -143 -108z" />
    <glyph glyph-name="Amacron" unicode="&#x100;" horiz-adv-x="619" 
d="M-11 62l51 3c3 0 5 2 6 5c66 171 157 414 222 586c14 1 46 2 90 2c63 -175 146 -420 207 -593l57 -2c0 -21 0 -42 -1 -63h-105h-144c0 21 0 42 1 62l66 3c2 1 4 3 2 5c-11 33 -26 79 -38 110c-1 3 -3 4 -6 4l-217 -1c-12 -37 -27 -82 -38 -118l75 -2c0 -21 0 -42 -1 -63
h-136h-92c0 21 0 42 1 62zM296 514h-5c-29 -83 -62 -181 -90 -261c-1 -4 -1 -6 2 -6h181c-27 80 -60 181 -88 267zM431 794c1 -19 1 -40 0 -59c-74 0 -163 1 -245 1c-1 17 -1 37 0 56c84 1 161 1 245 2z" />
    <glyph glyph-name="Aogonek" unicode="&#x104;" horiz-adv-x="619" 
d="M296 514h-5c-29 -83 -62 -181 -90 -261c-1 -4 -1 -6 2 -6h180c-26 80 -59 181 -87 267zM332 -127v1c0 41 30 88 93 126h-53c0 21 0 42 1 62l66 3c2 1 4 3 2 5c-11 33 -26 79 -38 110c-1 3 -3 4 -6 4l-217 -1c-12 -37 -27 -82 -38 -118l75 -2c0 -21 0 -42 -1 -63h-136h-92
c0 21 0 42 1 62l51 3c3 0 5 2 6 5c66 171 157 414 222 586c27 1 56 2 90 2c63 -175 146 -420 207 -593l57 -2c0 -21 0 -42 -1 -63h-105h-43c-42 -34 -64 -74 -64 -110c0 -33 24 -51 50 -51c15 0 32 5 43 8c5 -14 9 -28 11 -42c-21 -12 -47 -19 -74 -19
c-53 0 -107 29 -107 87z" />
    <glyph glyph-name="Cacute" unicode="&#x106;" horiz-adv-x="596" 
d="M46 287v1c0 139 62 236 135 295c69 56 156 77 235 77c58 0 105 -8 129 -18c5 -61 9 -123 12 -184c-24 -4 -51 -7 -77 -10l-19 106c-2 7 -4 12 -8 14c-17 11 -39 16 -67 16c-46 0 -94 -16 -132 -54c-50 -52 -80 -125 -80 -215c0 -86 16 -142 60 -188
c34 -36 91 -57 146 -57c54 0 127 19 168 36c6 -21 11 -48 14 -69c-70 -28 -149 -47 -205 -47c-72 0 -145 18 -201 60c-64 48 -110 133 -110 237zM474 872c15 -19 32 -45 45 -67c-55 -29 -125 -68 -181 -97c-10 14 -21 30 -29 44c49 36 114 83 165 120z" />
    <glyph glyph-name="Ccaron" unicode="&#x10c;" horiz-adv-x="596" 
d="M46 287v1c0 139 62 236 135 295c69 56 156 77 235 77c58 0 105 -8 129 -18c5 -61 9 -123 12 -184c-24 -4 -51 -7 -77 -10l-19 106c-2 7 -4 12 -8 14c-17 11 -39 16 -67 16c-46 0 -94 -16 -132 -54c-50 -52 -80 -125 -80 -215c0 -86 16 -142 60 -188
c34 -36 91 -57 146 -57c54 0 127 19 168 36c6 -21 11 -48 14 -69c-70 -28 -149 -47 -205 -47c-72 0 -145 18 -201 60c-64 48 -110 133 -110 237zM361 789c39 24 83 52 116 74c12 -11 23 -26 33 -40c-39 -31 -89 -73 -130 -106c-11 0 -27 0 -39 1c-40 34 -85 71 -128 105
c10 14 21 28 32 39c34 -22 78 -49 116 -73z" />
    <glyph glyph-name="Dcaron" unicode="&#x10e;" horiz-adv-x="699" 
d="M49 61l62 3c2 0 4 2 4 4v516l-67 2c0 22 0 43 1 63c62 1 142 2 222 2c115 0 183 -16 239 -49c83 -47 143 -144 143 -254c0 -127 -52 -231 -134 -289c-59 -42 -140 -60 -228 -60c-36 0 -89 1 -118 1c-39 0 -86 -1 -125 -1c0 20 0 42 1 62zM234 586l-2 -496
c0 -22 9 -30 55 -30c68 0 125 18 167 55c46 43 73 123 73 199c0 108 -25 169 -84 223c-40 36 -96 53 -161 53c-21 0 -39 -1 -48 -4zM303 784c39 24 83 52 116 74c12 -11 23 -26 33 -40c-39 -31 -89 -73 -130 -106c-11 0 -27 0 -39 1c-40 34 -85 71 -128 105
c10 14 21 28 32 39c34 -22 78 -49 116 -73z" />
    <glyph glyph-name="Dcroat" unicode="&#x110;" horiz-adv-x="717" 
d="M133 355l1 229l-68 2c0 22 1 43 1 63c63 1 142 2 221 2c117 0 183 -16 240 -49c84 -48 143 -148 143 -254c0 -134 -55 -231 -134 -289c-58 -42 -140 -60 -228 -60c-37 0 -89 1 -118 1c-38 0 -86 -1 -125 -1c0 20 1 42 1 62l62 3c2 0 4 2 4 5v219h-81c0 22 0 46 2 66
c26 1 53 1 79 1zM251 288l-1 -199c0 -21 9 -29 54 -29c74 0 129 20 168 55c47 43 73 124 73 198c0 109 -25 168 -81 221c-42 39 -97 56 -167 56c-19 0 -36 -1 -44 -4l-2 -230c50 0 99 1 156 1c0 -22 -2 -48 -4 -69h-152z" />
    <glyph glyph-name="Ecaron" unicode="&#x11a;" horiz-adv-x="566" 
d="M51 62l61 3c3 0 4 2 4 4v516l-67 2c0 21 1 43 2 63h122h227h91c4 -53 7 -107 9 -162c-21 -2 -47 -6 -71 -8l-16 83c-2 9 -7 15 -22 17c-21 2 -72 5 -136 5h-21l-1 -222c46 1 85 1 128 2c13 0 17 7 19 19l5 44c23 0 48 0 69 -1c-1 -31 -1 -65 -2 -99v-95
c-22 -1 -46 -2 -69 -2l-4 47c-1 15 -7 20 -21 20c-38 1 -79 2 -125 1l-1 -213c0 -18 4 -21 54 -21c64 0 108 3 123 7c10 2 15 8 19 19l31 87c24 -4 49 -9 71 -14c-11 -54 -23 -110 -36 -165c-48 1 -181 1 -318 1h-126c0 20 0 42 1 62zM282 784c39 24 83 52 116 74
c12 -11 23 -26 33 -40c-39 -31 -89 -73 -130 -106c-11 0 -27 0 -39 1c-40 34 -85 71 -128 105c10 14 21 28 32 39c34 -22 78 -49 116 -73z" />
    <glyph glyph-name="Edotaccent" unicode="&#x116;" horiz-adv-x="566" 
d="M51 62l61 3c3 0 4 2 4 4v516l-67 2c0 21 1 43 2 63h122h227h91c4 -53 7 -107 9 -162c-21 -2 -47 -6 -71 -8l-16 83c-2 9 -7 15 -22 17c-21 2 -72 5 -136 5h-21l-1 -222c46 1 85 1 128 2c13 0 17 7 19 19l5 44c23 0 48 0 69 -1c-1 -31 -1 -65 -2 -99v-95
c-22 -1 -46 -2 -69 -2l-4 47c-1 15 -7 20 -21 20c-38 1 -79 2 -125 1l-1 -213c0 -18 4 -21 54 -21c64 0 108 3 123 7c10 2 15 8 19 19l31 87c24 -4 49 -9 71 -14c-11 -54 -23 -110 -36 -165c-48 1 -181 1 -318 1h-126c0 20 0 42 1 62zM280 825h1c37 0 55 -28 55 -54
c0 -31 -23 -56 -57 -56c-30 0 -56 23 -56 55c0 26 20 55 57 55z" />
    <glyph glyph-name="Emacron" unicode="&#x112;" horiz-adv-x="566" 
d="M51 62l61 3c3 0 4 2 4 4v516l-67 2c0 21 1 43 2 63h122h227h91c4 -53 7 -107 9 -162c-21 -2 -47 -6 -71 -8l-16 83c-2 9 -7 15 -22 17c-21 2 -72 5 -136 5h-21l-1 -222c46 1 85 1 128 2c13 0 17 7 19 19l5 44c23 0 48 0 69 -1c-1 -31 -1 -65 -2 -99v-95
c-22 -1 -46 -2 -69 -2l-4 47c-1 15 -7 20 -21 20c-38 1 -79 2 -125 1l-1 -213c0 -18 4 -21 54 -21c64 0 108 3 123 7c10 2 15 8 19 19l31 87c24 -4 49 -9 71 -14c-11 -54 -23 -110 -36 -165c-48 1 -181 1 -318 1h-126c0 20 0 42 1 62zM401 794c1 -19 1 -40 0 -59
c-74 0 -163 1 -245 1c-1 17 -1 37 0 56c84 1 161 1 245 2z" />
    <glyph glyph-name="Eogonek" unicode="&#x118;" horiz-adv-x="566" 
d="M349 -129v1c0 42 33 90 100 128c-79 0 -171 1 -273 1c-44 0 -88 -1 -126 -1c0 20 0 43 1 62l61 3c3 0 4 2 4 4v516l-67 2c0 21 1 43 2 63h122h227c33 1 64 1 91 1c4 -54 7 -108 9 -163c-21 -2 -47 -6 -71 -8l-16 83c-2 9 -7 15 -22 17c-21 2 -72 5 -136 5h-21l-1 -222
c46 1 85 1 128 2c13 0 17 7 19 19l5 44c23 0 48 0 69 -1c-1 -31 -1 -65 -2 -99v-95c-22 -1 -46 -2 -69 -2l-4 47c-2 15 -7 20 -21 20c-38 1 -79 2 -125 1l-1 -213c0 -18 4 -21 54 -21c64 0 107 4 123 7c9 2 14 8 18 19l31 87c25 -4 50 -9 71 -14c-10 -50 -24 -116 -36 -164
c-38 -29 -69 -75 -69 -112c0 -33 26 -51 52 -51c15 0 31 5 42 8c5 -14 9 -28 12 -42c-22 -12 -48 -19 -75 -19c-53 0 -106 29 -106 87z" />
    <glyph glyph-name="Gbreve" unicode="&#x11e;" horiz-adv-x="671" 
d="M506 447l-16 103c-2 5 -3 11 -8 15c-20 16 -50 24 -85 24c-44 0 -96 -14 -138 -54c-51 -48 -82 -125 -82 -217c0 -86 20 -151 64 -197c50 -55 111 -67 161 -67c37 0 63 10 63 18v156l-95 2c0 21 1 45 1 65h151h112c0 -20 0 -44 -1 -65l-47 -2c-3 0 -4 -1 -4 -4l-3 -200
c-34 -20 -100 -34 -184 -34c-103 0 -183 24 -238 68c-67 56 -110 135 -110 246c0 133 64 231 147 290c69 50 162 66 231 66c64 0 118 -10 150 -26c3 -59 7 -120 9 -179c-25 -4 -52 -6 -78 -8zM377 719h-1c-71 0 -129 49 -140 108c16 6 33 11 50 14c16 -36 53 -60 93 -60
c43 0 78 29 90 57c16 -2 35 -6 51 -11c-10 -50 -68 -108 -143 -108z" />
    <glyph glyph-name="Gcommaaccent" unicode="&#x122;" horiz-adv-x="671" 
d="M506 447l-16 103c-2 5 -3 11 -8 15c-20 16 -50 24 -85 24c-44 0 -96 -14 -138 -54c-51 -48 -82 -125 -82 -217c0 -86 20 -151 64 -197c50 -55 111 -67 161 -67c37 0 63 10 63 18v156l-95 2c0 21 1 45 1 65h151h112c0 -20 0 -44 -1 -65l-47 -2c-3 0 -4 -1 -4 -4l-3 -200
c-34 -20 -100 -34 -184 -34c-103 0 -183 24 -238 68c-67 56 -110 135 -110 246c0 133 64 231 147 290c69 50 162 66 231 66c64 0 118 -10 150 -26c3 -59 7 -120 9 -179c-25 -4 -52 -6 -78 -8zM384 -51h1c34 0 68 -38 68 -81c0 -67 -44 -128 -107 -163c-9 12 -20 24 -29 36
c44 30 60 60 60 88s-26 40 -45 45c-5 43 21 75 52 75z" />
    <glyph glyph-name="Imacron" unicode="&#x12a;" horiz-adv-x="348" 
d="M116 584l-71 3c0 20 0 43 1 63c38 0 92 -1 135 -1s92 1 130 1c0 -20 0 -43 -1 -63l-72 -3c-2 0 -2 -1 -2 -4l-3 -513l77 -3c1 -21 0 -43 -1 -64c-37 0 -88 1 -132 1c-42 0 -91 -1 -132 -1c0 21 0 43 1 63l67 3c2 0 3 2 3 4v514zM301 792c1 -19 1 -40 0 -59
c-74 0 -163 1 -245 1c-1 17 -1 37 0 56c84 1 161 1 245 2z" />
    <glyph glyph-name="Iogonek" unicode="&#x12e;" horiz-adv-x="348" 
d="M97 -125v1c0 41 28 87 90 125c-40 0 -99 -1 -142 -1c0 21 0 43 1 64l67 3c2 0 3 1 3 4v513l-71 3c0 20 0 43 1 63c38 0 92 -1 135 -1s92 1 130 1c0 -20 0 -43 -1 -63l-72 -3c-2 0 -2 -1 -2 -4l-3 -513l77 -3c1 -21 0 -43 -1 -64c-4 0 -50 4 -81 -5
c-36 -11 -57 -59 -57 -96c0 -33 18 -58 49 -58c18 0 35 5 46 8c5 -14 9 -28 12 -42c-22 -12 -49 -19 -77 -19c-53 0 -104 29 -104 87z" />
    <glyph glyph-name="Kcommaaccent" unicode="&#x136;" horiz-adv-x="650" 
d="M115 584l-64 3c0 20 0 43 1 63c37 0 86 -1 128 -1c40 0 86 1 120 1c1 -20 0 -43 -1 -63l-61 -3c-3 0 -3 -2 -3 -5l-2 -219c15 0 38 2 60 6c39 39 125 147 174 212c3 3 1 5 -2 5l-59 3c0 21 0 43 1 63h138c30 0 62 1 87 1c0 -20 0 -43 -1 -63l-46 -3
c-79 -90 -146 -164 -203 -225v-6c37 -27 74 -73 107 -134c23 -40 45 -81 74 -125c10 -17 20 -25 34 -26l62 -4c0 -19 0 -43 -1 -62c-26 -1 -65 -2 -92 -2c-22 -1 -64 -1 -83 -1c-22 29 -60 102 -93 162c-33 63 -78 139 -106 139c-16 0 -39 -1 -51 -2l-1 -231l70 -3
c1 -21 0 -43 -1 -64c-34 0 -83 1 -126 1c-40 0 -88 -1 -125 -1c0 21 0 43 1 63l60 3c2 1 4 2 4 4v514zM335 -38h1c34 0 68 -38 68 -81c0 -67 -44 -128 -107 -163c-9 12 -20 24 -29 36c44 30 60 60 60 88s-26 40 -45 45c-5 43 21 75 52 75z" />
    <glyph glyph-name="Lacute" unicode="&#x139;" horiz-adv-x="537" 
d="M116 583l-66 3c0 20 1 43 2 63h127h137c0 -20 -1 -43 -2 -64l-77 -2c-2 0 -3 -1 -3 -4l-2 -495c0 -18 1 -21 44 -21c80 0 111 3 126 6c8 3 14 9 17 20l36 104c25 -4 50 -9 72 -15c-11 -56 -26 -121 -40 -179c-48 0 -175 1 -311 1c-44 0 -89 -1 -127 -1c0 21 1 43 2 63
l61 3c2 0 4 2 4 4v514zM284 865c15 -19 32 -45 45 -67c-55 -29 -125 -68 -181 -97c-10 14 -21 30 -29 44c49 36 114 83 165 120z" />
    <glyph glyph-name="Lcaron" unicode="&#x13d;" horiz-adv-x="537" 
d="M116 583l-66 3c0 20 1 43 2 63h127h137c0 -20 -1 -43 -2 -64l-77 -2c-2 0 -3 -1 -3 -4l-2 -495c0 -18 1 -21 44 -21c80 0 111 3 126 6c8 3 14 9 17 20l36 104c25 -4 50 -9 72 -15c-11 -56 -26 -121 -40 -179c-48 0 -175 1 -311 1c-44 0 -89 -1 -127 -1c0 21 1 43 2 63
l61 3c2 0 4 2 4 4v514zM418 648h1c33 0 65 -36 65 -77c0 -64 -43 -122 -101 -155c-10 11 -20 23 -28 34c42 29 57 57 57 84c0 26 -29 40 -43 42c-5 42 20 72 49 72z" />
    <glyph glyph-name="Lcommaaccent" unicode="&#x13b;" horiz-adv-x="537" 
d="M116 583l-66 3c0 20 1 43 2 63h127h137c0 -20 -1 -43 -2 -64l-77 -2c-2 0 -3 -1 -3 -4l-2 -495c0 -18 1 -21 44 -21c80 0 111 3 126 6c8 3 14 9 17 20l36 104c25 -4 50 -9 72 -15c-11 -56 -26 -121 -40 -179c-48 0 -175 1 -311 1c-44 0 -89 -1 -127 -1c0 21 1 43 2 63
l61 3c2 0 4 2 4 4v514zM294 -51h1c34 0 68 -38 68 -81c0 -67 -44 -128 -107 -163c-9 12 -20 24 -29 36c44 30 60 60 60 88s-26 40 -45 45c-5 43 21 75 52 75z" />
    <glyph glyph-name="Nacute" unicode="&#x143;" horiz-adv-x="716" 
d="M44 63l58 3c2 0 4 1 4 4l-1 515l-67 2c0 20 0 43 1 62h165c98 -143 229 -341 328 -495l6 1c-1 143 -2 287 -4 430l-85 1c0 21 1 43 1 63h127c34 0 72 1 100 1c1 -20 0 -42 0 -62l-54 -3c-2 0 -3 -1 -3 -5l-4 -574c-16 -7 -50 -14 -82 -14c-88 116 -216 292 -339 478h-7
c0 -136 -1 -269 -1 -404l89 -2c0 -20 -1 -43 -1 -64c-41 0 -91 1 -137 1c-33 0 -67 -1 -95 -1c0 20 0 43 1 63zM437 850c15 -19 32 -45 45 -67c-55 -29 -125 -68 -181 -97c-10 14 -21 30 -29 44c49 36 114 83 165 120z" />
    <glyph glyph-name="Ncaron" unicode="&#x147;" horiz-adv-x="716" 
d="M44 63l58 3c2 0 4 1 4 4l-1 515l-67 2c0 20 0 43 1 62h165c98 -143 229 -341 328 -495l6 1c-1 143 -2 287 -4 430l-85 1c0 21 1 43 1 63h127c34 0 72 1 100 1c1 -20 0 -42 0 -62l-54 -3c-2 0 -3 -1 -3 -5l-4 -574c-16 -7 -50 -14 -82 -14c-88 116 -216 292 -339 478h-7
c0 -136 -1 -269 -1 -404l89 -2c0 -20 -1 -43 -1 -64c-41 0 -91 1 -137 1c-33 0 -67 -1 -95 -1c0 20 0 43 1 63zM349 784c39 24 83 52 116 74c12 -11 23 -26 33 -40c-39 -31 -89 -73 -130 -106c-11 0 -27 0 -39 1c-40 34 -85 71 -128 105c10 14 21 28 32 39
c34 -22 78 -49 116 -73z" />
    <glyph glyph-name="Ncommaaccent" unicode="&#x145;" horiz-adv-x="716" 
d="M44 63l58 3c2 0 4 1 4 4l-1 515l-67 2c0 20 0 43 1 62h165c98 -143 229 -341 328 -495l6 1c-1 143 -2 287 -4 430l-85 1c0 21 1 43 1 63h127c34 0 72 1 100 1c1 -20 0 -42 0 -62l-54 -3c-2 0 -3 -1 -3 -5l-4 -574c-16 -7 -50 -14 -82 -14c-88 116 -216 292 -339 478h-7
c0 -136 -1 -269 -1 -404l89 -2c0 -20 -1 -43 -1 -64c-41 0 -91 1 -137 1c-33 0 -67 -1 -95 -1c0 20 0 43 1 63zM364 -37h1c34 0 68 -38 68 -81c0 -67 -44 -128 -107 -163c-9 12 -20 24 -29 36c44 30 60 60 60 88s-26 40 -45 45c-5 43 21 75 52 75z" />
    <glyph glyph-name="Ohungarumlaut" unicode="&#x150;" horiz-adv-x="725" 
d="M348 -10h-1c-88 0 -162 33 -211 83c-58 59 -90 140 -90 246c0 130 65 234 143 286c61 39 122 55 194 55c63 0 120 -16 171 -50c74 -50 124 -151 124 -267c0 -101 -34 -203 -104 -270c-56 -54 -128 -83 -226 -83zM365 55h1c47 0 89 15 121 53c37 45 62 114 62 213
c0 88 -20 164 -58 214c-31 41 -72 60 -122 60c-49 0 -89 -16 -120 -48c-40 -40 -73 -115 -73 -219c0 -100 18 -168 63 -218c35 -39 80 -55 126 -55zM379 878c16 -15 31 -35 43 -52c-52 -36 -103 -72 -155 -108c-11 12 -22 26 -32 38c45 38 98 82 144 122zM519 874
c14 -14 30 -34 43 -51c-51 -36 -102 -73 -153 -110c-11 12 -22 25 -32 38c44 37 97 83 142 123z" />
    <glyph glyph-name="Omacron" unicode="&#x14c;" horiz-adv-x="725" 
d="M348 -10h-1c-88 0 -162 33 -211 83c-58 59 -90 140 -90 246c0 130 65 234 143 286c61 39 122 55 194 55c63 0 120 -16 171 -50c74 -50 124 -151 124 -267c0 -101 -34 -203 -104 -270c-56 -54 -128 -83 -226 -83zM365 55h1c47 0 89 15 121 53c37 45 62 114 62 213
c0 88 -20 164 -58 214c-31 41 -72 60 -122 60c-49 0 -89 -16 -120 -48c-40 -40 -73 -115 -73 -219c0 -100 18 -168 63 -218c35 -39 80 -55 126 -55zM488 794c1 -19 1 -40 0 -59c-74 0 -163 1 -245 1c-1 17 -1 37 0 56c84 1 161 1 245 2z" />
    <glyph glyph-name="Racute" unicode="&#x154;" horiz-adv-x="615" 
d="M116 584l-63 2c1 21 1 42 2 63c61 1 137 2 208 2c58 0 89 -1 142 -15c75 -18 131 -87 131 -155c0 -86 -57 -148 -131 -177v-5c46 -21 70 -78 119 -174c24 -47 32 -57 44 -58l56 -4c0 -20 -1 -41 -1 -62c-18 0 -49 0 -70 -1c-19 0 -74 -1 -90 -1c-31 46 -86 173 -113 222
c-19 33 -39 45 -77 45c-28 0 -39 -1 -43 -2l-1 -199l72 -3c0 -20 -1 -41 -1 -62h-130h-117c1 21 1 42 1 62l58 3c2 0 4 1 4 3v516zM232 586l-2 -257c5 -2 19 -2 41 -2c102 0 145 65 145 128c0 85 -58 135 -137 135c-26 0 -41 -1 -47 -4zM389 865c15 -19 32 -45 45 -67
c-55 -29 -125 -68 -181 -97c-10 14 -21 30 -29 44c49 36 114 83 165 120z" />
    <glyph glyph-name="Rcaron" unicode="&#x158;" horiz-adv-x="615" 
d="M116 584l-63 2c1 21 1 42 2 63c61 1 137 2 208 2c58 0 89 -1 142 -15c75 -18 131 -87 131 -155c0 -86 -57 -148 -131 -177v-5c46 -21 70 -78 119 -174c24 -47 32 -57 44 -58l56 -4c0 -20 -1 -41 -1 -62c-18 0 -49 0 -70 -1c-19 0 -74 -1 -90 -1c-31 46 -86 173 -113 222
c-19 33 -39 45 -77 45c-28 0 -39 -1 -43 -2l-1 -199l72 -3c0 -20 -1 -41 -1 -62h-130h-117c1 21 1 42 1 62l58 3c2 0 4 1 4 3v516zM232 586l-2 -257c5 -2 19 -2 41 -2c102 0 145 65 145 128c0 85 -58 135 -137 135c-26 0 -41 -1 -47 -4zM291 784c39 24 83 52 116 74
c12 -11 23 -26 33 -40c-39 -31 -89 -73 -130 -106c-11 0 -27 0 -39 1c-40 34 -85 71 -128 105c10 14 21 28 32 39c34 -22 78 -49 116 -73z" />
    <glyph glyph-name="Rcommaaccent" unicode="&#x156;" horiz-adv-x="615" 
d="M116 584l-63 2c1 21 1 42 2 63c61 1 137 2 208 2c58 0 89 -1 142 -15c75 -18 131 -87 131 -155c0 -86 -57 -148 -131 -177v-5c46 -21 70 -78 119 -174c24 -47 32 -57 44 -58l56 -4c0 -20 -1 -41 -1 -62c-18 0 -49 0 -70 -1c-19 0 -74 -1 -90 -1c-31 46 -86 173 -113 222
c-19 33 -39 45 -77 45c-28 0 -39 -1 -43 -2l-1 -199l72 -3c0 -20 -1 -41 -1 -62h-130h-117c1 21 1 42 1 62l58 3c2 0 4 1 4 3v516zM232 586l-2 -257c5 -2 19 -2 41 -2c102 0 145 65 145 128c0 85 -58 135 -137 135c-26 0 -41 -1 -47 -4zM330 -37h1c34 0 68 -38 68 -81
c0 -67 -44 -128 -107 -163c-9 12 -20 24 -29 36c44 30 60 60 60 88s-26 40 -45 45c-5 43 21 75 52 75z" />
    <glyph glyph-name="Sacute" unicode="&#x15a;" horiz-adv-x="511" 
d="M115 194l22 -102c1 -5 3 -9 7 -11c19 -13 51 -21 82 -21c37 0 75 11 95 31c19 19 28 41 28 70c0 70 -37 84 -126 122c-93 39 -163 91 -163 183c0 58 29 108 67 140c40 34 103 54 183 54c50 0 103 -9 127 -21c6 -53 9 -109 13 -162c-23 -3 -50 -7 -75 -9l-20 93
c-2 5 -3 8 -6 10c-14 12 -38 18 -64 18c-30 0 -58 -8 -79 -25c-17 -14 -33 -39 -33 -72c0 -61 28 -75 127 -115c104 -42 162 -91 162 -183c0 -59 -23 -112 -65 -148c-44 -37 -105 -56 -193 -56c-46 0 -112 8 -150 22c-6 56 -11 114 -16 170c24 5 52 9 77 12zM365 875
c15 -19 32 -45 45 -67c-55 -29 -125 -68 -181 -97c-10 14 -21 30 -29 44c49 36 114 83 165 120z" />
    <glyph glyph-name="Scedilla" unicode="&#x15e;" horiz-adv-x="511" 
d="M138 -80l75 70c-11 0 -26 0 -40 1c-39 2 -89 10 -119 21c-6 56 -11 115 -16 170c24 5 52 9 77 12l22 -102c1 -5 3 -8 7 -11c19 -13 51 -21 82 -21c37 0 75 11 95 31c19 19 28 41 28 70c0 70 -37 84 -126 122c-93 39 -163 91 -163 183c0 58 29 108 67 140
c40 34 103 54 183 54c50 0 103 -9 127 -21c6 -53 9 -109 13 -162c-23 -3 -50 -7 -75 -9l-20 93c-1 5 -3 8 -6 10c-14 12 -38 18 -64 18c-30 0 -58 -8 -79 -25c-17 -14 -33 -39 -33 -72c0 -61 28 -75 127 -115c104 -42 162 -90 162 -183c0 -59 -23 -112 -65 -148
c-29 -24 -64 -41 -110 -49l-68 -67c50 -7 73 -34 73 -71c0 -54 -57 -100 -156 -100c-4 14 -6 31 -7 45c48 2 85 15 85 47c0 12 -6 24 -14 29c-12 10 -26 12 -51 12c-4 10 -8 20 -11 28z" />
    <glyph glyph-name="Scedilla" unicode="&#xf6c1;" horiz-adv-x="511" 
d="M138 -80l75 70c-11 0 -26 0 -40 1c-39 2 -89 10 -119 21c-6 56 -11 115 -16 170c24 5 52 9 77 12l22 -102c1 -5 3 -8 7 -11c19 -13 51 -21 82 -21c37 0 75 11 95 31c19 19 28 41 28 70c0 70 -37 84 -126 122c-93 39 -163 91 -163 183c0 58 29 108 67 140
c40 34 103 54 183 54c50 0 103 -9 127 -21c6 -53 9 -109 13 -162c-23 -3 -50 -7 -75 -9l-20 93c-1 5 -3 8 -6 10c-14 12 -38 18 -64 18c-30 0 -58 -8 -79 -25c-17 -14 -33 -39 -33 -72c0 -61 28 -75 127 -115c104 -42 162 -90 162 -183c0 -59 -23 -112 -65 -148
c-29 -24 -64 -41 -110 -49l-68 -67c50 -7 73 -34 73 -71c0 -54 -57 -100 -156 -100c-4 14 -6 31 -7 45c48 2 85 15 85 47c0 12 -6 24 -14 29c-12 10 -26 12 -51 12c-4 10 -8 20 -11 28z" />
    </font>
</defs>
</svg>
